<svg xmlns="http://www.w3.org/2000/svg" fill="none" viewBox="0 0 24 24"><path fill="#000" d="M13.78 4c3.874 0 5.812.001 7.016 1.172C22 6.342 22 8.229 22 12s0 5.656-1.204 6.828S17.654 20 13.779 20h-2.637c-2.227 0-3.341 0-4.27-.501-.93-.502-1.521-1.42-2.702-3.259l-.68-1.06C2.497 13.634 2 12.86 2 12s.497-1.634 1.49-3.18l.682-1.06c1.18-1.84 1.771-2.757 2.701-3.26.929-.5 2.043-.5 4.27-.5zm-3.279 4.749a.752.752 0 0 0-.531 1.281L11.94 12l-1.97 1.97a.75.75 0 0 0-.184.83.75.75 0 0 0 1.244.23L13 13.06l1.97 1.97a.75.75 0 0 0 1.06-1.06L14.06 12l1.97-1.97a.75.75 0 0 0-1.06-1.06L13 10.94l-1.969-1.97a.75.75 0 0 0-.53-.22"/></svg>