<svg xmlns="http://www.w3.org/2000/svg" fill="none" viewBox="0 0 24 24"><path fill="#000" d="M21.987 9.75C22 10.415 22 11.161 22 12v2c0 3.771 0 5.657-1.172 6.828S17.771 22 14 22h-4c-3.771 0-5.657 0-6.828-1.172S2 17.771 2 14v-2c0-.839 0-1.585.013-2.25zM7 16a1 1 0 1 0 0 2 1 1 0 0 0 0-2m5 0a1 1 0 1 0 0 2 1 1 0 0 0 0-2m5 0a1 1 0 1 0 0 2 1 1 0 0 0 0-2M7 12a1 1 0 1 0 0 2 1 1 0 0 0 0-2m5 0a1 1 0 1 0 0 2 1 1 0 0 0 0-2m5 0a1 1 0 1 0 0 2 1 1 0 0 0 0-2m0-10.25a.75.75 0 0 1 .75.75v1.58c1.439.115 2.384.397 3.078 1.092.695.694.977 1.638 1.093 3.078H2.079c.116-1.439.398-2.384 1.093-3.078.694-.695 1.638-.977 3.078-1.092V2.5a.75.75 0 0 1 1.5 0v1.513C8.415 4 9.161 4 10 4h4c.839 0 1.585 0 2.25.013V2.5a.75.75 0 0 1 .75-.75"/></svg>