<svg xmlns="http://www.w3.org/2000/svg" fill="none" viewBox="0 0 24 24"><path fill="#000" d="M13.634 3a2.064 2.064 0 0 1 2.033 1.636c.129.635.696 1.125 1.356 1.125 1.38.06 2.282.229 3.002.702a4.4 4.4 0 0 1 1.226 1.204C22 8.767 22 10.3 22 13.364s0 4.597-.749 5.697a4.4 4.4 0 0 1-1.226 1.204c-1.12.735-2.682.735-5.803.735H9.778c-3.12 0-4.682 0-5.803-.735a4.4 4.4 0 0 1-1.226-1.204C2 17.96 2 16.429 2 13.364s0-4.597.75-5.697a4.4 4.4 0 0 1 1.225-1.204c.72-.472 1.623-.642 3.003-.702.659 0 1.226-.49 1.355-1.125A2.065 2.065 0 0 1 10.366 3zM12 9.273c-2.301 0-4.167 1.831-4.167 4.09S9.7 17.456 12 17.456s4.167-1.832 4.167-4.09c0-2.26-1.867-4.093-4.167-4.093m0 1.636c1.38 0 2.5 1.1 2.5 2.455s-1.12 2.454-2.5 2.454-2.5-1.099-2.5-2.454 1.12-2.455 2.5-2.455m5.556-1.636a.826.826 0 0 0-.834.818.826.826 0 0 0 .834.818h1.111a.827.827 0 0 0 .833-.818.826.826 0 0 0-.834-.818z"/></svg>