<svg xmlns="http://www.w3.org/2000/svg" fill="none" viewBox="0 0 24 24"><path fill="#000" d="M11.25 2.25a1.5 1.5 0 0 1 1.5 1.5v1.5h6.164a1.5 1.5 0 0 1 1.456 1.137l2.107 8.431q.023.09.023.182v3a1.5 1.5 0 0 1-1.5 1.5H3A1.5 1.5 0 0 1 1.5 18v-3a.8.8 0 0 1 .022-.182L3.63 6.387A1.5 1.5 0 0 1 5.086 5.25H6v-1.5a1.5 1.5 0 0 1 1.5-1.5zM3 15.75V18h18v-2.25zm3.75-4.5a.75.75 0 0 0 0 1.5h1.5a.75.75 0 0 0 0-1.5zm4.5 0a.75.75 0 0 0 0 1.5h1.5a.75.75 0 0 0 0-1.5zm4.5 0a.75.75 0 0 0 0 1.5h1.5a.75.75 0 0 0 0-1.5zm-9-3a.75.75 0 0 0 0 1.5h1.5a.75.75 0 0 0 0-1.5zm4.5 0a.75.75 0 0 0 0 1.5h1.5a.75.75 0 0 0 0-1.5zm4.5 0a.75.75 0 0 0 0 1.5h1.5a.75.75 0 0 0 0-1.5zM7.5 3.75v1.5h3.75v-1.5z"/></svg>