<svg xmlns="http://www.w3.org/2000/svg" fill="none" viewBox="0 0 24 24"><path fill="#000" d="M12 3.505c0-.715.723-1.187 1.342-.828C16.127 4.297 20 7.82 20 13.111c0 5.815-4.042 8.063-7.168 8.69C13.871 21.434 15 20.49 15 18.444c0-1.298-.819-2.097-1.46-2.473-.196-.114-.424.03-.442.256-.056.718-.744 1.29-1.214.744-.415-.482-.59-1.187-.59-1.637v-.59c0-.355-.357-.59-.663-.41C9.495 15.009 8 16.394 8 18.444c0 2.62 2.111 3.43 3.417 3.541a8 8 0 0 1-.484.015C8.289 22 3 20.22 3 13.11c0-2.78 1.461-4.65 2.86-5.715.778-.594 1.77-.003 1.87.971l.086.838c.104 1.02 1.034 1.857 1.894 1.298C11.394 9.407 12 6.775 12 5.332z"/></svg>