<svg xmlns="http://www.w3.org/2000/svg" fill="none" viewBox="0 0 24 24"><path fill="#000" d="M12 1.25A6.75 6.75 0 0 1 18.75 8v2.055c1.115.083 1.84.293 2.371.824.88.878.879 2.293.879 5.121s0 4.243-.879 5.121c-.878.88-2.293.879-5.121.879H8c-2.828 0-4.243 0-5.121-.879C1.999 20.243 2 18.828 2 16s0-4.243.879-5.121c.53-.531 1.256-.741 2.371-.824V8A6.75 6.75 0 0 1 12 1.25M12 14a2 2 0 1 0 0 4 2 2 0 0 0 0-4m0-11.25A5.25 5.25 0 0 0 6.75 8v2.004A124 124 0 0 1 8 10h8q.675-.001 1.25.004V8A5.25 5.25 0 0 0 12 2.75"/></svg>