<svg xmlns="http://www.w3.org/2000/svg" fill="none" viewBox="0 0 24 24"><path fill="#000" d="M21.974 8.75C22 9.689 22 10.763 22 12c0 4.714 0 7.071-1.465 8.535C19.072 22 16.714 22 12 22s-7.071 0-8.536-1.465C2 19.072 2 16.714 2 12c0-1.237 0-2.311.026-3.25zm-8.96 3.835c-1.342-.866-2.014-1.3-2.514-.982S10 12.782 10 14.5s0 2.577.5 2.895c.501.319 1.172-.114 2.514-.98C14.338 15.56 15 15.133 15 14.5s-.662-1.06-1.986-1.915M6.599 7.25H2.104c.147-1.764.503-2.928 1.36-3.786 1.253-1.252 3.158-1.433 6.632-1.46zM12 2c1.845 0 3.33 0 4.54.088L13.1 7.25H8.4L11.9 2zm6.2.304c.992.21 1.738.563 2.336 1.16.857.858 1.212 2.022 1.36 3.786H14.9z"/></svg>