<svg xmlns="http://www.w3.org/2000/svg" fill="none" viewBox="0 0 24 24"><path fill="#000" d="M12.5 2c.939 0 1.409 0 1.779.152a2 2 0 0 1 1.09 1.083c.094.223.13.483.145.863a1.62 1.62 0 0 0 .795 1.353 1.64 1.64 0 0 0 1.58.008c.338-.178.583-.276.825-.308a2.03 2.03 0 0 1 1.49.396c.318.243.552.646 1.022 1.453s.704 1.211.757 1.605a2 2 0 0 1-.399 1.479c-.149.192-.358.353-.682.556A1.61 1.61 0 0 0 20.12 12c0 .558.306 1.064.783 1.361.323.202.532.363.68.555a2 2 0 0 1 .4 1.479c-.053.395-.287.798-.757 1.605-.469.807-.704 1.211-1.021 1.453-.424.323-.96.466-1.49.396-.243-.032-.488-.13-.826-.308a1.64 1.64 0 0 0-1.58.008 1.61 1.61 0 0 0-.795 1.353c-.015.38-.05.64-.144.863a2 2 0 0 1-1.091 1.083c-.37.152-.84.152-1.779.152s-1.409 0-1.779-.152a2 2 0 0 1-1.09-1.083c-.094-.223-.13-.483-.145-.863a1.62 1.62 0 0 0-.795-1.353 1.64 1.64 0 0 0-1.58-.008c-.338.178-.583.276-.825.308a2.03 2.03 0 0 1-1.49-.396c-.318-.243-.552-.646-1.022-1.453s-.704-1.211-.757-1.605a2 2 0 0 1 .4-1.479c.148-.192.357-.353.681-.556.476-.296.782-.802.782-1.36s-.306-1.064-.783-1.361c-.323-.202-.532-.363-.68-.555a2 2 0 0 1-.4-1.479c.053-.395.287-.798.757-1.605.469-.807.704-1.211 1.022-1.453a2.03 2.03 0 0 1 1.49-.396c.242.032.487.13.825.308a1.64 1.64 0 0 0 1.579-.008 1.62 1.62 0 0 0 .796-1.353c.015-.379.051-.64.145-.863a2 2 0 0 1 1.09-1.083C11.092 2 11.561 2 12.501 2m0 7c-1.669 0-3.023 1.343-3.023 3s1.354 3 3.023 3 3.023-1.343 3.023-3-1.354-3-3.023-3"/></svg>