<svg xmlns="http://www.w3.org/2000/svg" fill="none" viewBox="0 0 24 24"><path fill="#000" d="M11.15 1.299a6.75 6.75 0 0 1 7.387 5.014.75.75 0 0 1-1.452.374 5.25 5.25 0 0 0-5.747-3.902A5.25 5.25 0 0 0 6.75 8v2.004Q7.323 9.999 8 10h8c2.828 0 4.243 0 5.121.879.88.878.879 2.293.879 5.121s0 4.243-.879 5.121c-.878.88-2.293.879-5.121.879H8c-2.828 0-4.243 0-5.121-.879C1.999 20.243 2 18.828 2 16s0-4.243.879-5.121c.53-.531 1.256-.741 2.371-.824V8a6.75 6.75 0 0 1 5.9-6.701M12 14a2 2 0 1 0 0 4 2 2 0 0 0 0-4"/></svg>