<svg xmlns="http://www.w3.org/2000/svg" fill="none" viewBox="0 0 24 24"><path fill="#000" d="M12 13c3.314 0 6 1.567 6 3.5S15.314 20 12 20s-6-1.567-6-3.5S8.686 13 12 13m-6.604 1.077c-.539.667-.896 1.479-.896 2.423 0 .974.38 1.807.947 2.486C3.517 18.854 2 17.804 2 16.53c0-1.262 1.49-2.304 3.396-2.452m13.208 0c1.905.148 3.396 1.19 3.396 2.452 0 1.275-1.517 2.325-3.447 2.457.567-.679.947-1.512.947-2.486 0-.944-.357-1.756-.896-2.423M12 4a3.5 3.5 0 1 1 0 7 3.5 3.5 0 0 1 0-7M7.122 5q.266 0 .518.05A5 5 0 0 0 7 7.5c0 .868.221 1.685.61 2.396q-.237.045-.488.045c-1.414 0-2.561-1.106-2.561-2.47S5.708 5 7.122 5m9.757 0c1.414 0 2.56 1.107 2.56 2.47 0 1.365-1.147 2.471-2.561 2.471q-.252 0-.488-.045A5 5 0 0 0 17 7.5c0-.89-.232-1.726-.639-2.45q.252-.05.518-.05"/></svg>