<svg xmlns="http://www.w3.org/2000/svg" fill="none" viewBox="0 0 24 24"><path fill="#000" d="M12 1.25a.75.75 0 0 1 0 1.5c-2.378 0-4.086.002-5.386.176-1.279.172-2.049.5-2.619 1.068-.569.57-.897 1.341-1.07 2.62-.144 1.08-.169 2.44-.174 4.232l.507-.443a3.05 3.05 0 0 1 4.165.138l4.29 4.29a1.25 1.25 0 0 0 1.602.14l.298-.21a3.75 3.75 0 0 1 4.665.28l2.774 2.497.022-.152c.174-1.3.176-3.008.176-5.386a.75.75 0 0 1 1.5 0v.057c0 2.309 0 4.118-.19 5.529-.194 1.445-.599 2.585-1.494 3.48-.895.894-2.035 1.3-3.48 1.494-1.411.19-3.22.19-5.53.19h-.113c-2.309 0-4.118 0-5.529-.19-1.445-.194-2.585-.599-3.48-1.494-.894-.895-1.3-2.035-1.494-3.48-.19-1.411-.19-3.22-.19-5.53v-.113c0-2.309 0-4.118.19-5.529.194-1.445.599-2.585 1.494-3.48.895-.894 2.035-1.3 3.48-1.494 1.411-.19 3.22-.19 5.53-.19zm-6.683 9.9a1.55 1.55 0 0 0-1.072.382L2.75 12.84c.003 1.948.023 3.405.176 4.546.172 1.279.5 2.05 1.07 2.62.57.569 1.34.896 2.618 1.068 1.3.174 5.386.176 5.386.176s4.085-.002 5.386-.176c1.279-.172 2.05-.5 2.62-1.07.25-.25.456-.543.604-.864l-3.335-2.983a2.25 2.25 0 0 0-2.8-.17l-.297.21a2.75 2.75 0 0 1-3.526-.305l-4.29-4.29a1.55 1.55 0 0 0-1.045-.453M18.5 1.25a.75.75 0 0 1 .75.75v2.75H22a.75.75 0 0 1 0 1.5h-2.75V9a.75.75 0 0 1-1.5 0V6.25H15a.75.75 0 0 1 0-1.5h2.75V2a.75.75 0 0 1 .75-.75"/></svg>