<svg xmlns="http://www.w3.org/2000/svg" fill="none" viewBox="0 0 24 32"><path fill="#000" fill-rule="evenodd" d="M13.47 7.293c.14-.187.331-.292.53-.292s.39.105.53.292l6 8c.14.188.22.442.22.707s-.08.52-.22.707l-6 8a.8.8 0 0 1-.243.231.6.6 0 0 1-.293.087.6.6 0 0 1-.294-.073.8.8 0 0 1-.249-.22 1.1 1.1 0 0 1-.165-.333 1.3 1.3 0 0 1 .01-.781q.062-.186.174-.325L18.19 17H4c-.199 0-.39-.105-.53-.293A1.2 1.2 0 0 1 3.25 16c0-.265.079-.52.22-.707.14-.188.33-.293.53-.293h14.19l-4.72-6.293A1.2 1.2 0 0 1 13.25 8c0-.265.08-.52.22-.707" clip-rule="evenodd"/></svg>