<svg xmlns="http://www.w3.org/2000/svg" fill="none" viewBox="0 0 24 24"><path fill="#000" d="M13.834 3.25c1.89 0 3.385 0 4.553.153 1.123.147 2.045.446 2.787 1.096l.145.136c.768.748 1.11 1.698 1.273 2.874.158 1.14.158 2.598.158 4.434v.116c0 1.836 0 3.294-.158 4.434-.163 1.176-.505 2.127-1.273 2.874-.765.745-1.734 1.074-2.932 1.23-1.168.154-2.662.154-4.553.154h-2.728c-1.082 0-1.948 0-2.656-.066-.73-.068-1.35-.21-1.934-.525-.587-.316-1.04-.754-1.49-1.324-.434-.551-.893-1.266-1.466-2.158l-.723-1.126c-.478-.744-.869-1.351-1.135-1.881-.278-.554-.452-1.081-.452-1.67s.174-1.116.452-1.669c.266-.53.657-1.138 1.135-1.882l.723-1.127c.573-.892 1.032-1.607 1.465-2.158.45-.57.904-1.008 1.49-1.324.585-.315 1.205-.457 1.935-.525.708-.066 1.574-.066 2.656-.066zm-2.693 1.501c-1.127 0-1.923 0-2.553.059-.615.058-1.017.166-1.362.353-.343.185-.65.457-1.023.932C5.82 6.582 5.4 7.236 4.8 8.166l-.68 1.06c-.505.786-.852 1.329-1.078 1.779-.219.435-.293.725-.293.996s.074.561.293.996c.226.451.573.992 1.078 1.78l.68 1.059c.599.93 1.02 1.584 1.403 2.071.373.475.679.747 1.023.932.345.187.747.295 1.362.352.63.06 1.426.06 2.553.06h2.637c1.958 0 3.353 0 4.413-.14 1.04-.136 1.643-.392 2.082-.819.435-.425.695-1.002.833-2.005.141-1.026.143-2.379.143-4.286s-.002-3.26-.143-4.286c-.139-1.003-.398-1.581-.834-2.004-.438-.428-1.04-.684-2.08-.82-1.06-.138-2.456-.14-4.414-.14zm4.353 4.018a.751.751 0 0 1 .536 1.261L14.06 12l1.97 1.97a.75.75 0 0 1-1.06 1.06L13 13.06l-1.97 1.97a.753.753 0 0 1-1.079.019.75.75 0 0 1 .019-1.08L11.94 12l-1.97-1.97a.75.75 0 0 1 1.06-1.06L13 10.94l1.97-1.97a.75.75 0 0 1 .524-.201"/></svg>