<svg xmlns="http://www.w3.org/2000/svg" fill="none" viewBox="0 0 25 24"><path fill="#000" fill-rule="evenodd" d="M15.451 9.158c.312.25.362.704.113 1.015L11.52 15.23a.722.722 0 0 1-1.113.018l-1.734-2.025a.722.722 0 0 1 1.098-.94l1.166 1.363 3.499-4.374a.72.72 0 0 1 1.015-.113" clip-rule="evenodd"/><path fill="#000" d="M20.75 5.25H17V4.5a2.25 2.25 0 0 0-2.25-2.25h-4.5A2.25 2.25 0 0 0 8 4.5v.75H4.25a1.5 1.5 0 0 0-1.5 1.5v12a1.5 1.5 0 0 0 1.5 1.5h16.5a1.5 1.5 0 0 0 1.5-1.5v-12a1.5 1.5 0 0 0-1.5-1.5M9.5 4.5a.75.75 0 0 1 .75-.75h4.5a.75.75 0 0 1 .75.75v.75h-6zm11.25 14.25H4.25v-12h16.5z"/></svg>