<svg xmlns="http://www.w3.org/2000/svg" fill="none" viewBox="0 0 24 24"><path fill="#000" d="M22 21.646v.854H1.5v-.854zm-1.709-2.135v.854H3.21v-.854zM4.063 9.688v8.542h-.854V9.688zm2.562 0v8.542h-.854V9.688zm11.104 0v8.542h-.854V9.688zm2.563 0v8.542h-.855V9.688zm-7.26 2.562a.426.426 0 0 0-.428-.427h-1.708a.43.43 0 0 0-.427.427v.32a.43.43 0 0 0 .308.41l2.186.639.098.032a1.28 1.28 0 0 1 .824 1.198v.818a1.28 1.28 0 0 1-1.281 1.281h-.427v1.282h-.854v-1.282h-.427a1.28 1.28 0 0 1-1.281-1.28v-.428h.854v.427a.426.426 0 0 0 .427.427h1.708a.43.43 0 0 0 .427-.427v-.818a.43.43 0 0 0-.243-.386l-.065-.025-2.186-.638a1.28 1.28 0 0 1-.922-1.23v-.32a1.28 1.28 0 0 1 1.281-1.281h.427V9.688h.854v1.28h.427a1.28 1.28 0 0 1 1.281 1.282v.427h-.854zM12.108 2l.115.089.51.384c2.54 1.874 5.002 3.07 8.98 4.462l.286.1v1.371H1.5v-1.37l.286-.1.776-.276c3.782-1.37 6.155-2.603 8.714-4.571L11.39 2zm-.43.855C9.019 4.882 6.529 6.146 2.6 7.552h18.3c-3.928-1.406-6.419-2.67-9.079-4.697z"/></svg>