<svg xmlns="http://www.w3.org/2000/svg" fill="none" viewBox="0 0 24 24"><path fill="#000" d="M2 14.25a.75.75 0 0 1 .75.75c0 1.92.003 3 .135 3.76.118.673.33 1.05.817 1.538.423.423 1.003.677 2.009.812 1.028.138 2.382.14 4.289.14a.75.75 0 0 1 0 1.5h-.056c-1.838 0-3.294 0-4.433-.153-1.172-.158-2.121-.49-2.87-1.238-.684-.685-1.058-1.336-1.233-2.341-.158-.904-.158-2.123-.158-3.922V15a.75.75 0 0 1 .75-.75m20 0a.75.75 0 0 1 .75.75v.096c0 1.8 0 3.018-.158 3.922-.175 1.005-.549 1.656-1.233 2.34-.749.75-1.698 1.08-2.87 1.239-1.14.153-2.595.153-4.433.153H14a.75.75 0 0 1 0-1.5c1.907 0 3.262-.002 4.29-.14 1.005-.135 1.585-.39 2.008-.812.487-.487.7-.865.817-1.538.132-.76.135-1.84.135-3.76a.75.75 0 0 1 .75-.75m0-3a.75.75 0 0 1 0 1.5H2a.75.75 0 0 1 0-1.5zm-12-10a.75.75 0 0 1 0 1.5c-1.907 0-3.261.002-4.29.14-1.005.135-1.585.39-2.008.812-.487.487-.7.865-.817 1.538C2.753 6 2.75 7.08 2.75 9a.75.75 0 0 1-1.5 0v-.096c0-1.8 0-3.018.158-3.922.175-1.005.549-1.656 1.233-2.34.749-.75 1.698-1.08 2.87-1.239 1.14-.153 2.595-.153 4.433-.153zm4.056 0c1.838 0 3.293 0 4.433.153 1.172.158 2.121.489 2.87 1.239.684.684 1.058 1.335 1.233 2.34.158.904.158 2.123.158 3.922V9a.75.75 0 0 1-1.5 0c0-1.92-.003-3-.135-3.76-.117-.673-.33-1.05-.817-1.538-.423-.423-1.003-.677-2.008-.812-1.028-.138-2.383-.14-4.29-.14a.75.75 0 0 1 0-1.5z"/></svg>