<svg xmlns="http://www.w3.org/2000/svg" fill="none" viewBox="0 0 24 24"><path fill="#000" d="M21 21.25a.75.75 0 0 1 0 1.5H3a.75.75 0 0 1 0-1.5zm-15.955-13c.432 0 .83 0 1.152.043.356.048.73.16 1.04.47s.422.684.47 1.04c.043.322.043.72.043 1.152v6.09c0 .432 0 .83-.043 1.152-.048.356-.16.73-.47 1.04s-.684.422-1.04.47c-.322.043-.72.043-1.152.043h-.09c-.432 0-.83 0-1.152-.043-.356-.048-.73-.16-1.04-.47s-.422-.684-.47-1.04c-.043-.322-.043-.72-.043-1.152v-6.09c0-.432 0-.83.043-1.152.048-.356.16-.73.47-1.04s.684-.422 1.04-.47c.322-.043.72-.043 1.152-.043zm7-4c.433 0 .83 0 1.152.043.356.048.731.16 1.04.47s.422.684.47 1.04c.043.323.043.72.043 1.152v10.09c0 .433 0 .83-.043 1.152-.048.356-.16.731-.47 1.04s-.684.422-1.04.47c-.323.043-.72.043-1.152.043h-.09c-.432 0-.83 0-1.152-.043-.356-.048-.731-.16-1.04-.47s-.422-.684-.47-1.04c-.043-.323-.043-.72-.043-1.152V6.955c0-.433 0-.83.043-1.152.048-.356.16-.731.47-1.04s.684-.422 1.04-.47c.323-.043.72-.043 1.152-.043zm7-3c.432 0 .83 0 1.152.043.356.048.73.16 1.04.47s.422.684.47 1.04c.043.322.043.72.043 1.152v13.09c0 .432 0 .83-.043 1.152-.048.356-.16.73-.47 1.04s-.684.422-1.04.47c-.322.043-.72.043-1.152.043h-.09c-.432 0-.83 0-1.152-.043-.356-.048-.73-.16-1.04-.47s-.422-.684-.47-1.04c-.043-.322-.043-.72-.043-1.152V3.955c0-.432 0-.83.043-1.152.048-.356.16-.73.47-1.04s.684-.422 1.04-.47c.322-.043.72-.043 1.152-.043zM5 9.75c-.493 0-.787.002-.997.03a.7.7 0 0 0-.178.042l-.002.001v.003l-.006.01a.7.7 0 0 0-.037.167c-.028.21-.03.504-.03.997v6c0 .493.002.787.03.997q.01.09.042.177v.002l.014.007a.7.7 0 0 0 .167.037c.21.028.504.03.997.03s.787-.002.997-.03q.09-.009.177-.042l.003-.001v-.003l.006-.01a.7.7 0 0 0 .037-.167c.028-.21.03-.504.03-.997v-6c0-.493-.002-.787-.03-.997a.7.7 0 0 0-.042-.177l-.001-.003h-.003l-.01-.006a.7.7 0 0 0-.167-.037c-.21-.028-.504-.03-.997-.03m7-4c-.493 0-.787.002-.997.03a.7.7 0 0 0-.167.037l-.007.003-.003.002-.003.001v.003a.7.7 0 0 0-.043.177c-.028.21-.03.504-.03.997v10c0 .493.002.787.03.997a.7.7 0 0 0 .037.167l.005.01.001.003h.003a.7.7 0 0 0 .177.043c.21.028.504.03.997.03s.787-.002.997-.03a.7.7 0 0 0 .167-.037l.01-.005.003-.001v-.003a.7.7 0 0 0 .043-.177c.028-.21.03-.504.03-.997V7c0-.493-.002-.787-.03-.997a.7.7 0 0 0-.037-.167l-.005-.01-.001-.003h-.003a.7.7 0 0 0-.177-.043c-.21-.028-.504-.03-.997-.03m7-3c-.493 0-.787.002-.997.03a.7.7 0 0 0-.178.042l-.002.001v.003l-.006.01a.7.7 0 0 0-.037.167c-.028.21-.03.504-.03.997v13c0 .493.002.787.03.997q.009.09.042.177l.001.003h.003l.003.003.007.003a.7.7 0 0 0 .167.037c.21.028.504.03.997.03s.787-.002.997-.03q.09-.009.177-.042l.003-.001v-.003l.006-.01a.7.7 0 0 0 .037-.167c.028-.21.03-.504.03-.997V4c0-.493-.002-.787-.03-.997a.7.7 0 0 0-.042-.177l-.001-.003h-.003l-.01-.006a.7.7 0 0 0-.167-.037c-.21-.028-.504-.03-.997-.03"/></svg>