<svg xmlns="http://www.w3.org/2000/svg" fill="none" viewBox="0 0 24 24"><path fill="#000" d="M3 15a.75.75 0 0 1 .75.75v3h3a.75.75 0 0 1 0 1.5H3a.75.75 0 0 1-.75-.75v-3.75A.75.75 0 0 1 3 15m18 0a.75.75 0 0 1 .75.75v3.75a.75.75 0 0 1-.75.75h-3.75a.75.75 0 0 1 0-1.5h3v-3A.75.75 0 0 1 21 15M7.5 7.5a.75.75 0 0 1 .75.75v7.5a.75.75 0 0 1-1.5 0v-7.5a.75.75 0 0 1 .75-.75m3 0a.75.75 0 0 1 .75.75v7.5a.75.75 0 0 1-1.5 0v-7.5a.75.75 0 0 1 .75-.75m3 0a.75.75 0 0 1 .75.75v7.5a.75.75 0 0 1-1.5 0v-7.5a.75.75 0 0 1 .75-.75m3 0a.75.75 0 0 1 .75.75v7.5a.75.75 0 0 1-1.5 0v-7.5a.75.75 0 0 1 .75-.75M6.75 3.75a.75.75 0 0 1 0 1.5h-3v3a.75.75 0 0 1-1.5 0V4.5A.75.75 0 0 1 3 3.75zm14.25 0a.75.75 0 0 1 .75.75v3.75a.75.75 0 0 1-1.5 0v-3h-3a.75.75 0 0 1 0-1.5z"/></svg>