<svg xmlns="http://www.w3.org/2000/svg" fill="none" viewBox="0 0 24 24"><path fill="#000" d="M20.506 2.665a.75.75 0 0 1 .53.219l.095.114a.75.75 0 0 1-.094.946l-1.633 1.633a4.75 4.75 0 0 1-.085 5.687l.004.032v.005l.001.008.003.027q.022.222.034.444a16.1 16.1 0 0 1-.58 5.176c-.29 1.019-.743 2.026-1.208 2.907-1.162 2.2-3.833 2.855-5.876 1.812l-.025-.012-1.12-.682a22.75 22.75 0 0 1-7.613-7.612l-.681-1.12-.013-.025c-1.043-2.043-.386-4.715 1.813-5.876.88-.465 1.888-.918 2.905-1.21a16.1 16.1 0 0 1 5.525-.554l.096.009.027.003h.011l.035.005a4.75 4.75 0 0 1 5.686-.085l1.633-1.632a.75.75 0 0 1 .53-.219m-8.45 3.39c-1.578-.08-3.16.098-4.682.525-.883.254-1.79.658-2.617 1.094-1.406.743-1.873 2.474-1.189 3.844l.651 1.07a21.25 21.25 0 0 0 7.11 7.111l1.072.652c1.37.684 3.102.218 3.844-1.189.437-.827.84-1.734 1.093-2.617.44-1.568.614-3.198.516-4.823l-5.658-5.656zm3.877-.92a3.25 3.25 0 0 0-2.083.462l4.473 4.473a3.25 3.25 0 0 0-.468-4.005 3.25 3.25 0 0 0-1.922-.93"/></svg>