<svg xmlns="http://www.w3.org/2000/svg" fill="none" viewBox="0 0 24 24"><path fill="#000" d="M20.387 11a2.613 2.613 0 0 1 1.847 4.46l-5.294 5.296c-.302.302-.48.48-.678.635a4 4 0 0 1-.754.465c-.227.108-.465.188-.87.323l-1.86.62-.448.15a1.01 1.01 0 0 1-1.278-1.28l.77-2.306c.134-.405.214-.645.322-.872q.191-.4.465-.753c.154-.197.333-.376.635-.678l5.295-5.294A2.6 2.6 0 0 1 20.387 11m-6.53 6.63c-.329.33-.469.47-.587.623a3.2 3.2 0 0 0-.37.599c-.083.174-.146.362-.294.803l-.529 1.587.68.68 1.587-.527c.441-.148.629-.211.804-.294q.319-.153.598-.37c.152-.12.294-.26.623-.588l4.225-4.225a4.1 4.1 0 0 1-1.54-.974 4.1 4.1 0 0 1-.971-1.538zM17.895 1a3.535 3.535 0 0 1 3.536 3.536v5.569a3.46 3.46 0 0 0-1.572.043V7.286H2.571v10.609a1.965 1.965 0 0 0 1.965 1.963h6.048l-.407 1.573h-5.64A3.536 3.536 0 0 1 1 17.895V4.536A3.536 3.536 0 0 1 4.536 1zM6.894 14.358a1.179 1.179 0 1 1 0 2.358 1.179 1.179 0 0 1 0-2.358m4.322 0a1.179 1.179 0 1 1 0 2.358 1.179 1.179 0 0 1 0-2.358m9.17-2.516a1.78 1.78 0 0 0-1.255.515l-.37.37c.02.097.051.23.105.384.163.467.43.892.782 1.24.348.351.773.618 1.24.782.154.054.287.086.384.105l.37-.369a1.777 1.777 0 0 0-1.256-3.027M6.894 10.43a1.178 1.178 0 1 1 0 2.356 1.178 1.178 0 0 1 0-2.356m4.322 0a1.178 1.178 0 1 1 0 2.356 1.178 1.178 0 0 1 0-2.356m4.321 0a1.18 1.18 0 1 1 .001 2.36 1.18 1.18 0 0 1 0-2.36m-11-7.859A1.965 1.965 0 0 0 2.57 4.536v1.179h17.29V4.536a1.966 1.966 0 0 0-1.965-1.965z"/></svg>