<svg xmlns="http://www.w3.org/2000/svg" fill="none" viewBox="0 0 24 24"><path fill="#000" d="M17 1.75a.75.75 0 0 1 .75.75v.827q.39.03.74.076c1.171.158 2.12.49 2.87 1.238.747.749 1.079 1.698 1.237 2.87q.074.562.107 1.23c.054.148.06.309.019.46.027.801.027 1.712.027 2.743v2.112c0 1.838 0 3.294-.153 4.433-.158 1.172-.49 2.121-1.238 2.87-.749.748-1.698 1.08-2.87 1.238-1.14.153-2.595.153-4.433.153H9.944c-1.838 0-3.294 0-4.433-.153-1.172-.158-2.121-.49-2.87-1.238-.748-.749-1.08-1.698-1.238-2.87-.153-1.14-.153-2.595-.153-4.433v-2.112c0-1.03 0-1.942.027-2.744a.75.75 0 0 1 .02-.46q.032-.667.106-1.23c.158-1.171.49-2.12 1.238-2.87.749-.747 1.698-1.079 2.87-1.237q.35-.045.739-.076V2.5a.75.75 0 0 1 1.5 0v.763c.662-.013 1.391-.013 2.194-.013h4.112c.803 0 1.532 0 2.194.013V2.5a.75.75 0 0 1 .75-.75m-14.237 8c-.013.653-.013 1.396-.013 2.25v2c0 1.907.002 3.262.14 4.29.135 1.005.39 1.585.812 2.008s1.003.677 2.009.812c1.028.138 2.382.14 4.289.14h4c1.907 0 3.262-.002 4.29-.14 1.005-.135 1.585-.39 2.008-.812s.677-1.003.812-2.009c.138-1.027.14-2.382.14-4.289v-2c0-.854 0-1.597-.013-2.25zm13.737 4.5a2.25 2.25 0 1 1 .002 4.5 2.25 2.25 0 0 1-.002-4.5m0 1.5a.75.75 0 1 0 0 1.5.75.75 0 0 0 0-1.5m-6.5-11c-1.907 0-3.261.002-4.29.14-1.005.135-1.585.39-2.008.812S3.025 6.705 2.89 7.71q-.034.255-.058.54h18.336q-.024-.285-.058-.54c-.135-1.005-.39-1.585-.812-2.008s-1.003-.677-2.008-.812c-1.028-.138-2.383-.14-4.29-.14z"/></svg>