<svg xmlns="http://www.w3.org/2000/svg" fill="none" viewBox="0 0 24 24"><path fill="#000" d="M14.056 3.25c1.838 0 3.294 0 4.433.153 1.172.158 2.121.49 2.87 1.238.748.749 1.08 1.698 1.238 2.87.09.673.127 1.456.142 2.363a.8.8 0 0 1 .004.23q.009.848.007 1.84v.112c0 1.838 0 3.294-.153 4.433-.158 1.172-.49 2.121-1.238 2.87-.749.748-1.698 1.08-2.87 1.238-1.14.153-2.595.153-4.433.153H9.944c-1.838 0-3.294 0-4.433-.153-1.171-.158-2.12-.49-2.87-1.238-.748-.749-1.08-1.698-1.238-2.87-.153-1.14-.153-2.595-.153-4.433v-.112q-.003-.992.007-1.84a.8.8 0 0 1 .003-.23c.016-.907.053-1.69.143-2.363.158-1.172.49-2.121 1.238-2.87.75-.748 1.699-1.08 2.87-1.238 1.14-.153 2.595-.153 4.433-.153zM2.75 12c0 1.907.002 3.262.14 4.29.135 1.005.389 1.585.812 2.008s1.003.677 2.009.812c1.028.138 2.382.14 4.289.14h4c1.906 0 3.262-.002 4.29-.14 1.005-.135 1.585-.39 2.009-.812.422-.423.676-1.003.811-2.009.138-1.028.14-2.382.14-4.289q0-.668-.002-1.25H2.752q-.003.582-.002 1.25m13.295.25c.433 0 .83 0 1.152.043.356.048.731.16 1.04.47s.422.684.47 1.04c.043.323.043.72.043 1.152v.09c0 .433 0 .83-.043 1.152-.048.356-.16.731-.47 1.04s-.684.422-1.04.47c-.323.043-.72.043-1.152.043h-.09c-.433 0-.83 0-1.152-.043-.356-.048-.73-.16-1.04-.47-.309-.31-.422-.684-.47-1.04-.043-.323-.043-.72-.043-1.152v-.09c0-.433 0-.83.043-1.152.048-.356.16-.731.47-1.04s.684-.422 1.04-.47c.323-.043.72-.043 1.152-.043zM10 15.75a.75.75 0 0 1 0 1.5H6a.751.751 0 0 1 0-1.5zm6-2c-.493 0-.787.002-.997.03a.7.7 0 0 0-.177.042l-.003.001-.001.003-.005.01a.7.7 0 0 0-.037.167c-.028.21-.03.504-.03.997s.002.787.03.997q.009.09.042.177v.003h.004l.01.006c.022.009.07.024.167.037.21.028.504.03.997.03.492 0 .787-.002.997-.03q.09-.009.177-.042l.003-.001.001-.003.005-.01a.7.7 0 0 0 .037-.167c.028-.21.03-.504.03-.997s-.002-.787-.03-.997a.7.7 0 0 0-.042-.177v-.003h-.004l-.01-.006a.7.7 0 0 0-.167-.037c-.21-.028-.505-.03-.997-.03m-8-1a.75.75 0 0 1 0 1.5H6a.751.751 0 0 1 0-1.5zm2-8c-1.907 0-3.261.002-4.29.14-1.005.135-1.585.39-2.008.812S3.025 6.705 2.89 7.71c-.06.446-.094.953-.114 1.54h18.448a16 16 0 0 0-.114-1.54c-.135-1.005-.389-1.585-.811-2.008-.424-.423-1.004-.677-2.01-.812-1.027-.138-2.383-.14-4.29-.14z"/></svg>