<svg xmlns="http://www.w3.org/2000/svg" fill="none" viewBox="0 0 24 24"><path fill="#000" d="M20.462 15.337a.937.937 0 0 1 1.326 1.326l-3.75 3.75a.937.937 0 0 1-1.326 0l-1.875-1.875-.017-.017a.938.938 0 0 1 1.326-1.326l.017.017 1.212 1.212zm-.274-6.65c0-.54-.001-.889-.023-1.155-.02-.254-.056-.349-.08-.395a.94.94 0 0 0-.393-.401l-.016-.009c-.047-.023-.141-.059-.396-.08a16 16 0 0 0-1.155-.022H5.375c-.54 0-.89 0-1.155.022-.239.02-.337.052-.386.076l-.01.004a.94.94 0 0 0-.4.393l-.01.017c-.023.046-.058.14-.08.395-.02.266-.022.615-.022 1.156v.75h16.876zm1.875 3.563a.938.938 0 0 1-1.875 0v-.937H3.311v4.5c0 .54.001.889.023 1.155.02.254.056.349.08.395l.008.017a.94.94 0 0 0 .385.384l.016.009.01.004c.05.024.147.056.386.076.265.021.614.022 1.155.022h6.375a.937.937 0 1 1 0 1.875H5.375c-.51 0-.948 0-1.308-.029-.37-.03-.74-.097-1.094-.278a2.8 2.8 0 0 1-1.216-1.204l-.013-.025c-.18-.354-.248-.723-.278-1.094-.03-.36-.028-.798-.028-1.308V8.689c0-.51-.001-.949.028-1.308.03-.371.097-.74.278-1.094.27-.53.7-.96 1.23-1.23l.032-.016c.345-.168.702-.232 1.061-.261.36-.03.798-.029 1.308-.029h12.75c.51 0 .948 0 1.308.029.37.03.74.097 1.094.278l.025.012c.517.27.939.696 1.204 1.217l.017.033c.168.344.232.702.26 1.06.03.36.03.799.03 1.309z"/></svg>