<svg xmlns="http://www.w3.org/2000/svg" fill="none" viewBox="0 0 24 24"><path fill="#000" d="M11.25 2.438a1.31 1.31 0 0 1 1.313 1.312v1.688h6.351a1.314 1.314 0 0 1 1.274.995l2.108 8.43q.017.067.017.137v3A1.31 1.31 0 0 1 21 19.313H3A1.31 1.31 0 0 1 1.688 18v-3q0-.07.016-.137l2.108-8.431a1.315 1.315 0 0 1 1.274-.995h1.101V3.75A1.31 1.31 0 0 1 7.5 2.438zM2.813 15.563V18a.19.19 0 0 0 .187.188h18a.19.19 0 0 0 .188-.188v-2.437zm2.273-9a.2.2 0 0 0-.115.039.2.2 0 0 0-.067.102L2.97 14.438h18.06l-1.934-7.734a.2.2 0 0 0-.067-.102.2.2 0 0 0-.115-.04zm3.164 4.875a.562.562 0 0 1 0 1.124h-1.5a.562.562 0 0 1 0-1.124zm4.5 0a.563.563 0 0 1 0 1.124h-1.5a.563.563 0 0 1 0-1.124zm4.5 0a.563.563 0 0 1 0 1.124h-1.5a.563.563 0 0 1 0-1.124zm-9-3a.562.562 0 0 1 0 1.124h-1.5a.562.562 0 0 1 0-1.124zm4.5 0a.562.562 0 0 1 0 1.124h-1.5a.562.562 0 0 1 0-1.124zm4.5 0a.562.562 0 0 1 0 1.124h-1.5a.562.562 0 0 1 0-1.124zM7.5 3.561a.19.19 0 0 0-.187.188v1.688h4.125V3.75a.19.19 0 0 0-.188-.187z"/></svg>