<svg xmlns="http://www.w3.org/2000/svg" fill="none" viewBox="0 0 24 24"><path fill="#000" d="M18.897 6.781h-1.512v.38l.476-.027.622-.022.619-.026c.551.074.552.074.848.347.4.715.49 1.442.615 2.246l.087.529q.137.85.266 1.703l.09.581c.352 2.295.66 4.563.654 6.888v.595c-.037 1.265-.036 1.265-.36 1.67-.57.464-1.307.342-2.012.337l-.522.003q-.858.003-1.714 0h-1.19q-1.245.002-2.492-.003a517 517 0 0 0-3.2.002q-1.228.003-2.455 0l-1.18.002q-.824.003-1.647-.004l-.494.003c-1.113-.011-1.113-.011-1.517-.34-.502-.626-.36-1.497-.361-2.265l-.001-.628c.046-2.304.392-4.567.745-6.84.043-.288.044-.289.089-.582q.128-.826.263-1.651l.08-.505c.249-1.457.249-1.458.832-2.014.522-.1.977-.035 1.513 0V4.89h5.673v2.27h2.647v-.379h-1.512V3h6.05zM3.393 20.585c.628.628.815.633 1.663.642.223-.003.224-.002.452-.004l.477.002q.784 0 1.567-.004H8.64q1.14 0 2.279-.005 1.463-.006 2.924-.003 1.122 0 2.245-.003h1.079q.753 0 1.506-.006l.452.002c.718-.007 1.05-.023 1.663-.432v-2.647H3.393zm8.697-1.726c.567.024.568.024.757.213.023.568.023.568 0 1.135-.19.19-.19.19-.757.213-.567-.024-.567-.024-.756-.213a9 9 0 0 1 0-1.135c.189-.189.189-.189.756-.213m4.564-10.978q-.74.004-1.48.012l-1.003.004q-1.23.007-2.46.019v4.538H6.04V7.916c-.602-.052-.602-.052-1.134.378-.161.55-.161.55-.249 1.207l-.058.37q-.092.587-.178 1.177l-.12.76c-.284 1.852-.5 3.7-.719 5.562H20.6c-.234-1.988-.468-3.965-.78-5.94l-.118-.78q-.085-.575-.177-1.149l-.103-.677c-.1-.588-.1-.589-.713-.908a21 21 0 0 0-1.586-.037zm-2.295 8.355h-1.512v-1.512h1.512zm2.269 0h-1.513v-1.512h1.513zm2.27 0h-1.513v-1.512h1.512zm-4.539-2.27h-1.512v-1.512h1.512zm2.269 0h-1.513v-1.512h1.513zm2.27 0h-1.513v-1.512h1.512zm-4.644-5.312.747.002.788.005.79.002 1.94.01c.35.649.425 1.089.414 1.83l-.004.56c-.032.446-.032.446-.221.635a28 28 0 0 1-1.253.025h-3.881c-.538-.025-.538-.025-.727-.214-.02-.441-.025-.882-.024-1.324l-.002-.733c.033-.772.034-.772.74-.8zm-7.458 3.044h4.16v-6.05h-4.16zm11.156-2.08c-.307-.307-.647-.213-1.07-.214h-.538l-.567.001-.566-.002-.54.001h-.496c-.382-.018-.383-.017-.573.214a7 7 0 0 0 0 1.135c.193.234.193.234.593.21l.526-.003.566-.002.597-.005.598-.002 1.47-.01a37 37 0 0 0 0-1.323m-7.753.945H7.552v-.756h2.647zm0-1.512H7.552v-.757h2.647zm0-1.513H7.552v-.756h2.647zm4.916-.378h1.513v-.379h-1.513zm-1.513-1.135h4.539v-2.27h-4.538z"/></svg>