<svg xmlns="http://www.w3.org/2000/svg" fill="none" viewBox="0 0 24 24"><path fill="#000" d="m13.15 6.186.143.017c1.536.182 3.273.581 4.514 1.551v.098l.095.04c.1.059.1.059.15.206l.147.049c.363.467.338.993.337 1.556q0 .13.003.26l.003.634c.073.02.073.02.147.038.912.239 1.875.557 2.598 1.188v.098l.147.049c.082.082.082.082.168.19l.086.103c.271.45.314.879.31 1.396l.001.201v.42q-.002.267 0 .533v.416l.001.29c-.004.428-.08.773-.272 1.156h-.098l-.05.196h-.097l-.05.147h-.097l-.05.147c-.857.806-2.212 1.14-3.332 1.372l-.098.02c-2.289.482-4.692.517-7.009.225l-.142-.016c-1.536-.183-3.273-.582-4.514-1.552v-.098l-.095-.04c-.101-.058-.101-.058-.15-.205l-.147-.05c-.364-.467-.338-.993-.337-1.555l-.003-.261a49 49 0 0 1-.003-.634l-.148-.038c-.954-.25-2.18-.599-2.793-1.432l-.098-.092c-.405-.43-.408-.921-.409-1.48l-.001-.626q0-.27-.003-.538l-.002-.418L2 9.454a2.45 2.45 0 0 1 .27-1.16h.098l.049-.196h.098l.049-.147h.098l.049-.148c.857-.806 2.212-1.139 3.333-1.372l.097-.02c2.29-.482 4.692-.517 7.01-.225m-5.636 1.03-.145.018a11 11 0 0 0-1.47.297q-.161.045-.325.086c-.882.233-1.963.565-2.486 1.363-.047.136-.03.206.015.343.436.803 1.505 1.117 2.324 1.376 3.322.944 8.113 1.114 11.222-.61.312-.19.61-.41.815-.717.03-.2.044-.32-.063-.495a3 3 0 0 0-.28-.29l-.081-.076c-.574-.48-1.369-.707-2.076-.904l-.122-.033a12.5 12.5 0 0 0-1.79-.359l-.16-.02a22 22 0 0 0-5.378.02m-4.46 3.528q-.009.273-.012.546l-.005.155c-.005.411.066.56.342.861.102.116.102.116.214.105v.098c3.422 1.88 8.164 1.74 11.843.72.563-.165 1.291-.469 1.733-.867v-.098l.148-.05c.134-.177.165-.305.161-.526l-.002-.158-.003-.164-.002-.167-.007-.406-.151.077c-1.366.695-2.794 1.05-4.31 1.247l-.11.014c-3.04.401-7.184.383-9.839-1.387m15.439.931-.002.101c-.028.537-.238.959-.635 1.32-1.026.804-2.273 1.157-3.53 1.422l-.114.024c-.238.05-.477.088-.718.123l-.123.019c-1.128.165-2.269.186-3.406.226v.05c.984.18 1.95.3 2.953.302h.6l.41.001c.759.004 1.508-.003 2.261-.108q.077-.008.156-.02.186-.023.371-.05l.13-.02c.372-.055.74-.12 1.108-.204l.106-.024c.963-.223 2.184-.545 2.786-1.397.08-.138.08-.138.088-.291a1.5 1.5 0 0 0-.432-.591h-.098v-.098c-.41-.229-.818-.449-1.259-.613l-.096-.036a2.7 2.7 0 0 0-.556-.136m-11.96 3.137q-.014.282-.02.564l-.01.16c-.005.281.005.46.193.678q.089.086.181.167l.088.08c.558.484 1.372.706 2.068.9l.122.034a12.5 12.5 0 0 0 1.951.378 22 22 0 0 0 5.523-.038c.498-.065.984-.166 1.469-.298l.325-.085c.853-.226 1.997-.555 2.476-1.355a.8.8 0 0 0 .054-.361v-.146l-.003-.15-.002-.154-.005-.374a5 5 0 0 0-.542.255c-1.12.572-2.388.84-3.624 1.02l-.112.016c-.685.103-1.367.138-2.06.139h-.21l-.883.002c-.812.003-1.614 0-2.42-.108l-.155-.02q-.18-.021-.36-.048l-.127-.019c-1.36-.205-2.718-.538-3.916-1.237"/><path fill="#000" d="M2.858 7.706c0 .147 0 .147-.086.247l-.11.105-.11.106-.086.08-.098-.048.049-.098h.098l.049-.147h.098l.049-.147z"/></svg>