<svg xmlns="http://www.w3.org/2000/svg" fill="none" viewBox="0 0 24 24"><path fill="#000" d="M15 1.25a3.75 3.75 0 0 1 3.705 3.166c.764.137 1.416.402 1.947.932.602.602.86 1.36.982 2.26.116.867.116 1.97.116 3.337v5.11c0 1.367 0 2.47-.116 3.337-.122.9-.38 1.658-.982 2.26s-1.36.86-2.26.982c-.867.116-1.97.116-3.337.116h-3.11c-1.367 0-2.47 0-3.337-.116-.9-.122-1.658-.38-2.26-.982-.53-.53-.795-1.183-.932-1.947A3.75 3.75 0 0 1 2.25 16V9.944c0-1.838 0-3.293.153-4.433.158-1.172.49-2.121 1.238-2.87.749-.748 1.698-1.08 2.87-1.238 1.139-.153 2.595-.153 4.433-.153zm-3.001 4.501c-1.435 0-2.437.002-3.191.103-.735.099-1.123.28-1.4.556-.276.277-.457.665-.556 1.399-.101.755-.103 1.757-.103 3.192v5c0 1.435.002 2.436.103 3.191.099.735.28 1.123.556 1.4.277.276.665.457 1.399.556.755.101 1.757.103 3.192.103h3c1.435 0 2.436-.002 3.191-.103.735-.099 1.123-.28 1.4-.556.276-.277.457-.665.556-1.399.101-.756.103-1.757.103-3.192v-5c0-1.435-.002-2.437-.102-3.191-.1-.735-.28-1.123-.557-1.4s-.665-.457-1.399-.556c-.756-.101-1.757-.103-3.192-.103zM11 2.75c-1.907 0-3.261.002-4.29.14-1.005.135-1.585.39-2.008.812S4.025 4.705 3.89 5.71c-.138 1.029-.14 2.383-.14 4.29v6a2.25 2.25 0 0 0 1.521 2.13c-.02-.61-.021-1.3-.021-2.075v-5.11c0-1.366 0-2.47.117-3.337.12-.9.38-1.658.98-2.26.603-.602 1.361-.86 2.261-.98.867-.118 1.97-.118 3.337-.118h3.11c.775 0 1.465 0 2.075.021A2.25 2.25 0 0 0 15 2.75z"/></svg>