<svg xmlns="http://www.w3.org/2000/svg" fill="none" viewBox="0 0 24 24"><path fill="#000" d="M14.5 1.25c1.393 0 2.513-.002 3.392.116.9.121 1.658.38 2.26.983l.108.114c.525.582.76 1.301.874 2.145.118.879.116 2 .116 3.392v10.645c0 .731.002 1.365-.07 1.848-.072.491-.248 1.035-.78 1.359h-.002c-.766.464-1.616.149-2.12-.1a8 8 0 0 1-.775-.45c-.243-.156-.402-.267-.542-.35h-.001a7 7 0 0 0-.552-.311c-.11-.052-.141-.051-.144-.051h-.003c-.012 0-.042-.003-.145.042-.124.055-.288.15-.576.32l-2.03 1.205-.377.22a5 5 0 0 1-.344.182 1.84 1.84 0 0 1-.789.191c-.3 0-.555-.084-.788-.192a5 5 0 0 1-.345-.18l-.376-.22-2.03-1.206a8 8 0 0 0-.553-.311.4.4 0 0 0-.144-.051H7.76c-.01 0-.04-.004-.143.042a6 6 0 0 0-.578.32c-.14.082-.299.193-.542.35-.223.145-.49.311-.774.45-.503.249-1.354.565-2.12.1h-.001c-.533-.323-.71-.867-.783-1.359-.071-.483-.069-1.117-.069-1.848V8c0-1.393-.002-2.513.116-3.392.121-.9.38-1.658.983-2.26l.114-.108c.582-.525 1.301-.76 2.145-.874.879-.118 2-.116 3.392-.116zm-5 1.5c-1.435 0-2.436.002-3.191.104-.734.098-1.124.28-1.4.556s-.457.665-.555 1.399C4.252 5.564 4.25 6.565 4.25 8v10.645c0 .781.002 1.282.054 1.63a1 1 0 0 0 .072.284l.008.011c.042.023.216.064.676-.163.204-.1.413-.229.623-.364.19-.123.42-.279.591-.38.46-.273.903-.553 1.428-.572h.106c.28.008.521.09.74.192.204.096.433.234.679.38l2.03 1.204.351.206c.095.054.17.093.236.124.115.054.15.053.156.053s.04.001.156-.053c.133-.061.301-.16.588-.33l2.03-1.205.367-.215c.365-.206.737-.37 1.168-.356.28.008.52.09.739.192.204.096.433.233.678.38.171.101.402.257.591.38.21.135.42.264.624.364.458.226.633.186.676.163l.007-.011a1 1 0 0 0 .073-.285c.052-.347.053-.848.053-1.629V8c0-1.435-.001-2.436-.102-3.191-.1-.734-.28-1.123-.557-1.399-.276-.277-.665-.458-1.399-.556-.755-.102-1.757-.104-3.192-.104zM15 13a1 1 0 1 1 0 2h-.009a1 1 0 1 1 0-2zm-.53-5.53a.75.75 0 0 1 1.06 1.06l-6 6a.75.75 0 0 1-1.06-1.06zM9.009 7a1 1 0 1 1 0 2H9a1 1 0 1 1 0-2z"/></svg>