<svg xmlns="http://www.w3.org/2000/svg" fill="none" viewBox="0 0 24 24"><path fill="#000" d="M12 1.25a27 27 0 0 1 4.502.357l.135.023c1.01.168 1.85.31 2.506 1.118.42.519.558 1.079.588 1.705l.492.164c.463.154.869.29 1.192.44.347.162.666.37.91.71.245.337.341.706.385 1.087.04.353.04.78.04 1.269v.145c0 .402 0 .757-.03 1.054a2.2 2.2 0 0 1-.28.938c-.178.301-.418.515-.683.699-.245.17-.555.343-.907.538l-2.64 1.467c-.54 1.06-1.28 2.007-2.3 2.691-.887.595-1.952.968-3.213 1.068a.8.8 0 0 1 .053.277v1.75h1.43a1.75 1.75 0 0 1 1.717 1.407l.218 1.093H18a.75.75 0 0 1 0 1.5H6a.75.75 0 0 1 0-1.5h1.885l.219-1.093A1.75 1.75 0 0 1 9.82 18.75h1.43V17a.8.8 0 0 1 .053-.277c-1.261-.099-2.326-.473-3.213-1.069-1.02-.683-1.76-1.63-2.3-2.69l-2.64-1.467a11 11 0 0 1-.907-.538 2.2 2.2 0 0 1-.683-.701c-.177-.302-.248-.615-.28-.936-.03-.297-.03-.652-.03-1.054v-.145c0-.49 0-.916.04-1.269.044-.38.141-.749.385-1.088s.563-.547.91-.709c.322-.15.73-.286 1.192-.44l.492-.164c.03-.625.168-1.186.588-1.705.657-.808 1.497-.95 2.507-1.118l.134-.023A27 27 0 0 1 12 1.25m-2.18 19a.25.25 0 0 0-.245.201l-.16.799h5.17l-.16-.8a.25.25 0 0 0-.245-.2zM12 2.75a25.6 25.6 0 0 0-4.252.336c-1.207.204-1.46.28-1.726.608-.263.322-.287.628-.233 1.982.09 2.26.387 4.697 1.31 6.55.455.915 1.05 1.663 1.827 2.183.77.517 1.765.84 3.074.84s2.304-.323 3.075-.84c.775-.52 1.371-1.268 1.827-2.182.922-1.854 1.22-4.292 1.31-6.55.054-1.355.029-1.661-.233-1.983-.267-.328-.52-.404-1.727-.608A25.6 25.6 0 0 0 12 2.75M4.288 6.028c-.51.171-.834.279-1.07.389-.217.1-.287.171-.326.226s-.084.144-.112.381c-.029.258-.03.599-.03 1.138v.073q-.008.47.022.938c.02.195.052.274.082.324.029.05.082.117.244.23.176.122.42.258.81.475l1.065.59c-.428-1.57-.6-3.249-.671-4.769zm15.41-.006c-.07 1.52-.243 3.2-.67 4.77l1.065-.591c.389-.217.633-.353.81-.475.161-.113.215-.18.244-.23.03-.05.06-.129.08-.324.021-.214.023-.493.023-.938v-.073c0-.539-.001-.88-.03-1.138-.028-.237-.072-.327-.112-.38-.039-.056-.109-.126-.326-.227-.236-.11-.56-.219-1.07-.39z"/></svg>