<svg xmlns="http://www.w3.org/2000/svg" fill="none" viewBox="0 0 24 24"><path fill="#000" d="M7.494 14.345q-1.197 0-1.77-.473-.572-.473-.572-1.47 0-.976.578-1.449.582-.473 1.785-.473 1.04 0 1.606.41.573.41.646 1.213H8.581q-.038-.357-.294-.51-.259-.156-.772-.157-.625 0-.898.226-.268.22-.268.74 0 .525.263.756.267.231.877.231 1.065 0 1.112-.782h1.192q-.063.861-.645 1.302-.583.435-1.654.435m4.583-1.05.803-2.72h1.197L12.99 14.25h-2.116l-1.092-3.675h1.203l.803 2.72zm4.58 0 .803-2.72h1.197L17.57 14.25h-2.115l-1.092-3.675h1.202l.803 2.72z"/><path fill="#000" d="M20.313 9c0-.725-.588-1.312-1.313-1.312H5c-.725 0-1.312.587-1.312 1.312v7c0 .725.587 1.313 1.312 1.313h14c.725 0 1.313-.588 1.313-1.313zm1.312 7A2.625 2.625 0 0 1 19 18.625H5A2.625 2.625 0 0 1 2.375 16V9A2.625 2.625 0 0 1 5 6.375h14A2.625 2.625 0 0 1 21.625 9z"/></svg>