<svg xmlns="http://www.w3.org/2000/svg" fill="none" viewBox="0 0 24 24"><path fill="#000" d="M15.193 8.468c1.127-.05 2.17.355 3.067 1.018.975.997 1.39 2.075 1.395 3.441-.009.712-.172 1.284-.508 1.911-.116.196-.117.196-.034.365.114.18.232.308.389.453l.173.16q.09.085.184.17l.19.177.564.52.307.285c.424.395.85.786 1.294 1.16.169.159.276.3.313.532.006.338.004.519-.18.813-.26.245-.455.285-.815.278-.562-.101-.997-.67-1.373-1.062a10 10 0 0 0-.509-.469c-.43-.374-.84-.77-1.252-1.166l-.177-.17-.16-.152a1.4 1.4 0 0 0-.483-.294q-.234.11-.46.232c-.933.453-2.011.46-2.993.18a4.5 4.5 0 0 1-2.453-2.053l-.097-.167c-.488-.9-.543-2.03-.303-3.017.39-1.205 1.162-2.14 2.287-2.722a4.9 4.9 0 0 1 1.634-.423m2.245-3.23c.907-.004 1.713.003 2.427.632.628.692.68 1.513.676 2.407v.23l-.002.75v.522l-.004 2.768q0 1.372-.004 2.742c-.317-.12-.535-.21-.738-.492.029-.261.086-.51.146-.766.298-1.28.21-2.561-.478-3.712-.488-.76-1.07-1.266-1.826-1.743l-.139-.095v-.082h1.64l-.03-.549-.017-.309c-.032-.273-.06-.464-.198-.7-.336-.18-.655-.189-1.027-.186h-.802l-.442-.001h-4.56q-1.22.002-2.438 0H3.913c-.318.002-.579.02-.854.186-.23.515-.23.515-.247 1.559h10.583c-.244.244-.392.376-.672.543-.531.343-.948.82-1.297 1.344-.155.03-.155.03-.347.029h-.22l-.243-.002h-.254q-.418 0-.837-.004l-.578-.001-1.525-.006-1.556-.005-3.053-.011q.004 1.112.014 2.224.006.516.008 1.033.002.5.008.997l.002.38q0 .267.005.534l.002.306c.05.32.142.452.37.678.247.15.43.184.716.183h.236l.257-.002.271.002.585-.002h.928q1.317.005 2.636.002.806-.002 1.613.001h.612c1.97-.013 1.97-.012 2.81.554.738.283 1.632.382 2.388.146.94-.288.94-.287 1.33-.091.211.189.387.368.548.601v.164q-2.895.017-5.789.026-1.344.003-2.687.012-1.172.007-2.344.008l-1.24.006q-.585.006-1.17.004l-.427.003c-.849.01-1.54-.033-2.257-.55-.641-.651-.763-1.243-.763-2.133l-.002-.272q-.003-.446-.003-.892l-.002-.62-.003-1.302q0-.75-.006-1.5a225 225 0 0 1-.004-1.447q0-.307-.004-.614-.002-.43 0-.86l-.004-.253c.007-.655.177-1.196.624-1.687.523-.503 1.098-.682 1.814-.676h.191q.315-.002.631 0l.455-.003h1.23l1.03-.002h2.43q1.25.001 2.502-.001 1.076-.003 2.15-.002.643 0 1.285-.002.604-.002 1.207 0zm-.926 4.966a2.85 2.85 0 0 0-3.247.811 2.97 2.97 0 0 0-.604 1.987c.126.824.478 1.495 1.146 2.003.75.492 1.567.58 2.446.4.654-.226 1.248-.722 1.612-1.31.321-.736.411-1.448.155-2.22-.313-.772-.782-1.262-1.508-1.671m-3.117 2.055c.333-.229.592-.207.984-.169l.082.41-.574.164v.41l.574.247v.328c-.291.145-.614.116-.923.03-.22-.174-.295-.341-.39-.604 0-.351.049-.526.247-.816m-8.26-.27h.184q.302 0 .604.003h.418l1.101.004L8.565 12q1.103.003 2.205.01v1.722l-3.659.006-1.547.003h-.776c-.407 0-.408 0-.499-.091a16 16 0 0 1-.02-.734l-.005-.208-.002-.199-.002-.183.03-.153c.294-.197.505-.186.846-.182m10.146.675.246-.574h.493c-.038.577-.175 1.033-.41 1.559h-.657l-.205-.549-.06-.155c-.108-.295-.169-.54-.145-.855h.492zm1.395-.574.246.574.246-.574h.41c.118.379.036.603-.112.964l-.115.285c-.101.227-.101.228-.183.31q-.287.004-.574 0l-.2-.462-.113-.26a3 3 0 0 1-.18-.755c.083-.082.083-.083.334-.088z"/></svg>