<svg xmlns="http://www.w3.org/2000/svg" fill="none" viewBox="0 0 24 24"><path fill="#000" d="M10.24 1.45c2.87-1.1 5.63 1.81 4.48 4.62h.02c2.38.74 4.28 2.46 5.31 4.72.05.12.15.52.21.56.09.07.46-.13.6-.17.36-.08.87-.11 1.15.17.14.14.18.4.27.49.17.18.67.18.71.55.04.46-.56.44-.82.19-.34 1.11-1.91.43-1.37-.6-.54.12-.23.7-.22 1.12.13 2.98-1.36 5.43-3.8 7.03-.13.79.32 2.49-.87 2.62-.39.04-1.54.05-1.91 0s-.66-.37-.77-.71c-.05-.15-.04-.51-.12-.54-.18-.05-.36.04-.54.05-.91.02-1.95.08-2.82-.17.02.29-.05.57-.19.82-.38.66-.82.48-1.48.49-.12 0-.24.06-.38.06-.161 0-.83-.06-.94-.1-.29-.11-.54-.48-.59-.77-.07-.39.05-1.77-.08-1.95-.1-.14-.78-.57-.99-.76-.15-.13-.77-.85-.82-.87-.22-.09-1.03-.01-1.34-.03-.77-.04-1.58-.14-1.83-1.02-.08-.29-.11-.98-.11-1.31-.03-1.09.1-2.22.08-3.31.2-.48.57-.89 1.11-.97.16-.02.57.03.64-.07.24-.8.58-1.63 1.12-2.27L2.81 7.8c.67-.62 1.45-.87 2.36-.68.14.03.62.24.67.24.072 0 .98-.62 1.17-.72.39-.2.84-.4 1.26-.52-.75-1.84.11-3.96 1.97-4.67m4.05 5.62c-.21-.04-.33.05-.44.22-.03.05-.09.05 0 .11.16.11.7.23.93.33.45.2 1.02.45.78 1.05-.05.13-.24.27-.37.29-.31.04-1.45-.52-1.88-.63-1.16-.3-2.51-.27-3.66.06-.5.14-1.44.74-1.83.3-.67-.74.95-1.26 1.45-1.37.02-.02-.25-.32-.36-.33-.192-.02-1.17.45-1.39.57-.26.14-1.47.99-1.57 1-.28.02-.99-.57-1.39-.48-.07.06.74.9.71 1.17-.012.112-.59.86-.7 1.05-.13.23-.31.56-.4.8-.15.38-.26 1.15-.4 1.4-.171.3-1.42-.11-1.55.31v3.91c.1.44 1.01.21 1.33.2.25 0 1.059-.04 1.23.03.11.05.45.55.57.68.58.63 1.24 1.14 1.97 1.58.08.13-.03.2-.03.25l.01.03c-.03.64.02 1.3 0 1.94h1.31v-1.53c.71.09 1.39.34 2.1.38.5.03 1.25.03 1.75 0 .41-.03 1.45-.35 1.73-.3.04 0 .1.02.11.06l.05 1.49 1.26-.05c0-.73-.04-1.46.06-2.18 2.63-1.39 4.26-4.16 3.63-7.17-.39-1.84-1.83-3.53-3.44-4.44-.31-.17-1.27-.68-1.57-.73m-8.45 4.36c.87-.44 1.67.68 1 1.35-.91.91-2.12-.78-1-1.35m6.72-4.61c2.34-1.17 1.3-4.8-1.55-4.39-.6.09-1.32.67-1.58 1.21-1 2.04 1.11 4.19 3.13 3.18"/></svg>