<svg xmlns="http://www.w3.org/2000/svg" fill="none" viewBox="0 0 24 24"><path fill="#000" d="M11.47 10.28a.75.75 0 0 0 1.06 0l3.75-3.75a.75.75 0 0 0 0-1.06l-3.75-3.75a.75.75 0 0 0-1.06 0L7.72 5.47a.75.75 0 0 0 0 1.06zM12 3.31 14.69 6 12 8.69 9.31 6zm.53 10.407a.75.75 0 0 0-1.06 0l-3.75 3.75a.75.75 0 0 0 0 1.06l3.75 3.75a.75.75 0 0 0 1.06 0l3.75-3.75a.75.75 0 0 0 0-1.06zM12 20.69 9.31 18 12 15.31 14.69 18zm10.28-9.22-3.75-3.75a.75.75 0 0 0-1.06 0l-3.75 3.75a.75.75 0 0 0 0 1.06l3.75 3.75a.75.75 0 0 0 1.06 0l3.75-3.75a.75.75 0 0 0 0-1.06M18 14.69 15.31 12 18 9.31 20.69 12zm-7.72-3.22L6.53 7.72a.75.75 0 0 0-1.06 0l-3.75 3.75a.75.75 0 0 0 0 1.06l3.75 3.75a.75.75 0 0 0 1.06 0l3.75-3.75a.75.75 0 0 0 0-1.06M6 14.69 3.31 12 6 9.31 8.69 12z"/></svg>