<svg xmlns="http://www.w3.org/2000/svg" fill="none" viewBox="0 0 24 24"><path fill="#000" d="M12 1.25a.75.75 0 0 1 0 1.5c-2.378 0-4.086.002-5.386.176-1.279.172-2.049.5-2.619 1.068-.569.57-.897 1.341-1.07 2.62-.144 1.08-.169 2.44-.174 4.232l.507-.443a3.05 3.05 0 0 1 4.165.138l4.29 4.29a1.25 1.25 0 0 0 1.602.14l.298-.21a3.75 3.75 0 0 1 4.665.28l2.774 2.497.022-.152c.174-1.3.176-3.008.176-5.386a.75.75 0 0 1 1.5 0v.058c0 2.308 0 4.117-.19 5.528-.194 1.445-.599 2.585-1.494 3.48-.895.894-2.035 1.3-3.48 1.495-1.411.19-3.22.189-5.53.189h-.113c-2.309 0-4.118 0-5.529-.19-1.445-.193-2.585-.599-3.48-1.494-.894-.895-1.3-2.035-1.494-3.48-.19-1.41-.19-3.22-.19-5.528v-.115c0-2.309 0-4.118.19-5.529.194-1.445.599-2.584 1.494-3.48.895-.893 2.035-1.3 3.48-1.494 1.411-.19 3.22-.19 5.53-.19zm-6.683 9.9a1.55 1.55 0 0 0-1.072.382L2.75 12.84c.003 1.948.023 3.405.176 4.546.172 1.279.5 2.05 1.07 2.62.57.569 1.34.896 2.618 1.068 1.3.174 3.008.176 5.386.176s4.086-.002 5.386-.176c1.279-.172 2.05-.5 2.62-1.07a3 3 0 0 0 .604-.863 1 1 0 0 1-.112-.083l-3.223-2.9a2.25 2.25 0 0 0-2.8-.17l-.297.21a2.75 2.75 0 0 1-3.526-.305l-4.29-4.29a1.55 1.55 0 0 0-1.045-.454m14.924-9.938a2.52 2.52 0 0 1 2.36 1.567 2.52 2.52 0 0 1-.59 2.772L17.76 9.803l-.03.03c-.23.23-.39.392-.572.532a3.7 3.7 0 0 1-.683.423 6 6 0 0 1-.732.274l-.04.013-1.838.613a1.226 1.226 0 0 1-1.582-.883 1.23 1.23 0 0 1 .03-.67l.612-1.838.014-.04c.103-.31.175-.526.273-.732q.175-.363.423-.684c.14-.18.301-.34.532-.57l4.282-4.283a2.52 2.52 0 0 1 1.792-.776M15.258 7.3c-.272.272-.364.366-.44.464a2.2 2.2 0 0 0-.252.406c-.053.113-.096.236-.218.602l-.225.675.43.43.674-.226c.366-.12.49-.163.603-.216q.216-.105.406-.252c.098-.076.191-.169.464-.44l2.986-2.986a3.75 3.75 0 0 1-1.442-1.442zm4.973-4.55c-.27 0-.53.107-.722.298l-.131.132.016.05c.082.236.238.548.533.843.249.253.556.441.893.55l.131-.132a1.02 1.02 0 0 0-.72-1.741"/></svg>