<svg xmlns="http://www.w3.org/2000/svg" fill="none" viewBox="0 0 24 24"><path fill="#000" d="M13.5 1.25a.75.75 0 0 1 0 1.5H12c-2.378 0-4.086.002-5.386.176-1.279.172-2.05.5-2.62 1.07-.569.57-.896 1.34-1.068 2.618-.174 1.3-.176 3.008-.176 5.386s.002 4.086.176 5.386c.172 1.279.5 2.05 1.07 2.62.57.569 1.34.896 2.618 1.068 1.3.174 3.008.176 5.386.176s4.086-.002 5.386-.176c1.279-.172 2.05-.5 2.62-1.07.569-.57.896-1.34 1.068-2.618.174-1.3.176-3.008.176-5.386v-1.5a.75.75 0 0 1 1.5 0v1.557c0 2.309 0 4.118-.19 5.53-.194 1.444-.6 2.584-1.494 3.48-.895.894-2.035 1.299-3.48 1.493-1.411.19-3.22.19-5.53.19h-.113c-2.309 0-4.118 0-5.53-.19-1.444-.194-2.584-.6-3.48-1.494-.894-.895-1.299-2.035-1.493-3.48-.19-1.411-.19-3.22-.19-5.53v-.113c0-2.309 0-4.118.19-5.53.194-1.444.6-2.584 1.494-3.48.895-.894 2.035-1.299 3.48-1.493 1.411-.19 3.22-.19 5.53-.19zm5.736.034a3.503 3.503 0 0 1 2.488 5.945l-6.648 6.649c-.37.37-.604.604-.863.806a5.3 5.3 0 0 1-.987.61c-.297.14-.61.245-1.107.411l-2.905.968A1.493 1.493 0 0 1 7.29 15.6c-.064-.27-.05-.552.037-.815l.968-2.905c.166-.498.27-.81.411-1.107q.253-.526.61-.987c.202-.26.435-.492.806-.863l6.648-6.648a3.5 3.5 0 0 1 2.466-.992M11.218 9.95c-.417.417-.58.582-.72.76q-.256.332-.437.71c-.098.203-.172.423-.359.982l-.43 1.295 1.03 1.034 1.296-.433c.56-.187.78-.26.983-.358q.378-.18.71-.439c.177-.139.342-.302.759-.718l5.055-5.055a5.4 5.4 0 0 1-1.686-1.146 5.4 5.4 0 0 1-1.146-1.686zm8.03-7.2c-.532 0-1.041.21-1.417.586l-.376.377q.032.145.098.338c.143.413.415.957.927 1.469a3.9 3.9 0 0 0 1.807 1.025l.376-.376a2.003 2.003 0 0 0-1.416-3.419"/></svg>