<svg xmlns="http://www.w3.org/2000/svg" fill="none" viewBox="0 0 24 24"><path fill="#000" d="M18.068 1.249a4.682 4.682 0 0 1 3.31 7.994l-9.485 9.486c-.542.541-.86.86-1.216 1.137q-.628.492-1.35.835c-.406.193-.834.336-1.56.578l-3.332 1.11-.802.268a1.81 1.81 0 0 1-2.335-1.302 1.8 1.8 0 0 1 .045-.988l1.378-4.133c.242-.727.385-1.155.578-1.562q.345-.72.835-1.35c.276-.354.595-.673 1.137-1.215l9.486-9.486a4.68 4.68 0 0 1 3.311-1.372M6.37 13.129c-.59.59-.84.841-1.053 1.115q-.39.5-.663 1.073c-.149.313-.263.65-.526 1.44L3.18 19.6l1.22 1.22 2.84-.948c.792-.264 1.128-.377 1.441-.526a6 6 0 0 0 1.073-.663c.273-.214.525-.463 1.115-1.053l7.57-7.57a7.36 7.36 0 0 1-2.757-1.744A7.4 7.4 0 0 1 13.94 5.56zm11.696-10.37a3.18 3.18 0 0 0-2.248.924l-.663.66c.035.176.092.414.19.691a5.86 5.86 0 0 0 1.399 2.222 5.9 5.9 0 0 0 2.221 1.4c.278.097.516.154.69.189l.663-.662a3.182 3.182 0 0 0-2.252-5.424"/></svg>