<svg xmlns="http://www.w3.org/2000/svg" fill="none" viewBox="0 0 24 24"><path fill="#000" d="M20 22.75H4a.751.751 0 0 1 0-1.5h16zM16.846 1.277a3.897 3.897 0 0 1 2.763 6.624l-7.594 7.594c-.428.428-.69.69-.98.917a6 6 0 0 1-1.108.684c-.334.159-.685.276-1.26.468l-3.313 1.104a1.6 1.6 0 0 1-2.022-2.021l1.105-3.315c.191-.574.308-.925.467-1.259q.283-.591.685-1.107c.227-.291.488-.553.915-.98L14.1 2.391a3.9 3.9 0 0 1 2.746-1.114M7.601 11.01c-.474.475-.666.669-.83.879q-.3.387-.513.83c-.114.24-.202.5-.414 1.136l-.728 2.184.844.846 2.186-.729c.636-.212.896-.3 1.136-.414q.441-.211.83-.514c.21-.162.403-.355.878-.83l5.891-5.89a6.05 6.05 0 0 1-2.04-1.348 6.05 6.05 0 0 1-1.35-2.04zm9.245-8.232a2.4 2.4 0 0 0-1.686.674l-.473.472q.051.231.13.455a4.54 4.54 0 0 0 1.084 1.72 4.5 4.5 0 0 0 2.175 1.213l.472-.472a2.396 2.396 0 0 0-1.702-4.062"/></svg>