<svg xmlns="http://www.w3.org/2000/svg" fill="none" viewBox="0 0 24 24"><path fill="#000" d="M21.002 9.724v-.039a1.13 1.13 0 0 0-.596-.949l-.035-.018-.003-.001-8.19-4.043a.4.4 0 0 0-.356 0l-8.19 4.043H3.63A1.13 1.13 0 0 0 3 9.725v8.651c0 .612.505 1.125 1.15 1.125h15.702c.645 0 1.15-.513 1.15-1.125zm1.5 8.651c0 1.459-1.195 2.625-2.65 2.625H4.15c-1.455 0-2.65-1.166-2.65-2.625V9.673a2.63 2.63 0 0 1 1.468-2.301l8.19-4.043.025-.012a1.9 1.9 0 0 1 1.634 0l.024.012 8.191 4.043a2.63 2.63 0 0 1 1.47 2.346z"/><path fill="#000" d="M20.422 8.402a.75.75 0 0 1 .906 1.196l-5.735 4.343 3.492 2.717.015.012a.75.75 0 0 1-.92 1.184l-.016-.012-6.059-4.713a.375.375 0 0 0-.46 0l-6.06 4.713a.75.75 0 0 1-.92-1.184l3.5-2.722-5.742-4.338-.016-.011a.75.75 0 0 1 .904-1.197l.016.012 6.064 4.58 1.333-1.037a1.876 1.876 0 0 1 2.302 0l1.34 1.043z"/></svg>