<svg xmlns="http://www.w3.org/2000/svg" fill="none" viewBox="0 0 24 24"><path fill="#000" d="M11.128 1.255c.875.015 1.533.074 2.15.31.823.316 1.485.913 2.51 1.835l.107.096 3.957 3.563.125.112c1.184 1.065 1.95 1.754 2.362 2.678.41.924.412 1.954.411 3.546v.66c0 1.839 0 3.295-.153 4.434-.158 1.172-.49 2.121-1.238 2.87-.749.748-1.698 1.08-2.87 1.238-1.14.153-2.595.153-4.433.153H9.944c-1.838 0-3.294 0-4.433-.153-1.172-.158-2.121-.49-2.87-1.238-.748-.749-1.08-1.698-1.238-2.87-.153-1.14-.153-2.595-.153-4.433v-4.11c0-1.839 0-3.295.153-4.434.158-1.172.49-2.121 1.238-2.87.75-.75 1.7-1.08 2.878-1.238 1.143-.153 2.607-.153 4.455-.153h.202zM10.03 2.75c-1.917 0-3.28.002-4.312.14-1.012.135-1.593.39-2.016.812s-.677 1.003-.812 2.009c-.138 1.028-.14 2.382-.14 4.29v4c0 1.906.002 3.26.14 4.288.135 1.006.39 1.586.812 2.01.423.422 1.003.676 2.009.811 1.028.14 2.382.14 4.289.14h4c1.907 0 3.262-.002 4.29-.14 1.005-.135 1.585-.39 2.008-.812s.677-1.003.812-2.009c.138-1.027.14-2.382.14-4.289v-.437c0-1.536-.01-2.264-.174-2.813h-3.13c-1.133 0-2.058 0-2.79-.098-.763-.103-1.425-.325-1.954-.854-.529-.53-.751-1.19-.854-1.955-.098-.73-.098-1.656-.098-2.79V2.834c-.46-.078-1.088-.084-2.22-.084M13.75 5c0 1.2.002 2.024.085 2.643.08.598.224.891.428 1.094s.496.348 1.094.428c.62.083 1.443.085 2.643.085h2.02a46 46 0 0 0-1.17-1.076L14.89 4.61a37 37 0 0 0-1.14-1z"/></svg>