<svg xmlns="http://www.w3.org/2000/svg" fill="none" viewBox="0 0 24 24"><path fill="#000" d="M12.48 2.76c.752-.45 1.728-.473 2.562.13 2.66 1.924 5.708 5.355 5.708 10.221 0 3.807-1.635 6.254-3.718 7.724-1.279.903-2.709 1.426-3.999 1.69-.418.145-.857.22-1.3.225q-.154 0-.327-.013a9 9 0 0 1-.473.013c-1.46 0-3.62-.484-5.43-1.944-1.84-1.486-3.253-3.929-3.253-7.695 0-3.077 1.625-5.146 3.155-6.313a1.81 1.81 0 0 1 2.004-.164c.584.319.993.934 1.067 1.656l.086.837c.033.322.198.59.37.72q.083.069.19.083c.036.003.094-.002.179-.057.653-.425 1.15-1.188 1.482-2.086.33-.89.467-1.82.467-2.454V5.01c0-.973.495-1.807 1.23-2.25m-1.94 12.535c-.922.682-1.79 1.747-1.79 3.15 0 1.161.49 1.825 1.074 2.225.51.35 1.119.514 1.603.564q.455-.031.905-.104l.3-.053c.23-.087.466-.21.68-.378.49-.384.938-1.05.938-2.254 0-.755-.372-1.279-.784-1.615-.137.475-.463.925-.92 1.14-.24.113-.547.173-.87.078a1.26 1.26 0 0 1-.729-.593c-.226-.385-.317-.823-.36-1.18-.043-.358-.043-.703-.043-.931v-.011zm3.624-11.19c-.325-.234-.65-.215-.91-.06-.276.167-.503.508-.503.965v.323c0 .809-.167 1.917-.56 2.977-.39 1.051-1.04 2.15-2.072 2.82-.734.478-1.526.34-2.09-.087-.535-.403-.887-1.064-.958-1.763l-.086-.838c-.026-.251-.162-.42-.294-.49-.112-.062-.234-.069-.375.04-1.267.966-2.565 2.633-2.565 5.12 0 3.344 1.232 5.345 2.696 6.527.397.32.817.585 1.241.8-.272-.55-.437-1.21-.437-1.994 0-2.104 1.32-3.573 2.448-4.393a1.43 1.43 0 0 1 1.6-.075c.454.274.746.782.746 1.356 0 .235 0 .5.032.764q.008.064.018.124c.16-.37.454-.654.803-.806.418-.18.95-.177 1.394.157.7.526 1.459 1.47 1.459 2.873 0 .593-.085 1.119-.232 1.578l.328-.199q.162-.103.322-.214c1.695-1.197 3.082-3.194 3.082-6.499 0-4.187-2.622-7.223-5.087-9.006"/></svg>