<svg xmlns="http://www.w3.org/2000/svg" fill="none" viewBox="0 0 24 24"><path fill="#000" d="M10.534 2.274c.604-.628 1.382-1.238 2.31-.954.944.29 1.217 1.246 1.33 2.097.124.906.124 2.178.124 3.766v.374c0 .614 0 .997.04 1.277.033.237.081.302.108.33.037.033.123.089.394.127.3.04.713.048 1.343.048h.06c1.058 0 1.933 0 2.586.091.649.091 1.33.302 1.7.944l.004.01.005.007.004.007.005.008.004.009.004.007.005.008.002.008.002.002c.334.67.125 1.352-.175 1.932-.305.593-.825 1.306-1.454 2.16l-3.101 4.193c-.958 1.297-1.723 2.331-2.368 3.001-.604.63-1.382 1.238-2.31.954-.944-.289-1.216-1.246-1.33-2.096-.123-.906-.123-2.18-.123-3.766v-.375c0-.607-.007-.996-.049-1.277-.037-.245-.09-.318-.12-.35-.033-.029-.112-.081-.376-.114-.298-.04-.703-.04-1.34-.04-1.09 0-1.99-.007-2.665-.109-.655-.1-1.331-.323-1.699-.96l-.005-.01-.005-.007-.008-.016-.005-.008-.004-.008-.004-.007-.004-.008v-.002c-.337-.676-.116-1.354.188-1.924.302-.569.812-1.258 1.422-2.083l3.137-4.245c.958-1.296 1.723-2.33 2.368-3m1.87.48c-.01-.004-.048-.016-.162.04-.142.072-.344.226-.627.52-.569.59-1.276 1.545-2.28 2.903L6.273 10.36c-.658.89-1.098 1.49-1.342 1.948-.12.223-.164.364-.177.45-.008.053-.003.076.003.092.025.035.13.144.622.22.538.082 1.311.092 2.44.092h.045c.577 0 1.08 0 1.484.05.433.057.864.182 1.22.517l.006.006.006.005c.35.344.492.77.557 1.203.062.414.066.923.066 1.5v.31c0 1.667.001 2.837.108 3.63.054.396.125.628.194.757.05.096.08.104.09.106h.002c.01.004.048.017.16-.04.143-.072.346-.226.629-.52.568-.59 1.276-1.545 2.28-2.903l3.061-4.143c.654-.884 1.09-1.492 1.33-1.956.204-.397.181-.531.169-.567-.023-.033-.124-.134-.604-.202-.537-.075-1.306-.076-2.44-.076-.602 0-1.125-.004-1.548-.063-.437-.06-.87-.192-1.222-.524l-.01-.011c-.354-.347-.49-.772-.55-1.202-.055-.394-.054-.883-.054-1.434v-.358c0-1.667-.002-2.836-.11-3.63-.052-.395-.124-.627-.193-.757-.05-.097-.08-.103-.089-.105z"/></svg>