<svg xmlns="http://www.w3.org/2000/svg" fill="none" viewBox="0 0 24 24"><path fill="#000" d="M10.038 1.547a6.752 6.752 0 0 1 8.62 5.347 6.75 6.75 0 0 1-.134 2.844 6.754 6.754 0 0 1 1.502 11.69 6.75 6.75 0 0 1-8.026.01 6.75 6.75 0 1 1-6.524-11.7 6.75 6.75 0 0 1 4.562-8.19m-4.227 9.68A5.253 5.253 0 0 0 8 21.25a5.25 5.25 0 0 0 5.078-6.585 6.75 6.75 0 0 1-7.058-3.53zm12.17-.093a6.78 6.78 0 0 1-3.457 3.127c.149.555.227 1.138.227 1.738a6.72 6.72 0 0 1-1.625 4.393 5.25 5.25 0 0 0 8.102-4.05 5.25 5.25 0 0 0-3.247-5.208M12 2.75a5.25 5.25 0 1 0-.003 10.502A5.25 5.25 0 0 0 12 2.75"/></svg>