<svg xmlns="http://www.w3.org/2000/svg" fill="none" viewBox="0 0 24 24"><path fill="#000" d="M21.72 16.233a1.25 1.25 0 0 0-.982-.321c-.596.068-1.378.23-2.205.4-1.117.23-2.272.468-3.156.524-.764.047-2.155-.152-2.568-.367a1.2 1.2 0 0 1-.52-.483h1.714c.708 0 1.283-.575 1.283-1.282v-1.008c0-.707-.575-1.282-1.283-1.282h-4.7c-.199-.006-2.597-.051-4.257 1.365a7 7 0 0 0-.714.703 1.07 1.07 0 0 0-.84-.405H1.96a.46.46 0 0 0-.46.46v6.503a.46.46 0 0 0 .46.46h1.532c.593 0 1.075-.482 1.075-1.075v-.354c.459.029 1.497.142 3.694.555 2.595.487 4.214.652 5.49.652.914 0 1.652-.085 2.446-.197.981-.138 2.216-.487 3.305-.795.504-.143.98-.277 1.401-.383 1.136-.287 1.305-1.003 1.305-1.404v-1.173c0-.412-.182-.82-.487-1.093M3.648 20.425c0 .085-.07.154-.155.154H2.421v-5.581h1.071c.086 0 .155.069.155.154zm17.64-1.926c0 .098 0 .357-.609.51-.434.11-.916.247-1.427.391-1.06.3-2.263.64-3.182.77-1.811.255-3.322.361-7.638-.449-2.22-.417-3.322-.543-3.864-.572v-3.417l.045-.066c.118-.216.409-.656 1.031-1.187 1.42-1.21 3.613-1.146 3.635-1.145h4.725c.2 0 .363.163.363.363v1.007c0 .2-.163.362-.363.362H9.296a.46.46 0 0 0 0 .92h2.015c.095.378.356.923 1.071 1.298.655.343 2.278.52 3.052.47.95-.059 2.137-.304 3.285-.54.807-.167 1.568-.324 2.124-.387a.34.34 0 0 1 .265.093c.11.1.18.255.18.406zM21.453 2H5.285c-.651 0-1.18.53-1.18 1.18v7.58c0 .65.529 1.18 1.18 1.18h16.167c.65 0 1.18-.53 1.18-1.18V3.18c0-.65-.53-1.18-1.18-1.18m-2.284 9.02H7.57a2.95 2.95 0 0 0-2.544-2.656V5.45a2.95 2.95 0 0 0 2.53-2.53h11.627a2.95 2.95 0 0 0 2.53 2.53v2.913a2.95 2.95 0 0 0-2.544 2.656m2.543-7.84V4.52a2.03 2.03 0 0 1-1.597-1.598h1.338a.26.26 0 0 1 .26.26M5.286 2.92h1.338a2.03 2.03 0 0 1-1.598 1.6V3.18a.26.26 0 0 1 .26-.26m-.26 7.84V9.296c.847.165 1.506.86 1.618 1.724H5.286a.26.26 0 0 1-.26-.26m16.427.26h-1.358a2.03 2.03 0 0 1 1.617-1.724v1.464a.26.26 0 0 1-.26.26"/><path fill="#000" d="M13.394 3.677a3.297 3.297 0 0 0-3.293 3.293 3.297 3.297 0 0 0 3.293 3.293 3.297 3.297 0 0 0 3.293-3.293 3.297 3.297 0 0 0-3.293-3.293m0 5.665a2.375 2.375 0 0 1-2.372-2.372 2.375 2.375 0 0 1 2.372-2.372 2.375 2.375 0 0 1 2.372 2.372 2.375 2.375 0 0 1-2.372 2.372M8.095 5.554c-.781 0-1.416.635-1.416 1.416s.635 1.416 1.416 1.416a1.417 1.417 0 0 0-.001-2.832m0 1.911a.496.496 0 1 1 0-.991.496.496 0 0 1 0 .991m10.599-1.911c-.78 0-1.416.635-1.416 1.416s.635 1.416 1.416 1.416 1.416-.635 1.416-1.416-.635-1.416-1.416-1.416m0 1.911a.496.496 0 1 1 .001-.991.496.496 0 0 1-.001.991"/></svg>