<svg xmlns="http://www.w3.org/2000/svg" fill="none" viewBox="0 0 24 24"><path fill="#000" d="m13.168 3.614.19.005h1.476c2.105 0 4.051 1.116 5.055 2.923a5.4 5.4 0 0 1 .504 4.004l-.176.66.863.831a1.837 1.837 0 0 1 0 2.665 2 2 0 0 1-1.727.524c-.07.362-.25.71-.542.989a2 2 0 0 1-1.304.55 1.85 1.85 0 0 1-.572 1.276c-.366.353-.84.536-1.32.55a1.85 1.85 0 0 1-.575 1.275 2.02 2.02 0 0 1-2.782 0l-.525-.504a2.01 2.01 0 0 1-2.642-.11 1.85 1.85 0 0 1-.572-1.282 2 2 0 0 1-1.33-.552 1.85 1.85 0 0 1-.574-1.28 2 2 0 0 1-1.329-.552c-.28-.269-.456-.6-.531-.946a2 2 0 0 1-1.756-.519 1.835 1.835 0 0 1 0-2.663l.935-.9.06-.056A5.63 5.63 0 0 1 5.642 5.33c1.644-1.584 4.005-2.054 6.075-1.413l.107-.08a.6.6 0 0 1 .468-.223zm-2.719 1.234a4.87 4.87 0 0 0-3.944 1.315 4.49 4.49 0 0 0-1.356 3.85 2 2 0 0 1 1.55.545c.267.255.453.584.532.945a2 2 0 0 1 1.755.518c.352.335.559.795.574 1.28.496.012.97.209 1.33.551.352.336.557.797.572 1.283.496.012.971.208 1.33.552a1.84 1.84 0 0 1 0 2.665l-.19.182.52.5a.765.765 0 0 0 1.053 0 .696.696 0 0 0 .063-.945.574.574 0 0 1 .052-.777.63.63 0 0 1 .809-.046.756.756 0 0 0 .971-.058.69.69 0 0 0 .065-.93.57.57 0 0 1 .05-.774.63.63 0 0 1 .802-.055.76.76 0 0 0 .96-.066.69.69 0 0 0 0-1.002l-1.236-1.19a.58.58 0 0 1 0-.834l.017-.014a.625.625 0 0 1 .864 0l1.585 1.526a.76.76 0 0 0 1.038 0 .687.687 0 0 0 0-.999l-2.089-2.014-.004-.002-2.886-2.78-2.065.001-1.89 1.388a2.174 2.174 0 0 1-2.973-.403 2.044 2.044 0 0 1 .395-2.928zm.968 11.465a.76.76 0 0 0-.517.196l-.01.009-.934.9-.012.012a.7.7 0 0 0-.204.497.7.7 0 0 0 .215.492.757.757 0 0 0 1.038 0l.935-.9a.69.69 0 0 0 0-1 .76.76 0 0 0-.511-.206M9.511 14.48a.76.76 0 0 0-.517.197l-.009.008-.933.9-.008.009a.69.69 0 0 0 .008.991.757.757 0 0 0 1.026.013l.012-.012.933-.9.012-.01a.7.7 0 0 0 .204-.498.7.7 0 0 0-.216-.493.76.76 0 0 0-.512-.206M7.6 12.646a.76.76 0 0 0-.519.207l-.934.9a.69.69 0 0 0 0 1 .757.757 0 0 0 1.03.008l.009-.008.935-.9.008-.007a.69.69 0 0 0-.008-.992.76.76 0 0 0-.52-.207m-2.286-1.463a.76.76 0 0 0-.518.207l-.936.9a.69.69 0 0 0 0 1 .757.757 0 0 0 1.04 0l.933-.9a.69.69 0 0 0 .16-.773.7.7 0 0 0-.16-.227.76.76 0 0 0-.519-.207m7.21-6.369-3.11 2.284a.845.845 0 0 0-.165 1.218.97.97 0 0 0 1.32.18l2.05-1.506a.6.6 0 0 1 .354-.116h2.52a.6.6 0 0 1 .423.176l3.312 3.2.003-.012a4.2 4.2 0 0 0-.392-3.112c-.784-1.412-2.321-2.307-4.006-2.307h-1.49a2 2 0 0 0-.176-.005z"/></svg>