<svg xmlns="http://www.w3.org/2000/svg" fill="none" viewBox="0 0 24 24"><path fill="#000" d="M12.584 3.468c1.616-1.213 4.29-1.942 7.27-.114v.001c3.361 2.062 4.268 7.603.152 12.822-.994 1.261-2.281 2.51-3.9 3.708v.001C14.598 21.005 13.629 21.75 12 21.75c-1.425 0-2.344-.57-3.563-1.462l-.543-.402c-4.18-3.093-6.154-6.542-6.563-9.592-.407-3.034.753-5.675 2.814-6.939v-.001c2.98-1.828 5.657-1.1 7.272.114l.583.437zm-2.067 1.2C9.32 3.77 7.312 3.172 4.929 4.633c-1.458.895-2.455 2.894-2.11 5.462.342 2.554 2.03 5.67 5.967 8.585l.55.404c1.184.861 1.74 1.165 2.664 1.166 1.055 0 1.634-.399 3.214-1.57l.556-.425a19 19 0 0 0 2.66-2.526l-5.072-5.756-2.149 1.344a2.714 2.714 0 0 1-3.082-4.465l2.628-2.005zm8.554-.035c-2.383-1.46-4.391-.863-5.587.035l-1.035.775v-.001L9.031 8.047l-.002.003a1.216 1.216 0 0 0 1.38 1.997l.003-.002L12.6 8.68l.112-.063a1.45 1.45 0 0 1 .736-.156l.128.014.126.025c.249.058.477.181.662.357l.09.092.001.002 4.91 5.569c3.119-4.511 1.903-8.538-.294-9.886"/></svg>