<svg xmlns="http://www.w3.org/2000/svg" fill="none" viewBox="0 0 24 24"><path fill="#000" d="M5 3.059c2.099-.96 4.688-.669 7 1.401 2.312-2.069 4.901-2.36 7-1.4 2.215 1.014 3.75 3.366 3.75 6.078 0 2.665-1.11 4.699-2.567 6.339-1.166 1.311-2.594 2.412-3.854 3.381q-.43.33-.826.643c-.513.404-1.062.834-1.62 1.16-.557.325-1.193.59-1.883.59s-1.326-.264-1.883-.59-1.107-.756-1.62-1.16q-.396-.312-.826-.643c-1.261-.97-2.688-2.068-3.854-3.381-1.457-1.64-2.567-3.674-2.567-6.34 0-2.71 1.536-5.062 3.75-6.077m13.376 1.365c-1.612-.737-3.778-.542-5.836 1.597a.75.75 0 0 1-1.08 0C9.402 3.88 7.236 3.687 5.624 4.424 3.965 5.182 2.75 6.986 2.75 9.137c0 2.197.9 3.89 2.188 5.342 1.063 1.197 2.349 2.189 3.603 3.155q.448.346.885.688c.526.415.995.778 1.448 1.043s.816.385 1.126.385.674-.12 1.126-.385c.453-.265.922-.628 1.448-1.043q.437-.345.885-.687c1.254-.968 2.54-1.96 3.602-3.156 1.29-1.451 2.189-3.145 2.189-5.342 0-2.15-1.215-3.955-2.874-4.713"/></svg>