<svg xmlns="http://www.w3.org/2000/svg" fill="none" viewBox="0 0 24 24"><path fill="#000" d="M19.059 2.065a.71.71 0 0 1 .617.01l1.11.555 1.109-.555.02-.01a.714.714 0 0 1 1.014.65v10H21.5V3.87l-.394.197a.71.71 0 0 1-.62.01l-.02-.01-1.11-.555-1.123.557a.71.71 0 0 1-.637-.002l-1.105-.553-1.098.553a.71.71 0 0 1-.625.008l-.019-.009-1.096-.553-1.125.556c-.2.1-.436.098-.636-.002l-1.107-.554-1.108.554a.71.71 0 0 1-.62.01l-.02-.01-.394-.197v11.701H7.214V2.691a.714.714 0 0 1 1.034-.616l1.11.555 1.108-.555.02-.009a.71.71 0 0 1 .62.01l1.108.555 1.126-.557.02-.01a.71.71 0 0 1 .619.013l1.093.552 1.098-.553.018-.009a.71.71 0 0 1 .623.009l1.107.555 1.122-.557z"/><path fill="#000" d="M14.357 16.286H2.93c0 1.451.087 2.52.472 3.23.178.329.42.577.768.752.36.181.873.303 1.617.303h9.663a4.3 4.3 0 0 1-1.092-2.857zm1.429 1.428a2.857 2.857 0 0 0 2.857 2.857h.035a2.857 2.857 0 0 0 2.822-2.857v-5h1.429v5A4.286 4.286 0 0 1 18.696 22H5.786c-.892 0-1.642-.145-2.26-.456a3.15 3.15 0 0 1-1.38-1.346c-.583-1.076-.646-2.507-.646-3.912 0-.187.035-.372.106-.545l.014-.033c.07-.162.171-.31.297-.434l.025-.025c.128-.122.278-.219.442-.286l.033-.013a1.4 1.4 0 0 1 .512-.093H15.07c.395 0 .715.32.715.714zm3.571-7.857a.714.714 0 1 1 0 1.429h-5.714a.714.714 0 1 1 0-1.429zm0-3.571a.714.714 0 1 1 0 1.428h-8.571a.714.714 0 1 1 0-1.428z"/></svg>