<svg xmlns="http://www.w3.org/2000/svg" fill="none" viewBox="0 0 24 24"><path fill="#000" d="M14.056 3.25c1.838 0 3.294 0 4.433.153 1.172.158 2.121.49 2.87 1.238.748.749 1.08 1.698 1.238 2.87.153 1.14.153 2.595.153 4.433v.112c0 1.838 0 3.294-.153 4.433-.158 1.172-.49 2.121-1.238 2.87-.749.748-1.698 1.08-2.87 1.238-1.14.153-2.595.153-4.433.153h-4.11c-1.839 0-3.295 0-4.434-.153-1.172-.158-2.121-.49-2.87-1.238-.748-.749-1.08-1.698-1.238-2.87-.153-1.14-.153-2.595-.153-4.433v-.112c0-1.838 0-3.294.153-4.433.158-1.172.49-2.121 1.238-2.87.749-.748 1.698-1.08 2.87-1.238 1.14-.153 2.594-.153 4.432-.153zm-4.057 1.5c-1.907 0-3.26.002-4.289.14-1.006.135-1.586.39-2.01.812-.422.423-.676 1.003-.811 2.009-.138 1.028-.14 2.382-.14 4.289s.002 3.262.14 4.29c.135 1.005.39 1.585.812 2.008s1.003.677 2.009.812c1.028.138 2.382.14 4.289.14h4c1.907 0 3.262-.002 4.29-.14 1.005-.135 1.585-.39 2.008-.812s.677-1.003.812-2.009c.138-1.028.14-2.382.14-4.289s-.002-3.261-.14-4.29c-.135-1.005-.39-1.585-.812-2.008s-1.003-.677-2.009-.812c-1.027-.138-2.382-.14-4.289-.14zM9 12.25c1.196 0 2.315.241 3.164.665.803.402 1.586 1.095 1.586 2.085v.062c.002.51.004 1.37-.81 1.96-.377.273-.877.448-1.495.56-.623.111-1.422.168-2.445.168s-1.822-.057-2.445-.169c-.618-.11-1.117-.286-1.495-.558-.814-.59-.812-1.45-.81-1.96V15c0-.989.783-1.683 1.586-2.085.849-.425 1.968-.665 3.164-.665m0 1.5c-1.013 0-1.893.207-2.493.507-.644.322-.757.628-.757.743 0 .604.038.697.19.807.122.088.373.207.88.298.502.09 1.203.145 2.18.145s1.678-.055 2.18-.145c.507-.091.758-.21.88-.298.15-.11.19-.203.19-.807 0-.115-.113-.421-.757-.743-.599-.3-1.48-.507-2.493-.507m10 .5a.75.75 0 0 1 0 1.5h-3a.75.75 0 0 1 0-1.5zm0-3a.75.75 0 0 1 0 1.5h-4a.75.75 0 0 1 0-1.5zm-10-5a2.75 2.75 0 1 1 0 5.5 2.75 2.75 0 0 1 0-5.5m0 1.5a1.25 1.25 0 1 0 0 2.5 1.25 1.25 0 0 0 0-2.5m10 .5a.75.75 0 0 1 0 1.5h-5a.75.75 0 0 1 0-1.5z"/></svg>