<svg xmlns="http://www.w3.org/2000/svg" fill="none" viewBox="0 0 24 24"><path fill="#000" d="M12.057 1.25c2.309 0 4.118 0 5.53.19 1.444.194 2.584.6 3.48 1.494.894.895 1.299 2.035 1.493 3.48.19 1.411.19 3.22.19 5.53v.113c0 2.309 0 4.118-.19 5.53-.194 1.444-.6 2.584-1.494 3.48-.895.894-2.035 1.299-3.48 1.493-1.411.19-3.22.19-5.53.19h-.113c-2.309 0-4.118 0-5.53-.19-1.444-.194-2.584-.6-3.48-1.494-.894-.895-1.299-2.035-1.493-3.48-.19-1.411-.19-3.22-.19-5.53v-.113c0-2.309 0-4.118.19-5.53.194-1.444.6-2.584 1.494-3.48.895-.894 2.035-1.299 3.48-1.493 1.411-.19 3.22-.19 5.53-.19zm-6.74 9.9a1.55 1.55 0 0 0-1.072.382L2.75 12.84c.003 1.949.023 3.405.176 4.546.172 1.279.5 2.049 1.07 2.619.57.569 1.34.897 2.618 1.07 1.3.173 3.008.175 5.386.175s4.086-.002 5.386-.176c1.279-.172 2.049-.5 2.619-1.07a3 3 0 0 0 .604-.863 1 1 0 0 1-.111-.083l-3.223-2.902a2.25 2.25 0 0 0-2.8-.168l-.297.21a2.75 2.75 0 0 1-3.526-.306l-4.29-4.29a1.55 1.55 0 0 0-1.045-.453M12 2.75c-2.378 0-4.086.002-5.386.176-1.279.172-2.05.5-2.62 1.07-.569.57-.896 1.34-1.068 2.618-.145 1.08-.17 2.44-.175 4.233l.507-.444a3.05 3.05 0 0 1 4.165.139l4.29 4.29a1.25 1.25 0 0 0 1.602.138l.298-.21a3.75 3.75 0 0 1 4.665.281l2.774 2.497.022-.152c.174-1.3.176-3.008.176-5.386s-.002-4.086-.176-5.386c-.172-1.279-.5-2.05-1.07-2.62-.57-.569-1.34-.896-2.618-1.068-1.3-.174-3.008-.176-5.386-.176m4 2.5a2.75 2.75 0 1 1 0 5.5 2.75 2.75 0 0 1 0-5.5m0 1.5a1.25 1.25 0 1 0 0 2.5 1.25 1.25 0 0 0 0-2.5"/></svg>