<svg xmlns="http://www.w3.org/2000/svg" fill="none" viewBox="0 0 24 24"><path fill="#000" d="M12.104 2.514a7.66 7.66 0 0 1 7.385 1.961 7.658 7.658 0 0 1-7.307 12.848c-.15-.04-.264.006-.32.061L8.15 21.098a2.23 2.23 0 0 1-1.823.64l-2.089-.233a1.74 1.74 0 0 1-1.036-.498l-.208-.208a1.74 1.74 0 0 1-.498-1.036l-.232-2.089a2.23 2.23 0 0 1 .64-1.823l3.711-3.712c.056-.056.1-.17.063-.32a7.65 7.65 0 0 1 2-7.325l.182-.176a7.66 7.66 0 0 1 3.244-1.804m2.806 1.291a6.158 6.158 0 0 0-6.78 7.64c.15.588.028 1.27-.455 1.754l-3.711 3.71a.73.73 0 0 0-.21.598l.233 2.088c.005.054.03.103.067.14l.209.21a.24.24 0 0 0 .14.067l2.09.232a.73.73 0 0 0 .596-.21l.707-.706-1.212-1.2a.749.749 0 1 1 1.054-1.066l1.219 1.205 1.945-1.944c.482-.483 1.165-.606 1.753-.455a6.158 6.158 0 0 0 5.891-10.316l-.182-.174a6.16 6.16 0 0 0-3.354-1.573M14 7.25a2.75 2.75 0 1 1-1.946.805l.203-.182A2.75 2.75 0 0 1 14 7.249m-.002 1.5a1.252 1.252 0 0 0 0 2.5 1.25 1.25 0 0 0 0-2.5"/></svg>