<svg xmlns="http://www.w3.org/2000/svg" fill="none" viewBox="0 0 23 23"><path fill="#000" d="M2.635 1.917a.719.719 0 0 0-1.437 0v9.638c0 2.212 0 3.946.182 5.3.186 1.383.575 2.476 1.432 3.333s1.95 1.246 3.335 1.432c1.352.182 3.086.182 5.298.182h9.638a.719.719 0 1 0 0-1.437H11.5c-2.279 0-3.916-.002-5.162-.17-1.225-.164-1.964-.478-2.51-1.023-.546-.547-.86-1.285-1.024-2.51-.167-1.246-.169-2.883-.169-5.162z"/><path fill="#000" d="M18.772 7.155a.72.72 0 1 0-1.126-.893l-2.988 3.762c-.235.296-.39.489-.517.629a.9.9 0 0 1-.209.19.72.72 0 0 1-.65.013c-.026-.012-.086-.048-.217-.18a14 14 0 0 1-.542-.606l-.017-.017a13 13 0 0 0-.594-.66 2.2 2.2 0 0 0-.613-.462 2.16 2.16 0 0 0-1.95.042 2.2 2.2 0 0 0-.595.489c-.163.18-.348.412-.564.685l-3.003 3.781a.72.72 0 1 0 1.126.894l2.989-3.763c.234-.296.389-.489.515-.628.125-.137.182-.176.21-.19a.72.72 0 0 1 .649-.014c.028.013.087.048.217.18.134.134.295.32.544.606l.015.017c.228.263.422.487.594.66.178.179.373.347.614.463a2.16 2.16 0 0 0 1.95-.043 2.3 2.3 0 0 0 .594-.488c.163-.18.348-.412.565-.685z"/></svg>