<svg xmlns="http://www.w3.org/2000/svg" fill="none" viewBox="0 0 24 24"><path fill="#000" d="M5.512 9.089a.75.75 0 0 1 .53.219l.095.113a.75.75 0 0 1-.094.946l-.72.722a5.367 5.367 0 1 0 7.59 7.59l.719-.722a.75.75 0 0 1 1.06 1.06l-.72.722a6.868 6.868 0 0 1-9.71-9.71l.72-.721a.75.75 0 0 1 .53-.22m8.65-.001a.75.75 0 0 1 .531 1.28l-4.325 4.325a.75.75 0 0 1-.829.184.75.75 0 0 1-.47-.708.76.76 0 0 1 .24-.536l4.323-4.326a.75.75 0 0 1 .53-.22m.722-6.838c1.707 0 3.349.636 4.608 1.776l.246.236a6.87 6.87 0 0 1 0 9.71l-.72.72a.752.752 0 0 1-1.261-.536.75.75 0 0 1 .201-.524l.72-.72a5.367 5.367 0 1 0-7.59-7.59l-.72.72a.75.75 0 0 1-1.06-1.06l.72-.721a6.87 6.87 0 0 1 4.856-2.011"/></svg>