<svg xmlns="http://www.w3.org/2000/svg" fill="none" viewBox="0 0 24 24"><path fill="#000" d="M12 1.25A6.75 6.75 0 0 1 18.75 8v1.303q.322.021.642.064c.9.121 1.658.379 2.26.98.602.603.86 1.361.982 2.261.116.867.116 1.97.116 3.337v.11c0 1.367 0 2.47-.116 3.337-.122.9-.38 1.658-.982 2.26s-1.36.86-2.26.982c-.867.116-1.97.116-3.337.116h-8.11c-1.367 0-2.47 0-3.337-.116-.9-.122-1.658-.38-2.26-.982s-.86-1.36-.98-2.26c-.118-.867-.118-1.97-.118-3.337v-.11c0-1.367 0-2.47.117-3.337.121-.9.379-1.658.98-2.26.603-.601 1.361-.86 2.261-.98q.302-.042.642-.065V8A6.75 6.75 0 0 1 12 1.25m-4 9.5c-1.435 0-2.437.002-3.192.102-.734.1-1.122.281-1.399.557-.277.277-.457.665-.556 1.4-.101.755-.103 1.756-.103 3.191s.002 2.436.103 3.192c.099.734.28 1.122.556 1.399.277.277.665.457 1.4.556.754.102 1.756.103 3.191.103h8c1.435 0 2.436-.002 3.192-.102.734-.1 1.122-.281 1.399-.557.277-.277.457-.665.556-1.4.102-.755.103-1.756.103-3.191s-.002-2.437-.102-3.192c-.1-.734-.281-1.122-.557-1.399-.277-.277-.665-.458-1.4-.557-.755-.1-1.756-.102-3.191-.102zM8 15a1 1 0 1 1 0 2 1 1 0 0 1 0-2m4 0a1 1 0 1 1 0 2 1 1 0 0 1 0-2m4 0a1 1 0 1 1 0 2 1 1 0 0 1 0-2M12 2.75A5.25 5.25 0 0 0 6.75 8v1.253q.56-.005 1.195-.003h8.11q.635 0 1.195.003V8c0-2.9-2.35-5.25-5.25-5.25"/></svg>