<svg xmlns="http://www.w3.org/2000/svg" fill="none" viewBox="0 0 24 24"><path fill="#000" d="M12.057 1.25c2.309 0 4.118 0 5.529.19 1.445.194 2.585.599 3.48 1.494.894.895 1.3 2.035 1.494 3.48.19 1.411.19 3.22.19 5.53v.113c0 2.309 0 4.118-.19 5.529-.194 1.445-.599 2.585-1.494 3.48-.895.894-2.035 1.3-3.48 1.494-1.411.19-3.22.19-5.53.19h-.113c-2.309 0-4.118 0-5.529-.19-1.445-.194-2.585-.599-3.48-1.494-.894-.895-1.3-2.035-1.494-3.48-.19-1.411-.19-3.22-.19-5.53v-.113c0-2.309 0-4.118.19-5.529.194-1.445.599-2.585 1.494-3.48.895-.894 2.035-1.3 3.48-1.494 1.411-.19 3.22-.19 5.53-.19zM12 2.75c-2.378 0-4.086.002-5.386.176-1.279.172-2.049.5-2.619 1.07-.569.57-.897 1.34-1.07 2.618-.173 1.3-.175 3.008-.175 5.386s.002 4.086.176 5.386c.172 1.279.5 2.049 1.068 2.619.57.569 1.341.897 2.62 1.07 1.3.173 3.008.175 5.386.175s4.086-.002 5.386-.176c1.279-.172 2.049-.5 2.619-1.068.569-.57.897-1.341 1.07-2.62.173-1.3.175-3.008.175-5.386s-.002-4.086-.176-5.386c-.172-1.279-.5-2.049-1.068-2.619-.57-.569-1.341-.897-2.62-1.07-1.3-.173-3.008-.175-5.386-.175m-1.5 10.001a.75.75 0 0 1 .53 1.28L8.81 16.25H10a.75.75 0 0 1 0 1.5H7a.75.75 0 0 1-.75-.75v-3a.75.75 0 0 1 1.5 0v1.19l2.22-2.22a.75.75 0 0 1 .53-.219m3 0a.75.75 0 0 1 .53.219l2.22 2.22V14a.75.75 0 0 1 1.5 0v3a.75.75 0 0 1-.75.75h-3a.75.75 0 0 1 0-1.5h1.19l-2.22-2.22a.75.75 0 0 1 .53-1.279M10 6.25a.75.75 0 0 1 0 1.5H8.81l2.22 2.22a.753.753 0 0 1 .019 1.079.75.75 0 0 1-1.08-.019L7.75 8.81V10a.75.75 0 0 1-1.5 0V7A.75.75 0 0 1 7 6.25zm7 0a.75.75 0 0 1 .75.75v3a.75.75 0 0 1-1.5 0V8.81l-2.22 2.22a.753.753 0 0 1-1.079.019.75.75 0 0 1 .019-1.08l2.22-2.219H14a.75.75 0 0 1 0-1.5z"/></svg>