<svg xmlns="http://www.w3.org/2000/svg" fill="none" viewBox="0 0 24 24"><path fill="#000" d="M10.006 1.517a7.75 7.75 0 0 1 9.27 10.16l2.287 2.368c.257.267.471.489.631.674.158.182.32.39.415.633.334.844.066 1.845-.74 2.337-.229.141-.493.199-.719.237-.232.04-.526.07-.873.107l-.024.002c-.458.049-.546.064-.605.087a.68.68 0 0 0-.397.417c-.026.07-.041.173-.088.644l-.002.022c-.036.361-.066.664-.103.902-.036.23-.09.494-.223.725-.47.822-1.459 1.13-2.317.767-.24-.102-.446-.273-.62-.435-.18-.166-.393-.388-.65-.655l-.02-.02L12 17.09l-3.232 3.406-.015.015c-.257.267-.47.489-.65.655-.175.162-.38.333-.62.435-.86.363-1.848.055-2.318-.767-.132-.23-.187-.494-.223-.726a17 17 0 0 1-.102-.9l-.003-.023c-.046-.47-.062-.573-.087-.644a.68.68 0 0 0-.397-.417c-.06-.023-.147-.038-.606-.087l-.024-.002a16 16 0 0 1-.872-.107c-.226-.037-.49-.096-.721-.238-.804-.491-1.072-1.492-.74-2.337.096-.242.258-.45.415-.632.16-.185.375-.407.633-.674l2.287-2.368a7.75 7.75 0 0 1 5.28-10.161M3.532 15.072c-.276.286-.462.478-.592.63q-.087.09-.154.2c-.09.23 0 .423.12.502.009.003.06.02.192.043.18.03.431.057.807.097l.075.008c.34.035.64.067.91.17.598.23 1.057.71 1.272 1.312.096.27.126.573.16.927l.008.075c.038.389.064.649.094.84.025.157.044.21.047.217.08.135.244.2.425.125a1.2 1.2 0 0 0 .186-.154c.145-.134.33-.325.605-.61l.002-.002 2.72-2.866a7.76 7.76 0 0 1-4.981-3.477zm15.041-1.963a7.76 7.76 0 0 1-4.982 3.478l2.72 2.865.002.002q.295.313.605.61c.137.127.187.154.187.154h-.002c.182.077.347.01.427-.125.001-.006.022-.06.046-.217.03-.191.056-.451.094-.84l.008-.075c.034-.354.064-.658.16-.927a2.2 2.2 0 0 1 1.272-1.312c.27-.103.572-.135.91-.17l.075-.008c.377-.04.626-.067.807-.097.132-.022.183-.04.194-.043.117-.079.208-.273.118-.503-.003-.005-.03-.06-.154-.2-.13-.15-.315-.343-.591-.629zM12 2.75a6.25 6.25 0 1 0 0 12.5 6.25 6.25 0 0 0 0-12.5m-.001 2.5c.502 0 .815.325.987.55.164.214.33.511.5.816l.022.041.1.177.055.1.098.023.191.043.048.01c.328.075.653.148.903.247.277.109.65.32.795.785.142.455-.037.84-.193 1.09-.145.23-.364.486-.59.749l-.03.035-.13.153-.082.097.012.135.02.203.004.046c.035.352.067.692.055.964-.012.286-.08.718-.468 1.011-.4.304-.84.238-1.12.157-.258-.073-.563-.214-.87-.355l-.043-.02-.18-.083-.084-.039-.085.04-.178.082-.044.02c-.307.141-.612.282-.87.355-.28.08-.72.147-1.12-.157-.387-.293-.455-.725-.468-1.01-.012-.273.02-.613.055-.965l.005-.046.02-.203.012-.135-.083-.097-.13-.153-.03-.035c-.225-.263-.445-.52-.59-.75-.156-.248-.334-.634-.193-1.09.145-.463.519-.675.795-.784.25-.1.576-.172.904-.246l.046-.01.191-.044.1-.022.056-.101.098-.177.022-.04c.17-.306.335-.603.5-.817.172-.225.486-.55.987-.55M11.8 7.388l-.098.176-.022.04c-.08.145-.21.383-.426.547-.221.168-.488.226-.643.26l-.043.009-.191.043c-.176.04-.318.072-.44.103.08.097.182.22.316.376l.13.152.03.034c.108.125.283.325.363.585.08.256.052.52.035.686l-.005.047-.02.203q-.023.23-.041.46c.104-.046.222-.1.363-.165l.179-.082.04-.02c.144-.067.394-.184.672-.184.279 0 .528.117.672.185l.04.02.18.081c.14.065.258.12.363.165l-.042-.46-.02-.203-.005-.047c-.017-.167-.045-.43.034-.686.08-.26.256-.46.364-.585l.03-.034.13-.152c.134-.157.237-.279.317-.376-.122-.03-.265-.063-.44-.103l-.191-.043-.043-.01c-.156-.033-.422-.09-.644-.26-.217-.163-.347-.402-.425-.545l-.023-.04-.098-.177a17 17 0 0 0-.2-.354z"/></svg>