<svg xmlns="http://www.w3.org/2000/svg" fill="none" viewBox="0 0 24 24"><path fill="#000" d="M6.552 12.75c.898 0 1.648 0 2.242.08.628.084 1.195.27 1.65.726.456.455.642 1.022.726 1.65.08.594.08 1.343.08 2.242v.104c0 .899 0 1.648-.08 2.242-.084.628-.27 1.195-.726 1.65-.455.456-1.022.642-1.65.726-.594.08-1.343.08-2.242.08h-.104c-.898 0-1.648 0-2.242-.08-.628-.084-1.195-.27-1.65-.726-.456-.455-.642-1.022-.726-1.65-.08-.594-.08-1.343-.08-2.242v-.104c0-.899 0-1.648.08-2.242.084-.628.27-1.195.725-1.65.456-.456 1.023-.642 1.65-.726.595-.08 1.345-.08 2.243-.08zm11 0c.899 0 1.648 0 2.242.08.628.084 1.195.27 1.65.726.456.455.642 1.022.726 1.65.08.594.08 1.344.08 2.242v.104c0 .899 0 1.648-.08 2.242-.084.628-.27 1.195-.726 1.65-.455.456-1.022.642-1.65.726-.594.08-1.344.08-2.242.08h-.104c-.899 0-1.648 0-2.242-.08-.628-.084-1.195-.27-1.65-.726-.456-.455-.642-1.022-.726-1.65-.08-.594-.08-1.343-.08-2.242v-.104c0-.899 0-1.648.08-2.242.084-.628.27-1.195.726-1.65.455-.456 1.022-.642 1.65-.726.594-.08 1.343-.08 2.242-.08zM6.5 14.25c-.964 0-1.612.002-2.095.066-.46.063-.659.17-.789.3s-.237.328-.3.79c-.064.482-.066 1.13-.066 2.094s.002 1.612.067 2.095c.062.46.17.659.3.789.131.13.327.237.788.3.483.064 1.131.066 2.095.066s1.612-.002 2.095-.067c.46-.062.659-.17.789-.3.13-.131.237-.327.3-.788.064-.483.066-1.131.066-2.095s-.002-1.612-.067-2.095c-.062-.46-.17-.659-.3-.789-.131-.13-.327-.237-.788-.3-.483-.064-1.131-.066-2.095-.066m11 0c-.964 0-1.612.002-2.094.066-.462.063-.66.17-.79.3s-.237.328-.3.79c-.064.482-.066 1.13-.066 2.094s.002 1.612.066 2.095c.063.46.17.657.3.788.13.13.328.238.79.3.482.065 1.13.067 2.094.067s1.612-.002 2.095-.066c.46-.063.657-.17.788-.3.13-.13.238-.328.3-.79.065-.482.067-1.13.067-2.094s-.002-1.612-.066-2.094c-.063-.462-.17-.66-.3-.79s-.328-.237-.79-.3c-.482-.064-1.13-.066-2.094-.066M6.552 1.75c.898 0 1.648 0 2.242.08.628.084 1.195.27 1.65.726.456.455.642 1.022.726 1.65.08.594.08 1.344.08 2.242v.104c0 .898 0 1.648-.08 2.242-.084.628-.27 1.195-.726 1.65-.455.456-1.022.642-1.65.726-.594.08-1.344.08-2.242.08h-.104c-.898 0-1.648 0-2.243-.08-.627-.084-1.194-.27-1.65-.726s-.64-1.022-.725-1.65c-.08-.594-.08-1.344-.08-2.242v-.104c0-.898 0-1.648.08-2.243.084-.627.27-1.194.726-1.65s1.022-.64 1.65-.725c.594-.08 1.344-.08 2.242-.08zm11 0c.899 0 1.648 0 2.242.08.628.084 1.195.27 1.65.726.456.455.642 1.022.726 1.65.08.594.08 1.344.08 2.242v.104c0 .898 0 1.648-.08 2.242-.084.628-.27 1.195-.726 1.65-.455.456-1.022.642-1.65.726-.594.08-1.343.08-2.242.08h-.104c-.899 0-1.648 0-2.242-.08-.628-.084-1.195-.27-1.65-.726-.456-.455-.642-1.022-.726-1.65-.08-.594-.08-1.344-.08-2.242v-.104c0-.898 0-1.648.08-2.243.084-.627.27-1.194.726-1.65s1.022-.64 1.65-.725c.594-.08 1.343-.08 2.242-.08zM6.5 3.25c-.964 0-1.612.002-2.094.066-.346.048-.544.12-.677.207l-.112.093c-.13.13-.238.328-.3.79-.065.482-.067 1.13-.067 2.094s.003 1.612.066 2.095c.063.46.17.657.3.788.13.13.328.238.79.3.482.065 1.13.067 2.094.067s1.612-.002 2.095-.066c.46-.063.657-.17.788-.3.13-.13.238-.328.3-.79.065-.482.067-1.13.067-2.094s-.002-1.612-.066-2.095c-.063-.46-.17-.657-.3-.788-.13-.13-.328-.238-.79-.3-.482-.065-1.13-.067-2.094-.067m11 0c-.964 0-1.612.002-2.094.066-.462.063-.66.17-.79.3s-.237.328-.3.79c-.064.482-.066 1.13-.066 2.094s.002 1.612.066 2.095c.063.46.17.657.3.788.13.13.328.238.79.3.482.065 1.13.067 2.094.067s1.612-.002 2.095-.066c.46-.063.657-.17.788-.3.13-.13.238-.328.3-.79.065-.482.067-1.13.067-2.094s-.002-1.612-.066-2.095c-.063-.46-.17-.657-.3-.788-.13-.13-.328-.238-.79-.3-.482-.065-1.13-.067-2.094-.067"/></svg>