<svg xmlns="http://www.w3.org/2000/svg" fill="none" viewBox="0 0 24 24"><path fill="#000" d="M7.025 14.75c.445 0 .816 0 1.12.021.316.021.617.068.907.188a2.75 2.75 0 0 1 1.488 1.49c.113.289.178.596.19.906.02.304.02.675.02 1.12v.05c0 .445 0 .816-.021 1.12a2.8 2.8 0 0 1-.188.907 2.75 2.75 0 0 1-1.49 1.488c-.29.121-.59.169-.906.19-.304.02-.675.02-1.12.02h-2.05c-.445 0-.816 0-1.12-.021a2.8 2.8 0 0 1-.907-.188 2.75 2.75 0 0 1-1.488-1.49 2.8 2.8 0 0 1-.19-.906c-.02-.304-.02-.675-.02-1.12v-.05c0-.445 0-.816.021-1.12.021-.317.068-.617.188-.907a2.75 2.75 0 0 1 1.49-1.488 2.8 2.8 0 0 1 .906-.19c.304-.02.675-.02 1.12-.02zm10.527-4c.899 0 1.648 0 2.242.08.628.084 1.195.27 1.65.726.456.455.642 1.022.726 1.65.08.594.08 1.344.08 2.242v2.104c0 .899 0 1.648-.08 2.242-.084.628-.27 1.195-.726 1.65-.455.456-1.022.642-1.65.726-.594.08-1.344.08-2.242.08h-.104c-.899 0-1.648 0-2.242-.08-.628-.084-1.195-.27-1.65-.726-.456-.455-.642-1.022-.726-1.65-.08-.594-.08-1.343-.08-2.242v-2.104c0-.898 0-1.648.08-2.242.084-.628.27-1.195.726-1.65.455-.456 1.022-.642 1.65-.726.594-.08 1.343-.08 2.242-.08zM5 16.25q-.522-.008-1.043.017c-.24.017-.358.046-.435.078a1.25 1.25 0 0 0-.677.678c-.032.076-.061.194-.078.434-.017.247-.017.567-.017 1.043q-.008.522.017 1.043c.017.24.046.358.078.434a1.25 1.25 0 0 0 .677.678c.077.032.195.061.435.078.247.017.567.017 1.043.017h2q.522.008 1.043-.017c.24-.017.358-.046.435-.078a1.25 1.25 0 0 0 .677-.678c.032-.076.061-.194.078-.434.017-.247.017-.567.017-1.043s0-.796-.017-1.043c-.017-.24-.046-.358-.078-.434a1.25 1.25 0 0 0-.677-.678c-.077-.032-.195-.061-.435-.078-.247-.017-.567-.017-1.043-.017zm12.5-4c-.964 0-1.612.002-2.094.066-.462.063-.66.17-.79.3s-.237.328-.3.79c-.064.482-.066 1.13-.066 2.094v2c0 .964.002 1.612.066 2.095.063.46.17.657.3.788.13.13.328.238.79.3.482.065 1.13.067 2.094.067s1.612-.002 2.095-.066c.46-.063.657-.17.788-.3.13-.13.238-.328.3-.79.065-.482.067-1.13.067-2.094v-2c0-.964-.002-1.612-.066-2.094-.063-.462-.17-.66-.3-.79s-.328-.237-.79-.3c-.482-.064-1.13-.066-2.094-.066M6.052 1.75c.899 0 1.648 0 2.243.08.627.084 1.194.27 1.65.726s.64 1.022.725 1.65c.08.594.08 1.344.08 2.242v2.104c0 .898 0 1.648-.08 2.242-.084.628-.27 1.195-.726 1.65-.455.456-1.022.642-1.65.726-.594.08-1.344.08-2.242.08h-.104c-.898 0-1.648 0-2.243-.08-.627-.084-1.194-.27-1.65-.726s-.64-1.022-.725-1.65c-.08-.594-.08-1.344-.08-2.242V6.448c0-.898 0-1.648.08-2.243.084-.627.27-1.194.726-1.65s1.022-.64 1.65-.725c.594-.08 1.344-.08 2.242-.08zM6 3.25c-.964 0-1.612.002-2.094.066-.346.048-.544.12-.677.207l-.112.093c-.13.13-.238.328-.3.79-.065.482-.067 1.13-.067 2.094v2c0 .964.002 1.612.066 2.094.063.462.17.66.3.79s.328.237.79.3c.482.064 1.13.066 2.094.066s1.612-.002 2.095-.066c.46-.063.657-.17.788-.3.13-.13.238-.328.3-.79.065-.482.067-1.13.067-2.094v-2c0-.964-.002-1.612-.066-2.095-.063-.46-.17-.657-.3-.788-.13-.13-.328-.238-.79-.3C7.613 3.252 6.965 3.25 6 3.25m12.525-1.5c.445 0 .816 0 1.12.02.317.022.617.07.907.19a2.75 2.75 0 0 1 1.489 1.488c.12.29.166.59.188.907.02.304.021.675.021 1.12v.05c0 .445 0 .816-.02 1.12a2.8 2.8 0 0 1-.19.907 2.75 2.75 0 0 1-1.488 1.489c-.29.12-.59.167-.907.188a18 18 0 0 1-1.12.021h-2.05c-.445 0-.816 0-1.12-.02a2.8 2.8 0 0 1-.907-.19 2.75 2.75 0 0 1-1.489-1.488 2.8 2.8 0 0 1-.187-.907 18 18 0 0 1-.022-1.12v-.05c0-.445 0-.816.02-1.12a2.8 2.8 0 0 1 .19-.907 2.75 2.75 0 0 1 1.488-1.489c.29-.12.59-.167.907-.188.304-.02.675-.021 1.12-.021zM16.5 3.25c-.476 0-.796 0-1.043.017-.24.017-.357.046-.434.078a1.25 1.25 0 0 0-.678.677c-.032.077-.061.195-.078.435A17 17 0 0 0 14.25 5.5c0 .476 0 .796.017 1.043.017.24.046.358.078.435.127.307.37.55.678.677.077.032.194.061.434.078.247.017.567.017 1.043.017h2c.476 0 .796 0 1.043-.017.24-.017.358-.046.434-.078.308-.127.551-.37.678-.677.032-.077.061-.195.078-.435.017-.247.017-.567.017-1.043s0-.796-.017-1.043c-.017-.24-.046-.358-.078-.435a1.25 1.25 0 0 0-.678-.677c-.076-.032-.194-.061-.434-.078A17 17 0 0 0 18.5 3.25z"/></svg>