<svg xmlns="http://www.w3.org/2000/svg" fill="none" viewBox="0 0 24 24"><path fill="#000" d="m16.843 5.184.115.019c.277.061.6.229.85.416.147.11.286.24.382.377a.67.67 0 0 1 .139.442l-.014.075a1.5 1.5 0 0 1-.511.77.94.94 0 0 1-.56.192q-.332.003-.686-.238a.25.25 0 0 1 .283-.412c.17.117.303.15.4.15a.44.44 0 0 0 .265-.094 1 1 0 0 0 .325-.496h.001l-.004-.013a.3.3 0 0 0-.047-.089 1.3 1.3 0 0 0-.272-.264 1.9 1.9 0 0 0-.65-.326l-.071-.013c.004 0-.009-.002-.045.012a.7.7 0 0 0-.14.076 3 3 0 0 0-.404.346c-.302.3-.63.695-.912 1.05-.125.159-.323.494-.565.957a38 38 0 0 0-.786 1.612c-.55 1.19-1.104 2.501-1.406 3.353-.143.405-.147.672-.088.848.055.166.18.294.4.393.226.102.534.164.915.198.376.034.804.039 1.264.039a27 27 0 0 0 4.333-.503l.038-.005a.25.25 0 0 1 .225.123c.233.394.575.714.984.921a.25.25 0 1 1-.226.446 2.9 2.9 0 0 1-1.093-.963c-1.4.269-2.82.43-4.245.481h-.01c-.462 0-.912-.005-1.315-.04-.4-.037-.774-.105-1.076-.241-.308-.139-.558-.356-.669-.692-.108-.325-.07-.716.091-1.172.31-.873.87-2.2 1.424-3.396.277-.6.554-1.168.797-1.634.24-.458.458-.835.616-1.035.285-.358.628-.773.952-1.095.16-.16.325-.304.48-.407.142-.095.327-.19.516-.168"/><path fill="#000" d="M7.228 5.18c.164.006.32.09.446.172.154.103.318.247.48.407.323.322.666.737.95 1.095.16.2.377.577.617 1.035.243.466.52 1.035.797 1.634.554 1.196 1.115 2.524 1.423 3.396.162.456.2.847.092 1.172-.111.336-.361.553-.67.692-.301.136-.675.204-1.075.24a15 15 0 0 1-1.316.042h-.009a28 28 0 0 1-4.246-.482c-.276.408-.651.74-1.092.963a.25.25 0 0 1-.226-.446c.41-.207.75-.527.984-.921l.023-.033a.25.25 0 0 1 .24-.085 27 27 0 0 0 4.333.503c.46 0 .887-.005 1.264-.039.38-.034.69-.096.915-.198.22-.099.345-.227.4-.393.059-.176.055-.443-.088-.848-.302-.852-.855-2.163-1.406-3.353a38 38 0 0 0-.786-1.612c-.242-.463-.44-.798-.565-.956-.283-.356-.61-.752-.912-1.051a3 3 0 0 0-.404-.346.7.7 0 0 0-.14-.076l-.045-.012c-.175.02-.472.153-.721.34a1.3 1.3 0 0 0-.272.263c-.06.087-.047.115-.05.102l.042.12c.057.13.154.281.283.376a.44.44 0 0 0 .264.094c.098 0 .23-.033.4-.15a.25.25 0 0 1 .283.412q-.352.241-.685.238a.94.94 0 0 1-.56-.191 1.5 1.5 0 0 1-.485-.685l-.026-.086c-.053-.2.033-.386.125-.517.096-.138.235-.267.381-.376.286-.215.667-.403.966-.436zm10.78 1.265a.7.7 0 0 1 .287.043c.118.041.234.11.328.2a.66.66 0 0 1 .198.373.58.58 0 0 1-.1.41l-.04.054-.02.022c-.422.41-.97.667-1.556.73l-.004.001c-.173.016-.539.013-.844.007l-.41-.01-.018-.001c-.154.329-.225.74-.257 1.205-.018.261-.023.534-.026.811-.004.275-.006.558-.016.83a5 5 0 0 1-.241 1.356c.862-.34 1.9-.632 2.939-.824 1.191-.219 2.406-.311 3.373-.186l.19.027.048.014a.25.25 0 0 1-.08.483l-.05-.003-.174-.026c-.892-.114-2.049-.032-3.216.183-1.243.228-2.473.602-3.375 1.022a.25.25 0 0 1-.331-.333 4.4 4.4 0 0 0 .417-1.731V11.1l.016-.816c.003-.278.008-.562.027-.84.038-.548.13-1.1.39-1.55l.042-.054a.25.25 0 0 1 .183-.07h.047q.046.003.127.004c.106.003.251.008.405.01.312.007.642.008.785-.004l.176-.026a2.14 2.14 0 0 0 1.072-.556c.028-.039.028-.059.027-.067a.17.17 0 0 0-.053-.084.4.4 0 0 0-.211-.103l-.031.001a.25.25 0 0 1-.123-.485zm-1.104-.024a.25.25 0 1 1 .349.357 3.8 3.8 0 0 0-.606.77.25.25 0 0 1-.43-.256c.19-.319.421-.612.687-.871"/><path fill="#000" d="m6.092 6.46.047.018a.25.25 0 0 1-.12.475l-.05-.008h-.032a.4.4 0 0 0-.21.103c-.04.037-.051.067-.054.083 0 .007-.002.028.027.068.34.325.776.53 1.243.58h.001c.14.013.473.012.789.006l.405-.01.127-.004.034-.002h.013l.067.007a.25.25 0 0 1 .157.118c.261.45.353 1.002.39 1.55.02.278.025.562.029.84l.015.816v.001l.013.225a4.4 4.4 0 0 0 .404 1.507.25.25 0 0 1-.331.333c-.902-.42-2.132-.794-3.375-1.023-1.245-.229-2.478-.307-3.39-.156a.25.25 0 0 1-.082-.494c.994-.164 2.292-.075 3.563.159 1.04.191 2.077.483 2.939.824a5 5 0 0 1-.24-1.356l-.012-.414-.005-.416a15 15 0 0 0-.026-.811c-.032-.466-.103-.876-.258-1.206l-.017.001-.41.01c-.305.006-.671.01-.844-.006h-.004a2.64 2.64 0 0 1-1.392-.585l-.164-.147-.02-.021a.6.6 0 0 1-.14-.465.65.65 0 0 1 .198-.37.9.9 0 0 1 .328-.202.7.7 0 0 1 .286-.043zm.65-.035a.25.25 0 0 1 .354-.005q.3.293.537.638l.15.234.021.046a.25.25 0 0 1-.421.25l-.03-.04-.132-.207a4 4 0 0 0-.473-.562.25.25 0 0 1-.005-.354m1.24-.315a.25.25 0 0 1-.148-.478zm-.148-.478c2.543-.79 5.256-.84 7.82-.148l.51.148.047.02a.25.25 0 0 1-.145.468l-.05-.01-.492-.143a13.54 13.54 0 0 0-7.541.143l-.074-.239z"/><path fill="#000" d="M2 12c0-2.098 1.308-3.952 3.325-5.217l.046-.022a.25.25 0 0 1 .22.446l-.351.232c-1.713 1.188-2.74 2.805-2.74 4.56 0 1.76 1.03 3.379 2.748 4.569C6.965 17.757 9.352 18.5 12 18.5s5.035-.743 6.752-1.932c1.719-1.19 2.748-2.81 2.748-4.568 0-1.756-1.027-3.373-2.74-4.561l-.351-.232-.04-.031a.25.25 0 0 1 .26-.415l.046.022.37.244C20.85 8.281 22 10.034 22 12c0 1.969-1.153 3.725-2.964 4.979S14.736 19 12 19c-2.737 0-5.225-.767-7.036-2.021S2 13.969 2 11.999"/></svg>