<svg xmlns="http://www.w3.org/2000/svg" fill="none" viewBox="0 0 24 24"><path fill="#000" d="M12.245 15.82a.795.795 0 0 1-.8-.756c-.002-.036-.006-.132-.089-.132-.034 0-.063.02-.096.05a.56.56 0 0 1-.392.176.7.7 0 0 1-.26-.056c-.457-.183-.463-.493-.445-.619.005-.032.006-.068-.017-.093l-.027-.026h-.03q-.031 0-.079.033a.67.67 0 0 1-.387.137.6.6 0 0 1-.216-.043c-.604-.23-.554-.791-.526-.96q.007-.054-.026-.079l-.042-.034-.04.037a.62.62 0 0 1-.872-.008.62.62 0 0 1-.184-.437.62.62 0 0 1 .625-.616c.31 0 .576.23.615.537l.022.166.094-.14c.008-.016.262-.393.727-.393q.132 0 .27.043c.37.11.432.443.442.58.007.08.064.085.077.085.031 0 .054-.02.07-.038a.64.64 0 0 1 .461-.192q.165 0 .343.077c.589.25.323.987.319.995-.05.123-.052.177-.004.208l.023.011h.017c.025 0 .06-.012.114-.03.08-.027.2-.068.313-.068a.807.807 0 0 1 .802.793.796.796 0 0 1-.802.792m6.229-3.558c-.971-.836-3.214-2.763-3.823-3.215-.346-.258-.584-.395-.791-.455a1.3 1.3 0 0 0-.39-.06q-.233 0-.494.081c-.392.124-.783.431-1.162.729l-.02.015c-.352.276-.716.563-.992.623q-.18.04-.367.041c-.309 0-.586-.088-.69-.22q-.027-.03.033-.106l.007-.007.853-.91c.668-.66 1.3-1.285 2.755-1.318h.073c.906 0 1.808.4 1.91.447.811.4 1.703.612 2.607.618.918 0 1.866-.225 2.861-.679a8 8 0 0 0-.345-.27c-.875.375-1.709.563-2.513.563-.82 0-1.642-.195-2.438-.58-.043-.019-1.04-.484-2.081-.486l-.082.001c-1.223.029-1.911.458-2.373.833-.45.011-.838.118-1.184.213-.308.086-.574.159-.835.158a8 8 0 0 1-.316-.01c-.298-.009-1.804-.373-3-.82q-.183.127-.355.264c1.25.505 2.773.898 3.252.929.134.008.275.023.419.023.317 0 .634-.088.941-.174.182-.05.38-.105.59-.145l-.166.166-.868.927c-.068.068-.217.25-.12.475a.6.6 0 0 0 .23.25c.206.137.577.23.92.23q.196 0 .367-.037c.364-.081.746-.382 1.15-.7.322-.252.78-.573 1.13-.667a1.3 1.3 0 0 1 .396-.038c.23.029.455.107.855.403.713.528 3.865 3.254 3.895 3.28.002.002.203.173.188.458a.49.49 0 0 1-.25.398.77.77 0 0 1-.414.128.7.7 0 0 1-.365-.106c-.012-.009-1.092-.987-1.49-1.316-.062-.051-.124-.098-.187-.098a.1.1 0 0 0-.082.038c-.062.077.009.18.09.25l1.262 1.255a.58.58 0 0 1 .174.337q.015.312-.298.517a.8.8 0 0 1-.449.145.65.65 0 0 1-.358-.108l-.183-.176a18 18 0 0 0-.92-.86c-.062-.05-.127-.096-.19-.096a.1.1 0 0 0-.08.033c-.028.031-.047.087.024.18q.03.04.064.071l.92 1.022c.008.009.19.222.02.436l-.032.04a1 1 0 0 1-.085.083c-.157.128-.367.14-.45.14a1 1 0 0 1-.125-.01q-.137-.024-.181-.076l-.011-.012c-.051-.05-.514-.519-.9-.835-.05-.043-.113-.094-.179-.094a.11.11 0 0 0-.081.036c-.077.081.037.204.085.25l.785.855a.2.2 0 0 1-.028.053c-.029.037-.123.132-.409.167a1 1 0 0 1-.104.006c-.294 0-.607-.14-.77-.225a1.14 1.14 0 0 0 .016-.945 1.165 1.165 0 0 0-1.116-.704c.02-.292-.021-.844-.594-1.087a1.2 1.2 0 0 0-.49-.106q-.188 0-.36.064a.98.98 0 0 0-.571-.481 1.3 1.3 0 0 0-.422-.073q-.36 0-.654.207a.996.996 0 0 0-1.47-.082c-.245-.185-1.215-.793-3.81-1.375q-.297-.075-.59-.162-.044.21-.066.422l.572.134c2.65.581 3.528 1.186 3.675 1.3a.97.97 0 0 0 .284 1.136.99.99 0 0 0 .815.207c.082.398.346.7.75.856a1 1 0 0 0 .353.068q.116 0 .227-.03c.074.188.24.421.616.57q.188.079.39.08a.9.9 0 0 0 .303-.053 1.17 1.17 0 0 0 1.082.717c.316.002.62-.125.84-.35.189.104.587.292.992.292q.077 0 .15-.009c.4-.05.587-.205.673-.326l.04-.066c.095.027.2.05.319.05.217 0 .427-.074.64-.227.208-.148.356-.362.378-.543v-.009q.107.022.214.022c.227 0 .45-.07.66-.206.41-.264.48-.61.472-.836a1.1 1.1 0 0 0 .834-.165.89.89 0 0 0 .429-.69.92.92 0 0 0-.137-.557c.686-.291 2.249-.855 4.09-1.265q-.017-.21-.057-.42a23.7 23.7 0 0 0-4.306 1.383zm4.37-.65c0 3.434-4.407 6.22-9.841 6.22-5.435 0-9.842-2.786-9.842-6.22 0-3.435 4.406-6.221 9.842-6.221 5.435 0 9.84 2.785 9.84 6.22m.392.003C23.236 7.97 18.652 5 13 5S2.766 7.97 2.766 11.616l-.002.387C2.764 15.87 6.77 19 13 19c6.267 0 10.236-3.13 10.236-6.998z"/></svg>