<svg xmlns="http://www.w3.org/2000/svg" fill="none" viewBox="0 0 24 24"><path fill="#000" d="M21 10.25a.75.75 0 0 1 .75.75v2A9.75 9.75 0 0 1 12 22.75 9.75 9.75 0 0 1 2.25 13v-2a.75.75 0 0 1 1.5 0v2a8.25 8.25 0 1 0 16.5 0v-2a.75.75 0 0 1 .75-.75m-9-9A6.75 6.75 0 0 1 18.75 8v5a6.75 6.75 0 1 1-13.5 0V8A6.75 6.75 0 0 1 12 1.25m0 1.5A5.25 5.25 0 0 0 6.75 8v5a5.25 5.25 0 0 0 10.5 0V8c0-2.9-2.35-5.25-5.25-5.25m0 5.5c.846 0 1.444.139 1.854.305.205.082.36.17.473.249q.107.075.203.166l.012.011.001.002c-.002.003-.034.036-.543.517l.545-.515a.75.75 0 0 1-1.06 1.06l-.008-.005a1 1 0 0 0-.186-.095c-.207-.084-.61-.195-1.291-.195s-1.084.111-1.291.195a1 1 0 0 0-.186.095l-.008.006a.75.75 0 0 1-1.06-1.06L10 9.5q-.274-.255-.544-.516l.014-.014.064-.06q.054-.047.139-.106c.113-.078.268-.167.473-.25.41-.165 1.008-.304 1.854-.304m0-3c.846 0 1.444.139 1.854.305.205.083.36.17.473.249q.107.075.203.166l.012.011.001.002c-.002.003-.033.035-.532.506l.534-.504a.752.752 0 0 1-.538 1.278.75.75 0 0 1-.53-.223 1 1 0 0 0-.186-.095c-.207-.084-.61-.195-1.291-.195s-1.084.111-1.291.195q-.103.04-.194.1a.75.75 0 0 1-1.06-1.06l.534.504q-.269-.25-.533-.505l.014-.014.064-.06q.054-.047.139-.106c.113-.078.268-.167.473-.25.41-.165 1.008-.304 1.854-.304"/></svg>