<svg xmlns="http://www.w3.org/2000/svg" fill="none" viewBox="0 0 24 24"><path fill="#000" d="M20 9.25a.75.75 0 0 1 .75.75v1a8.75 8.75 0 0 1-8 8.718V22a.75.75 0 0 1-1.5 0v-2.282a8.75 8.75 0 0 1-8-8.718v-1a.75.75 0 0 1 1.5 0v1a7.25 7.25 0 1 0 14.5 0v-1a.75.75 0 0 1 .75-.75m-8-7A5.75 5.75 0 0 1 17.75 8v3a5.749 5.749 0 0 1-11.5 0V8A5.75 5.75 0 0 1 12 2.25m0 1.5A4.25 4.25 0 0 0 7.75 8v3a4.25 4.25 0 0 0 8.434.75H13a.75.75 0 0 1 0-1.5h3.25v-1.5H13a.75.75 0 0 1 0-1.5h3.184A4.25 4.25 0 0 0 12 3.75"/></svg>