<svg xmlns="http://www.w3.org/2000/svg" fill="none" viewBox="0 0 24 24"><path fill="#000" d="M18.499 4c.995 0 1.805.81 1.805 1.805v12.89c0 .995-.81 1.805-1.805 1.805H5.609c-.996 0-1.805-.81-1.805-1.805V5.805C3.804 4.81 4.614 4 5.608 4zM5.609 5.053a.75.75 0 0 0-.753.752v12.89c0 .415.337.753.752.753H18.5a.754.754 0 0 0 .753-.753V5.805a.754.754 0 0 0-.753-.753H5.609m6.479 1.39c.343-.005.466.204.466.792v.512c.598.06 1.16.199 1.668.5q.282.168.543.367a.58.58 0 0 1 .127.823.593.593 0 0 1-.841.143c-.413-.291-.856-.509-1.355-.605q-.05-.009-.115-.015c-.009.039-.02.067-.02.095v2.457c.302.099.597.19.888.292.453.158.88.366 1.235.697 1.083 1.011.868 2.967-.425 3.777-.246.155-.525.27-.803.358-.279.088-.576.119-.897.181 0 .233.003.48 0 .727-.005.33-.182.523-.47.517-.273-.007-.446-.203-.45-.516v-.687c-.447-.102-.87-.177-1.28-.298-.52-.155-.975-.44-1.388-.791-.28-.238-.322-.59-.105-.866.226-.287.55-.327.858-.085.526.416 1.111.697 1.776.803.036.006.073.005.122.009v-2.907c-.299-.096-.62-.163-.91-.298-.413-.193-.856-.375-1.195-.667-.954-.82-.868-2.389.134-3.27.488-.428 1.07-.642 1.703-.732l.28-.042v-.488c0-.573.12-.78.454-.784m-9.97.02a.62.62 0 0 1 .62.618V17.42a.62.62 0 0 1-1.238 0V7.08c0-.341.277-.618.618-.618m19.871 0c.342 0 .618.278.618.619V17.42a.62.62 0 0 1-1.237 0V7.082a.62.62 0 0 1 .62-.62m-9.418 9.174c.797.006 1.456-.606 1.458-1.346.002-.619-.729-1.25-1.458-1.253zm-.95-6.735c-.527.055-.904.225-1.142.51-.388.462-.35 1.125.123 1.433.304.197.659.315 1.02.481z"/></svg>