<svg xmlns="http://www.w3.org/2000/svg" fill="none" viewBox="0 0 24 24"><path fill="#000" d="M12 1.25A7.75 7.75 0 0 1 19.75 9v.704c0 .697.207 1.378.593 1.958l1.148 1.723c1.334 2 .316 4.718-2.003 5.35q-1.131.308-2.284.523l-.078.195c-.822 1.95-2.823 3.297-5.126 3.297s-4.304-1.347-5.125-3.297l-.078-.195a28 28 0 0 1-2.284-.523c-2.319-.632-3.337-3.35-2.003-5.35l1.147-1.723a3.53 3.53 0 0 0 .593-1.958V9A7.75 7.75 0 0 1 12 1.25m3.376 18.287a28.5 28.5 0 0 1-6.753 0c.71 1.021 1.948 1.713 3.377 1.713s2.665-.692 3.376-1.713M12 2.75A6.25 6.25 0 0 0 5.75 9v.704a5.03 5.03 0 0 1-.844 2.79l-1.15 1.724a2.02 2.02 0 0 0 1.15 3.07 26.96 26.96 0 0 0 14.188 0 2.02 2.02 0 0 0 1.149-3.071l-1.148-1.723a5.03 5.03 0 0 1-.845-2.79V9A6.25 6.25 0 0 0 12 2.75"/></svg>