<svg xmlns="http://www.w3.org/2000/svg" fill="none" viewBox="0 0 24 24"><path fill="#000" d="M14.056 3.25c1.838 0 3.293 0 4.433.153 1.172.158 2.121.49 2.87 1.238.748.749 1.08 1.698 1.238 2.87.153 1.139.153 2.595.153 4.433v.112c0 1.838 0 3.293-.153 4.433-.158 1.172-.49 2.121-1.238 2.87-.749.748-1.698 1.08-2.87 1.238-1.139.153-2.595.153-4.433.153H9.944c-1.838 0-3.293 0-4.433-.153-1.172-.158-2.121-.49-2.87-1.238-.748-.749-1.08-1.698-1.238-2.87-.153-1.139-.153-2.595-.153-4.433v-.112c0-1.838 0-3.293.153-4.433.158-1.172.49-2.121 1.238-2.87.749-.748 1.698-1.08 2.87-1.238C6.65 3.25 8.106 3.25 9.944 3.25zM10 4.75c-1.907 0-3.261.002-4.29.14-1.005.135-1.585.39-2.008.812S3.025 6.705 2.89 7.71c-.138 1.029-.14 2.383-.14 4.29s.002 3.261.14 4.29c.135 1.005.39 1.585.812 2.008s1.003.677 2.008.812c1.029.138 2.383.14 4.29.14h4c1.907 0 3.262-.002 4.29-.14 1.005-.135 1.585-.39 2.008-.812s.677-1.003.812-2.008c.138-1.028.14-2.383.14-4.29s-.002-3.261-.14-4.29c-.135-1.005-.39-1.585-.812-2.008s-1.003-.677-2.008-.812c-1.028-.138-2.383-.14-4.29-.14zm-3.267 4.5a.75.75 0 0 1 .75.75v.7l.606-.35a.75.75 0 0 1 .75 1.3l-.607.35.607.35a.75.75 0 0 1 .369.748.75.75 0 0 1-1.12.552l-.605-.35v.7a.75.75 0 0 1-1.5 0v-.701l-.608.35a.75.75 0 0 1-.75-1.298L5.232 12l-.607-.35a.751.751 0 0 1 .75-1.3l.608.351V10a.75.75 0 0 1 .75-.75m5.267 0a.75.75 0 0 1 .75.75v.7l.607-.35a.752.752 0 0 1 .75 1.3L13.5 12l.607.35a.751.751 0 0 1-.75 1.3l-.607-.35v.7a.75.75 0 0 1-1.5 0v-.701l-.607.351a.752.752 0 0 1-.75-1.3l.607-.351-.607-.35a.75.75 0 0 1 .75-1.298l.607.35V10a.75.75 0 0 1 .75-.75m5.268 0a.75.75 0 0 1 .75.75v.7l.607-.35a.75.75 0 0 1 .75 1.3l-.607.35.607.35a.751.751 0 0 1-.75 1.3l-.607-.35v.7a.75.75 0 0 1-1.5 0v-.701l-.608.351a.75.75 0 0 1-.75-1.3l.608-.351-.607-.35a.75.75 0 0 1 .75-1.298l.607.35V10a.75.75 0 0 1 .75-.75"/></svg>