<svg xmlns="http://www.w3.org/2000/svg" fill="none" viewBox="0 0 24 24"><path fill="#000" d="M12 1.25c5.937 0 10.75 4.813 10.75 10.75S17.937 22.75 12 22.75 1.25 17.937 1.25 12a10.72 10.72 0 0 1 3.225-7.677.75.75 0 0 1 .824-.163.75.75 0 0 1 .226 1.234A9.22 9.22 0 0 0 2.75 12 9.25 9.25 0 1 0 12 2.75a.75.75 0 0 1 0-1.5m0 3A7.75 7.75 0 1 1 4.25 12a.75.75 0 0 1 1.5 0 6.252 6.252 0 0 0 7.47 6.13A6.25 6.25 0 0 0 12 5.75a.75.75 0 0 1 0-1.5m0 3a4.75 4.75 0 0 1 0 9.5.75.75 0 0 1 0-1.5 3.25 3.25 0 0 0 0-6.5.75.75 0 0 1 0-1.5"/></svg>