<svg xmlns="http://www.w3.org/2000/svg" fill="none" viewBox="0 0 24 24"><path fill="#000" d="M12 1.25c.605 0 1.162.15 1.771.402.59.244 1.273.603 2.124 1.05l2.068 1.085c1.045.548 1.881.987 2.526 1.418.67.447 1.185.917 1.56 1.554.373.635.542 1.322.623 2.142.078.795.078 1.773.078 3.001v.196c0 1.228 0 2.206-.078 3-.081.82-.25 1.508-.623 2.143-.375.637-.89 1.107-1.56 1.554-.646.43-1.481.87-2.526 1.419l-2.068 1.084c-.851.447-1.535.806-2.123 1.05-.61.252-1.167.402-1.772.402s-1.162-.15-1.771-.402c-.59-.244-1.273-.603-2.124-1.05l-2.068-1.085c-1.045-.548-1.881-.987-2.526-1.418-.67-.447-1.185-.917-1.56-1.554-.373-.635-.542-1.322-.623-2.142-.078-.795-.078-1.773-.078-3.002v-.194c0-1.23 0-2.207.078-3.002.081-.819.25-1.507.623-2.142.375-.637.89-1.107 1.559-1.554.647-.43 1.482-.87 2.527-1.418l2.068-1.085c.851-.447 1.535-.806 2.124-1.05.609-.252 1.166-.402 1.771-.402M2.94 8.307a6 6 0 0 0-.118.74c-.07.714-.071 1.617-.071 2.894v.117c0 1.278 0 2.181.071 2.894.07.697.2 1.149.423 1.528.222.377.543.696 1.1 1.068.572.382 1.337.785 2.427 1.356l2 1.05c.89.467 1.513.793 2.03 1.007q.245.1.449.165v-8.663zm9.811 4.157v8.661q.204-.063.448-.164c.518-.214 1.142-.54 2.031-1.007l2-1.05c1.09-.572 1.855-.974 2.428-1.356.556-.372.877-.69 1.1-1.067.223-.38.353-.831.422-1.529.07-.713.071-1.616.071-2.893v-.117c0-1.278 0-2.181-.071-2.894a6 6 0 0 0-.116-.74zM12 2.75c-.339 0-.694.08-1.198.29-.518.213-1.143.539-2.032 1.006l-2 1.05c-1.09.57-1.855.974-2.427 1.356a4.7 4.7 0 0 0-.684.54l8.34 4.17 8.34-4.17c-.18-.176-.4-.35-.683-.54-.573-.382-1.338-.785-2.428-1.356l-2-1.05c-.89-.467-1.513-.793-2.03-1.007-.505-.209-.859-.289-1.199-.289"/></svg>