<svg xmlns="http://www.w3.org/2000/svg" fill="none" viewBox="0 0 24 24"><path fill="#000" d="M6.552 12.75c.898 0 1.648 0 2.242.08.628.084 1.195.27 1.65.726.456.455.642 1.022.726 1.65.08.594.08 1.343.08 2.242v1.188c0 .624 0 1.145-.04 1.568-.042.442-.134.855-.365 1.232-.227.37-.539.682-.908.909-.378.232-.79.323-1.233.365-.423.04-.944.04-1.568.04h-.074c-.95 0-1.717 0-2.333-.059-.636-.06-1.19-.188-1.688-.494a3.75 3.75 0 0 1-1.238-1.238c-.306-.498-.434-1.052-.494-1.687-.06-.617-.059-1.384-.059-2.333v-.075c0-.624 0-1.145.04-1.568.042-.442.134-.855.365-1.232a2.75 2.75 0 0 1 .908-.909c.378-.23.79-.323 1.233-.365.423-.04.944-.04 1.568-.04zM14.25 22a.75.75 0 0 1-1.5 0v-3h1.5zm8.5-3v.025c0 .445 0 .816-.021 1.12a2.8 2.8 0 0 1-.188.907 2.75 2.75 0 0 1-1.49 1.488c-.29.121-.59.169-.906.19-.304.02-.675.02-1.12.02H17v-1.5h2c.476 0 .796 0 1.043-.017.24-.017.358-.046.434-.078a1.25 1.25 0 0 0 .678-.678c.032-.076.061-.194.078-.434.017-.247.017-.567.017-1.043zM5.4 14.25c-.67 0-1.118 0-1.462.034-.333.031-.488.087-.591.15-.169.103-.31.244-.413.413-.063.103-.119.258-.15.59-.033.345-.034.794-.034 1.463 0 .997 0 1.691.052 2.229.05.526.143.824.28 1.047.185.302.44.557.742.742.223.137.521.23 1.047.28.538.051 1.232.052 2.229.052.67 0 1.118 0 1.462-.034.333-.031.488-.087.591-.15.169-.103.31-.244.413-.413.063-.103.119-.258.15-.59.033-.344.034-.794.034-1.463v-1.1c0-.964-.002-1.612-.067-2.095-.062-.46-.17-.659-.3-.789-.131-.13-.327-.237-.788-.3l-.396-.038A29 29 0 0 0 6.5 14.25zM17.75 16c.702 0 1.053 0 1.306.169q.164.111.275.275c.169.253.169.604.169 1.306s0 1.053-.169 1.306a1 1 0 0 1-.275.275c-.253.169-.604.169-1.306.169s-1.053 0-1.306-.169a1 1 0 0 1-.275-.275C16 18.803 16 18.452 16 17.75s0-1.053.169-1.306q.111-.164.275-.275C16.697 16 17.048 16 17.75 16m-11.5.5c.515 0 .773 0 .955.13a.7.7 0 0 1 .166.165c.13.182.129.44.129.955s0 .773-.13.955a.7.7 0 0 1-.165.166c-.182.13-.44.129-.955.129s-.773 0-.955-.13a.7.7 0 0 1-.166-.165c-.13-.182-.129-.44-.129-.955s0-.773.13-.955a.7.7 0 0 1 .165-.166c.182-.13.44-.129.955-.129M19 14.25h-2c-.718 0-1.2 0-1.567.038-.355.036-.52.1-.627.173-.136.092-.253.21-.345.345-.073.108-.137.272-.173.627-.037.367-.038.85-.038 1.567h-1.5v-.038c0-.67 0-1.229.046-1.68.048-.475.153-.914.418-1.31.2-.3.458-.558.758-.758.396-.265.835-.37 1.31-.418.451-.046 1.011-.046 1.68-.046H19zm3-1.5a.75.75 0 0 1 .75.75V17h-1.5v-3.5a.75.75 0 0 1 .75-.75M7.135 1.25c.624 0 1.145 0 1.568.04l.327.042c.32.054.623.15.907.323.37.227.68.538.908.908.23.378.323.79.365 1.233.04.423.04.944.04 1.568v1.188c0 .898 0 1.648-.08 2.242-.084.628-.27 1.195-.726 1.65-.455.456-1.022.642-1.65.726-.594.08-1.344.08-2.242.08H5.364c-.624 0-1.145 0-1.568-.04-.443-.042-.855-.134-1.233-.365a2.75 2.75 0 0 1-.908-.908c-.23-.378-.323-.79-.365-1.233-.04-.423-.04-.944-.04-1.568v-.074c0-.95 0-1.717.059-2.333.06-.636.188-1.19.494-1.688A3.75 3.75 0 0 1 3.04 1.803c.498-.306 1.052-.434 1.688-.494.616-.06 1.383-.059 2.333-.059zm9.804 0c.95 0 1.716 0 2.332.059.636.06 1.19.188 1.688.494.505.309.93.733 1.238 1.238.306.498.434 1.052.494 1.688.06.616.059 1.383.059 2.333v.074c0 .624 0 1.145-.04 1.568-.042.443-.134.855-.365 1.233-.227.37-.538.68-.909.908-.377.23-.789.323-1.232.365-.423.04-.944.04-1.568.04h-1.188c-.899 0-1.648 0-2.242-.08-.628-.084-1.195-.27-1.65-.726-.456-.455-.642-1.022-.726-1.65-.08-.594-.08-1.344-.08-2.242V5.364c0-.624 0-1.145.04-1.568.042-.443.134-.855.365-1.233a2.75 2.75 0 0 1 .909-.908c.377-.23.789-.323 1.232-.365.423-.04.944-.04 1.568-.04zm-9.84 1.5c-.996 0-1.69 0-2.228.052-.526.05-.824.143-1.047.28a2.25 2.25 0 0 0-.742.742c-.137.223-.23.521-.28 1.047C2.75 5.41 2.75 6.103 2.75 7.1c0 .67 0 1.118.033 1.462.032.333.088.488.15.591.104.168.246.31.414.413.103.063.258.119.59.15.345.033.794.034 1.463.034h1.1c.964 0 1.612-.002 2.095-.067.46-.062.659-.17.789-.3.13-.131.237-.327.3-.788.064-.483.066-1.131.066-2.095V5.4c0-.67 0-1.118-.033-1.462-.032-.333-.088-.488-.15-.591a1.25 1.25 0 0 0-.414-.413c-.103-.063-.258-.119-.59-.15l-.28-.02A30 30 0 0 0 7.1 2.75m9.801 0c-.67 0-1.118 0-1.461.033-.334.032-.49.088-.592.15-.169.104-.31.245-.413.414-.063.103-.119.258-.15.59-.033.345-.034.794-.034 1.463v1.1c0 .964.002 1.612.066 2.095.063.46.17.659.3.789s.328.237.79.3c.482.064 1.13.066 2.094.066h1.1c.67 0 1.118 0 1.461-.033.334-.032.49-.088.592-.15.169-.104.31-.245.413-.414.063-.103.119-.258.15-.59.033-.345.034-.794.034-1.463 0-.997 0-1.691-.052-2.229-.05-.526-.143-.824-.28-1.047a2.25 2.25 0 0 0-.742-.742c-.223-.137-.521-.23-1.047-.28-.538-.051-1.232-.052-2.229-.052M6.25 5c.515 0 .773 0 .955.129a.7.7 0 0 1 .165.166c.13.182.13.44.13.955s0 .773-.129.955a.7.7 0 0 1-.166.165c-.182.13-.44.13-.955.13s-.773 0-.955-.129a.7.7 0 0 1-.165-.166C5 7.023 5 6.765 5 6.25s0-.773.13-.955q.068-.097.165-.165C5.477 5 5.735 5 6.25 5m11.5 0c.515 0 .773 0 .955.129a.7.7 0 0 1 .165.166c.13.182.13.44.13.955s0 .773-.129.955a.7.7 0 0 1-.166.165c-.182.13-.44.13-.955.13s-.773 0-.955-.129a.7.7 0 0 1-.165-.166c-.13-.182-.13-.44-.13-.955s0-.773.13-.955q.068-.097.165-.165c.182-.13.44-.13.955-.13"/></svg>