<svg xmlns="http://www.w3.org/2000/svg" fill="none" viewBox="0 0 24 24"><path fill="#000" d="M12 1.25c5.937 0 10.75 4.813 10.75 10.75S17.937 22.75 12 22.75 1.25 17.937 1.25 12 6.063 1.25 12 1.25m0 1.5a9.25 9.25 0 1 0 0 18.5 9.25 9.25 0 0 0 0-18.5M12 15a1 1 0 1 1 0 2 1 1 0 0 1 0-2m-.01-8.75a2.625 2.625 0 0 1 1.345 4.885 1.9 1.9 0 0 0-.465.369c-.102.12-.12.2-.12.246V13a.75.75 0 0 1-1.5 0v-1.25c0-.506.222-.916.477-1.217a3.3 3.3 0 0 1 .845-.69A1.124 1.124 0 0 0 12 7.75c-.621 0-1.125.504-1.125 1.125a.75.75 0 0 1-1.5 0A2.625 2.625 0 0 1 11.99 6.25"/></svg>