<svg xmlns="http://www.w3.org/2000/svg" fill="none" viewBox="0 0 24 24"><path fill="#000" d="M12.057 1.25c2.309 0 4.118 0 5.53.19 1.444.194 2.584.6 3.48 1.494.894.895 1.299 2.035 1.493 3.48.19 1.411.19 3.22.19 5.53v.113c0 2.309 0 4.118-.19 5.53-.194 1.444-.6 2.584-1.494 3.48-.895.894-2.035 1.299-3.48 1.493-1.411.19-3.22.19-5.53.19h-.113c-2.309 0-4.118 0-5.53-.19-1.444-.194-2.584-.6-3.48-1.494-.894-.895-1.299-2.035-1.493-3.48-.19-1.411-.19-3.22-.19-5.53v-.113c0-2.309 0-4.118.19-5.53.194-1.444.6-2.584 1.494-3.48.895-.894 2.035-1.299 3.48-1.493 1.411-.19 3.22-.19 5.53-.19zm-9.28 7.5A121 121 0 0 0 2.75 12c0 2.378.002 4.086.176 5.386.172 1.279.5 2.05 1.07 2.62.57.569 1.34.896 2.618 1.068 1.3.174 3.008.176 5.386.176s4.086-.002 5.386-.176c1.279-.172 2.05-.5 2.62-1.07.569-.57.896-1.34 1.068-2.618.174-1.3.176-3.008.176-5.386 0-1.258 0-2.328-.027-3.25zm7.32 2.22c.576-.364 1.18-.213 1.65-.005.451.2.995.552 1.621.956l.102.066c.62.4 1.156.746 1.53 1.078.398.351.75.804.75 1.435 0 .63-.352 1.084-.75 1.435-.374.332-.91.678-1.53 1.078l-.102.066c-.626.404-1.17.755-1.622.956-.47.21-1.073.36-1.648-.006-.544-.346-.71-.937-.779-1.457-.07-.519-.069-1.205-.069-2.017v-.11c0-.812 0-1.498.07-2.017.068-.52.234-1.11.778-1.457m.801 1.283c-.022.043-.062.146-.092.373-.054.408-.056.992-.056 1.874s.002 1.466.056 1.874c.03.227.07.33.092.373a1 1 0 0 0 .239-.083c.332-.147.776-.432 1.47-.879.684-.442 1.122-.726 1.4-.972.256-.227.244-.307.243-.313.001-.007.013-.086-.243-.313-.28-.246-.716-.531-1.399-.971-.695-.448-1.14-.733-1.47-.88a1.2 1.2 0 0 0-.24-.083M9.444 2.762c-1.127.017-2.053.06-2.83.164-1.279.172-2.05.5-2.619 1.07s-.897 1.34-1.07 2.618q-.039.302-.069.636h3.732zm1.69.141L8.366 7.25h4.722l2.83-4.448C14.857 2.75 13.576 2.75 12 2.75h-.792q-.03.08-.074.153m3.732 4.347h6.277q-.029-.334-.07-.636c-.17-1.279-.498-2.05-1.068-2.62-.537-.537-1.254-.858-2.407-1.037z"/></svg>