<svg xmlns="http://www.w3.org/2000/svg" fill="none" viewBox="0 0 24 24"><path fill="#000" d="M11.454 4.681c.746-.52 1.745-.612 2.62-.037L21.49 9.52l.157.112c.76.584 1.103 1.508 1.103 2.368 0 .918-.39 1.908-1.26 2.48h-.001l-7.416 4.877c-.874.575-1.873.482-2.619-.038-.731-.51-1.204-1.406-1.204-2.442v-.167l-4.904 3.587-.01.007-.008.005c-.936.645-2.01.54-2.807-.041-.777-.567-1.271-1.558-1.271-2.694V6.426c0-1.137.495-2.127 1.271-2.693.748-.546 1.738-.673 2.63-.155l.178.112.008.007.009.005L10.25 7.29v-.167c0-1.036.473-1.933 1.204-2.442m.296 12.196c0 .58.26 1.003.561 1.212a.79.79 0 0 0 .938.014l7.417-4.877.066-.047c.32-.246.518-.68.518-1.179 0-.531-.226-.99-.584-1.226l-7.417-4.877a.79.79 0 0 0-.938.014c-.3.21-.561.632-.561 1.212zm-9 .697c0 .71.306 1.227.655 1.482.327.24.703.27 1.068.02l5.777-4.225V9.149L4.473 4.923c-.364-.249-.74-.218-1.067.021-.35.255-.656.772-.656 1.482z"/></svg>