<svg xmlns="http://www.w3.org/2000/svg" fill="none" viewBox="0 0 24 24"><path fill="#000" d="M18.918 1.662c1.007-.18 1.97-.218 2.753-.027.164.04.314.122.435.238l.025.024.023.025c.11.122.188.271.224.433.185.806.147 1.779-.032 2.795-.181 1.026-.517 2.147-.97 3.272-.904 2.242-2.306 4.57-3.995 6.252q-.747.75-1.595 1.386c.036.904-.064 1.838-.423 2.687l-.02.047c-.608 1.39-1.703 2.263-2.758 2.805-1.051.54-2.108.777-2.735.878a1.173 1.173 0 0 1-1.353-1.275v-.006l.331-3.01-.095-.01h-.001l-.008-.002a1.6 1.6 0 0 1-.967-.463L6.285 16.24a1.6 1.6 0 0 1-.463-.968l-.012-.109-3.018.332a1.17 1.17 0 0 1-1.276-1.354v-.002l.01-.06c.108-.63.347-1.653.872-2.671.542-1.054 1.415-2.148 2.804-2.759h.002l.046-.02c.85-.36 1.789-.46 2.698-.42q.635-.844 1.385-1.589c1.687-1.684 4.05-3.086 6.307-3.989 1.133-.453 2.258-.788 3.278-.97m2.056 1.371c-.466-.052-1.072-.023-1.794.105-.9.16-1.925.463-2.983.886-2.089.836-4.23 2.113-5.734 3.589l-.071.07-.002.002a13 13 0 0 0-1.467 1.733.75.75 0 0 1-.68.313c-.913-.082-1.758-.005-2.439.292-.977.43-1.632 1.215-2.073 2.072a7.7 7.7 0 0 0-.653 1.86l3.356-.369.02-.002a.75.75 0 0 1 .812.74q.003.344.036.685l.011.105.002.009a.1.1 0 0 0 .022.046l.006.007.003.003 1.474 1.474a.1.1 0 0 0 .053.029h.009l.008.002.097.01q.34.033.68.037a.75.75 0 0 1 .739.831l-.369 3.354a7.7 7.7 0 0 0 1.863-.65c.857-.442 1.641-1.096 2.068-2.072.288-.662.37-1.471.303-2.348l-.007-.086a.75.75 0 0 1 .316-.677c.62-.437 1.202-.928 1.737-1.467l.003-.003c1.514-1.506 2.817-3.649 3.665-5.751.422-1.048.724-2.068.884-2.973.13-.734.16-1.362.105-1.856m-5.508 2.816a2.752 2.752 0 0 1 1.894 4.697 2.75 2.75 0 0 1-4.644-1.409 2.75 2.75 0 0 1 2.699-3.288zm-.074 1.5a1.251 1.251 0 0 0-.878 2.12l.016.016v.001a1.25 1.25 0 0 0 1.77 0l.016-.017a1.251 1.251 0 0 0-.901-2.12z"/><path fill="#000" d="m3 21 .02.75a.75.75 0 0 1-.77-.77zm2.048-5.244a.75.75 0 1 1 .183 1.488c-.301.037-.58.174-.796.387-.072.073-.188.272-.303.649a8 8 0 0 0-.247 1.186c-.037.26-.064.51-.083.732.222-.02.473-.047.732-.083.416-.059.835-.14 1.187-.247.376-.115.575-.232.646-.303l.001-.002c.215-.213.351-.493.387-.793a.75.75 0 0 1 1.49.178 2.85 2.85 0 0 1-.817 1.677c-.342.342-.837.545-1.269.677-.456.14-.96.234-1.415.298a17 17 0 0 1-1.721.15H3.02L3 21l-.75-.02v-.011l.002-.03a11 11 0 0 1 .025-.482c.02-.313.058-.741.123-1.2.064-.455.158-.96.297-1.416.132-.431.335-.926.676-1.268l.001-.002.043-.042a2.86 2.86 0 0 1 1.631-.773"/></svg>