<svg xmlns="http://www.w3.org/2000/svg" fill="none" viewBox="0 0 24 24"><path fill="#000" d="M22.722 17.798a.751.751 0 0 1-1.09.856L11.328 12.86l-4.815 2.708a3.751 3.751 0 1 1-3.302.136L9.798 12 3.211 8.296a3.75 3.75 0 1 1 3.302.136l4.815 2.708 10.304-5.794a.75.75 0 1 1 .735 1.308L12.857 12l9.51 5.346a.75.75 0 0 1 .355.452M7.235 5.264A2.25 2.25 0 1 0 3.88 6.953l.037.02a2.25 2.25 0 0 0 3.317-1.709m0 13.471a2.25 2.25 0 0 0-3.317-1.708l-.037.02a2.253 2.253 0 0 0-.67 3.318 2.25 2.25 0 0 0 4.024-1.63"/></svg>