<svg xmlns="http://www.w3.org/2000/svg" fill="none" viewBox="0 0 24 24"><path fill="#000" d="M3.37 6.218c-1.14-2.58 1.587-5.163 4.101-3.886l13.78 6.993h.002c2.19 1.11 2.19 4.24 0 5.35h-.001l-13.78 6.994c-2.514 1.275-5.242-1.307-4.101-3.887l2.374-5.377.037-.098a1 1 0 0 0 .048-.306h.002l-.001-.002-.001.002v-.02a1 1 0 0 0-.084-.388zm3.196-2.103C5.728 3.689 4.82 4.55 5.2 5.41l2.377 5.378v.002l.06.146.023.065h7.1l.102.004a1 1 0 0 1 0 1.99L14.76 13H7.658a3 3 0 0 1-.083.21v.001L5.2 18.59c-.38.858.527 1.72 1.367 1.295l13.78-6.994h.001l.128-.077a1 1 0 0 0-.128-1.705z"/></svg>