<svg xmlns="http://www.w3.org/2000/svg" fill="none" viewBox="0 0 24 24"><path fill="#000" d="M18.356 2.046c1.108-.133 2.1.001 2.848.75.856.855.909 2.028.677 3.33-.23 1.295-.792 2.98-1.503 5.112l-1.705 5.115c-.578 1.735-1.027 3.083-1.442 4.058-.4.94-.844 1.736-1.518 2.128a3.41 3.41 0 0 1-3.43 0c-.674-.392-1.118-1.188-1.518-2.128-.415-.975-.864-2.323-1.443-4.058l-.012-.038c-.203-.607-.264-.773-.352-.904a1.4 1.4 0 0 0-.37-.369c-.13-.088-.296-.15-.904-.352l-.037-.012C5.912 14.1 4.564 13.65 3.59 13.235c-.94-.4-1.736-.844-2.128-1.518a3.41 3.41 0 0 1 0-3.43c.392-.674 1.188-1.118 2.128-1.518.975-.415 2.323-.864 4.06-1.442l5.113-1.705c2.133-.71 3.817-1.273 5.112-1.503zm1.762 1.835c-.3-.3-.8-.46-1.975-.25l-.457.092c-1.116.25-2.567.732-4.503 1.377L8.17 6.77c-1.78.594-3.07 1.025-3.98 1.412-.952.405-1.29.687-1.4.876a1.88 1.88 0 0 0 0 1.886c.11.189.448.47 1.4.876.911.387 2.2.818 3.98 1.41l.084.03c.38.125.693.23.967.373l5.323-5.265a.77.77 0 0 1 1.08 1.093l-5.3 5.24c.166.292.278.629.416 1.043l.028.085c.593 1.78 1.024 3.069 1.41 3.98.406.952.688 1.29.877 1.4a1.88 1.88 0 0 0 1.886 0c.19-.11.471-.448.876-1.4.387-.911.818-2.2 1.41-3.98l1.671-5.012c.738-2.213 1.262-3.79 1.47-4.96.21-1.176.05-1.676-.25-1.976"/></svg>