<svg xmlns="http://www.w3.org/2000/svg" fill="none" viewBox="0 0 24 24"><path fill="#000" d="M10.988 3.973c.523-.235.99.012 1.247.18.262.174.565.443.889.731l.038.035 4.014 3.568c.748.665 1.37 1.217 1.796 1.718.448.527.767 1.094.767 1.795s-.32 1.268-.767 1.795c-.427.5-1.048 1.053-1.796 1.718l-4.014 3.568-.039.035c-.324.288-.627.557-.889.73-.257.17-.724.416-1.247.18-.523-.234-.65-.747-.693-1.052-.045-.31-.045-.715-.045-1.15v-1.62a11.6 11.6 0 0 0-4.209 1.113c-1.513.737-2.72 1.783-3.377 3.032A.75.75 0 0 1 1.25 20c0-4.72 1.381-7.795 3.356-9.685 1.722-1.647 3.82-2.323 5.644-2.464V6.175c0-.434 0-.84.045-1.15.043-.304.17-.817.693-1.052m4.523-.223a.75.75 0 0 1 .538.2l5.216 4.844a4.647 4.647 0 0 1-.15 6.944l-5.09 4.333a.752.752 0 0 1-1.155-.912.8.8 0 0 1 .182-.23l5.09-4.333A3.15 3.15 0 0 0 21 10.972a3.15 3.15 0 0 0-.757-1.079L15.028 5.05a.75.75 0 0 1-.04-1.06l.11-.098a.75.75 0 0 1 .413-.142M11.75 6.227v2.344a.75.75 0 0 1-.75.75c-1.69 0-3.736.528-5.356 2.079-1.302 1.245-2.391 3.211-2.76 6.258a10.3 10.3 0 0 1 2.5-1.688A13.05 13.05 0 0 1 11 14.68a.75.75 0 0 1 .75.75v2.342q0 .328.003.55.168-.144.413-.363l3.972-3.53c.802-.713 1.342-1.196 1.692-1.607.337-.395.41-.626.41-.822 0-.197-.073-.428-.41-.824-.35-.41-.891-.894-1.692-1.607l-3.972-3.53-.413-.362z"/></svg>