<svg xmlns="http://www.w3.org/2000/svg" fill="none" viewBox="0 0 24 24"><path fill="#000" d="M7.5 17.25a2.25 2.25 0 1 1-.002 4.5 2.25 2.25 0 0 1 .002-4.5m9 0a2.25 2.25 0 1 1-.002 4.5 2.25 2.25 0 0 1 .002-4.5m-9 1.5a.751.751 0 1 0 0 1.502.751.751 0 0 0 0-1.502m9 0a.751.751 0 1 0 0 1.502.751.751 0 0 0 0-1.502M1.664 2.329a.75.75 0 0 1 .573-.041l.305.101c.626.21 1.155.386 1.572.58.442.205.826.46 1.117.865.291.403.412.848.467 1.333l.009.083H16.51c.976 0 1.792 0 2.417.092.651.098 1.28.32 1.676.92s.352 1.265.184 1.902c-.161.61-.483 1.36-.867 2.257l-.467 1.09c-.176.412-.333.775-.494 1.061-.175.31-.387.593-.711.806-.322.213-.666.297-1.02.337-.328.035-.722.035-1.17.035H6.154q.103.189.255.341c.277.276.666.457 1.4.556.755.101 1.756.103 3.19.103h8a.751.751 0 0 1 0 1.5h-8.054c-1.367 0-2.47 0-3.336-.116-.9-.122-1.659-.38-2.26-.982-.602-.602-.862-1.36-.982-2.26-.117-.867-.117-1.97-.117-3.337V6.884c0-.714-.001-1.186-.042-1.547-.04-.342-.108-.506-.194-.626s-.221-.237-.533-.382c-.329-.153-.777-.304-1.453-.529l-.265-.088a.751.751 0 0 1-.1-1.383m4.086 7.17c0 1.173.001 2.055.057 2.75h10.215c.496 0 .809 0 1.046-.026.219-.023.302-.062.355-.097s.123-.097.23-.29c.118-.207.24-.494.436-.949l.43-1c.414-.968.69-1.616.819-2.106.125-.476.062-.62.014-.694-.049-.073-.158-.19-.644-.26-.501-.075-1.205-.077-2.257-.077H5.75z"/></svg>