<svg xmlns="http://www.w3.org/2000/svg" fill="none" viewBox="0 0 24 24"><path fill="#000" d="M12 1.25a.75.75 0 0 1 0 1.5c-2.378 0-4.086.002-5.386.176-1.279.172-2.049.5-2.619 1.068-.569.57-.897 1.341-1.07 2.62-.173 1.3-.175 3.008-.175 5.386s.002 4.086.176 5.386c.172 1.279.5 2.049 1.068 2.619.57.569 1.341.897 2.62 1.07 1.3.173 3.008.175 5.386.175s4.086-.002 5.386-.176c1.279-.172 2.049-.5 2.619-1.068.569-.57.897-1.341 1.07-2.62.173-1.3.175-3.008.175-5.386a.75.75 0 0 1 1.5 0v.057c0 2.309 0 4.118-.19 5.529-.194 1.445-.599 2.585-1.494 3.48-.895.894-2.035 1.3-3.48 1.494-1.411.19-3.22.19-5.53.19h-.113c-2.309 0-4.118 0-5.529-.19-1.445-.194-2.585-.599-3.48-1.494-.894-.895-1.3-2.035-1.494-3.48-.19-1.411-.19-3.22-.19-5.53v-.113c0-2.309 0-4.118.19-5.529.194-1.445.599-2.585 1.494-3.48.895-.894 2.035-1.3 3.48-1.494 1.411-.19 3.22-.19 5.53-.19zm8.994 1.019a.751.751 0 0 1 .536 1.261l-7.72 7.72h3.534a.75.75 0 0 1 0 1.5H12a.75.75 0 0 1-.75-.75V6.655a.75.75 0 0 1 1.5 0v3.535l7.72-7.72a.75.75 0 0 1 .524-.201"/></svg>