<svg xmlns="http://www.w3.org/2000/svg" fill="none" viewBox="0 0 24 24"><path fill="#000" d="M12.057 1.25c2.309 0 4.118 0 5.529.19 1.445.194 2.585.599 3.48 1.494.894.895 1.3 2.035 1.494 3.48.19 1.411.19 3.22.19 5.53v.113c0 2.309 0 4.118-.19 5.529-.194 1.445-.599 2.585-1.494 3.48-.828.828-1.868 1.238-3.167 1.448-1.277.207-2.883.232-4.898.235a.75.75 0 1 1-.002-1.5c2.04-.003 3.523-.032 4.661-.216 1.115-.18 1.817-.5 2.345-1.027.57-.57.897-1.341 1.068-2.62.175-1.3.177-3.008.177-5.386s-.002-4.086-.177-5.386c-.17-1.279-.498-2.049-1.067-2.619-.57-.569-1.341-.897-2.62-1.07-1.3-.173-3.008-.175-5.386-.175s-4.087.002-5.387.176c-1.278.172-2.048.5-2.618 1.07-.528.527-.848 1.228-1.028 2.345-.185 1.137-.213 2.62-.217 4.66a.751.751 0 0 1-1.5-.002c.004-2.016.03-3.622.236-4.898.21-1.3.62-2.338 1.448-3.167.895-.894 2.035-1.3 3.48-1.494 1.411-.19 3.22-.19 5.53-.19zm-1.051 10.981a.753.753 0 0 1 .763.763.75.75 0 0 1-.239.536l-6.72 6.72H9a.75.75 0 0 1 0 1.5H3a.75.75 0 0 1-.75-.75v-6a.75.75 0 0 1 1.5 0v4.19l6.72-6.72a.76.76 0 0 1 .536-.239"/></svg>