<svg xmlns="http://www.w3.org/2000/svg" fill="none" viewBox="0 0 24 24"><path fill="#000" d="M18 14.625a.375.375 0 0 0-.356-.374l-.019-.001h-3a.375.375 0 0 0-.375.375V21H18zm-7.5-.019a.375.375 0 0 0-.375-.356h-3.75a.375.375 0 0 0-.375.375V18h4.5zM6.036 3c-.74.013-1.364.425-1.623.99l-2.03 4.432c-.427.933.25 2.126 1.544 2.172h.08c1.102 0 1.915-.887 1.915-1.699a.75.75 0 0 1 1.5-.019v.057c.026.8.831 1.66 1.916 1.66 1.117 0 1.912-.817 1.912-1.698a.75.75 0 0 1 1.5-.019v.057c.025.8.83 1.66 1.915 1.66 1.119 0 1.915-.818 1.915-1.698a.75.75 0 0 1 1.5-.019v.06c.025.864.814 1.658 1.915 1.658h.078c1.295-.046 1.971-1.24 1.544-2.172l-2.03-4.432c-.26-.565-.883-.977-1.623-.99zM22.5 21a.75.75 0 0 1 0 1.5h-21a.75.75 0 0 1 0-1.5h.75v-9.39C.99 10.842.338 9.284 1.02 7.797l2.03-4.431.025-.055C3.617 2.187 4.805 1.5 6.072 1.5h11.916c1.245.022 2.404.705 2.937 1.811l.026.054 2.03 4.432c.681 1.487.028 3.045-1.231 3.812V21zM12 18.75a.75.75 0 0 1-.75.75h-6a.75.75 0 0 1-.75-.75v-4.125a1.875 1.875 0 0 1 1.875-1.875h3.75A1.875 1.875 0 0 1 12 14.625zM19.5 21h.75v-8.914l-.164.008h-.091a3.53 3.53 0 0 1-2.665-1.196 3.53 3.53 0 0 1-2.665 1.196 3.52 3.52 0 0 1-2.649-1.214c-.635.749-1.616 1.214-2.678 1.214a3.52 3.52 0 0 1-2.665-1.233 3.52 3.52 0 0 1-2.666 1.233h-.116l-.141-.008V21h9v-6.375a1.875 1.875 0 0 1 1.875-1.875h3.047a1.874 1.874 0 0 1 1.828 1.875z"/></svg>