<svg xmlns="http://www.w3.org/2000/svg" fill="none" viewBox="0 0 24 24"><path fill="#000" d="M4.083 6.253c.405.033.652.303.773.462.064.083.128.182.19.286l.179.316v.001l.048.085.08.018.006.002.343.08c.115.03.228.064.326.102.198.078.506.243.65.606l.027.075v.003l.021.076c.085.374-.068.682-.178.857-.113.178-.282.374-.434.551l-.002.002-.072.082.012.122.032.364c.009.121.014.239.01.344-.01.211-.062.597-.412.862-.361.274-.755.207-.966.146-.203-.058-.437-.168-.644-.263L4 11.398l-.07.033c-.206.095-.441.206-.644.264-.213.061-.605.127-.965-.144l-.002-.002c-.35-.264-.402-.649-.411-.861-.01-.212.018-.472.04-.71l.012-.12-.071-.083-.002-.002c-.151-.177-.321-.373-.434-.551-.118-.187-.284-.525-.158-.933l.001-.003.026-.075c.145-.363.453-.528.65-.606s.45-.132.67-.182l.005-.002.08-.017.049-.086.001-.003.179-.314c.062-.104.125-.203.189-.286.129-.169.401-.465.856-.465zm16 0c.405.033.652.303.774.462.064.083.127.182.189.286l.18.316v.001l.047.086.08.017.005.002.344.08c.115.03.227.063.326.102.198.078.506.244.65.609l.027.076.02.075c.085.373-.066.68-.177.856-.056.09-.127.183-.202.277l-.232.275-.002.002-.072.083.013.121.032.364c.008.121.013.239.008.344-.01.211-.061.597-.41.862-.362.274-.755.207-.967.146-.202-.058-.437-.169-.644-.264v.001L20 11.398l-.07.033c-.206.095-.441.206-.644.264-.213.061-.605.127-.965-.144l-.002-.002c-.349-.264-.402-.649-.412-.861s.018-.472.042-.71l.011-.12-.072-.083-.001-.002c-.151-.177-.322-.373-.434-.552-.118-.187-.284-.526-.156-.935l.027-.076c.145-.361.45-.526.649-.604.196-.078.45-.133.67-.183l.004-.002.08-.017.048-.086.001-.001.18-.316c.061-.104.125-.203.189-.286.129-.17.402-.465.856-.465zm-7.982-4.999c.491.04.814.366 1.016.63.108.14.217.311.329.5l.348.614.001.002.129.232.09.161q.025.044.042.068.025.008.066.018l.173.04h.002l.254.059c.466.105.903.202 1.23.33.32.127.702.348.88.795l.032.093.025.093c.108.463-.073.863-.255 1.152-.19.302-.486.645-.805 1.019l-.174.201h.001l-.118.14-.058.073.024.284v.001l.025.27.064.71c.016.22.023.424.015.602-.016.358-.1.837-.525 1.16-.438.333-.928.267-1.274.168a5 5 0 0 1-.554-.204l-.627-.284-.24-.11-.161-.073L12 9.975l-.056.023-.162.073-.238.11c-.436.202-.844.392-1.181.489-.348.1-.838.164-1.276-.17-.424-.322-.508-.8-.524-1.159-.016-.357.03-.813.078-1.312l.027-.27.022-.286-.057-.072-.117-.139-.174-.202c-.32-.374-.615-.717-.804-1.018-.195-.308-.388-.743-.231-1.246l.033-.093c.177-.447.56-.668.88-.794.326-.13.763-.226 1.23-.331l.253-.058.003-.001.172-.04.065-.017.04-.067.092-.162.13-.235.35-.613c.112-.19.22-.36.328-.5.216-.282.569-.635 1.117-.635zM4 8.201a1.35 1.35 0 0 1-.342.43l-.007.005c-.213.16-.473.204-.549.22l-.006.002-.016.003.032.036.003.005.058.067c.074.088.188.239.247.424l.001.004.005.011h-.002c.075.247.036.504.03.578v.002l-.002.01c.093-.044.308-.143.548-.143l.1.005c.197.022.365.1.447.139v-.013c-.009-.087-.045-.337.029-.58l.033-.092c.086-.206.23-.359.276-.412l.003-.005.568.49-.567-.49.03-.036-.015-.003-.006-.001c-.066-.015-.338-.06-.556-.226A1.3 1.3 0 0 1 4 8.2m16 0a1.35 1.35 0 0 1-.342.43l-.007.005c-.213.16-.473.204-.55.22l-.004.002-.017.003.031.036.004.005.059.067c.074.088.186.239.246.424l.001.004.005.011h-.002c.075.247.037.504.03.578v.002l-.002.01c.093-.044.307-.143.548-.143l.1.005c.197.022.365.1.447.139v-.013c-.01-.087-.046-.337.028-.58l.034-.092c.087-.206.23-.359.276-.412l.004-.005.03-.036-.015-.003-.006-.001c-.067-.015-.338-.06-.555-.226A1.3 1.3 0 0 1 20 8.2m-8-5.299q-.07.103-.155.246l-.329.58-.131.233v.001c-.111.201-.263.504-.53.706-.27.206-.601.265-.818.314l-.254.058h-.002c-.464.105-.753.173-.948.241.12.181.322.42.648.803l.175.203.124.146c.11.13.228.288.307.475l.043.116.03.12c.057.277.02.553 0 .76l-.025.27v.001a12 12 0 0 0-.074 1.014c.192-.068.455-.186.854-.37h.001l.24-.11.167-.078c.186-.082.421-.171.677-.171l.126.007c.29.032.543.161.718.241v.001l.24.11.59.266a4 4 0 0 0 .265.104c0-.221-.026-.534-.073-1.015v-.001l-.027-.269-.018-.193a1.8 1.8 0 0 1 .05-.687l.042-.116c.111-.262.3-.467.43-.62l.002-.001.173-.203.426-.505c.095-.117.166-.214.222-.298-.195-.068-.484-.136-.947-.24h-.002l-.254-.059c-.217-.05-.548-.109-.819-.314-.266-.202-.418-.504-.53-.704l-.002-.003-.13-.235c-.216-.39-.364-.648-.482-.824M9.684 13.448c1.866-.361 3.863-.28 5.48.684h-.002c.233.137.444.309.624.51.2.22.355.477.455.757.081.23.123.473.126.717q.286-.185.577-.406h.001l1.807-1.365.012-.009.172-.116a2.64 2.64 0 0 1 2.755 0l.174.116.005.004.006.004c.835.63 1.17 1.762.57 2.722l.001.001c-.372.597-.909 1.394-1.474 1.988l-.243.24c-.66.612-1.598 1.124-2.305 1.467l-.001.001c-.862.415-1.792.645-2.698.792h-.002a15.7 15.7 0 0 1-5.598-.124h-.001a14.3 14.3 0 0 0-2.865-.293H5a.75.75 0 0 1 0-1.5h2.26c1.061 0 2.134.111 3.166.323a14.2 14.2 0 0 0 4.747.159l.315-.047c.829-.134 1.602-.333 2.283-.661l.26-.13c.612-.31 1.253-.692 1.679-1.086l.188-.186c.44-.467.909-1.146 1.275-1.735l.001-.002.041-.08c.077-.194.03-.44-.236-.646a1.14 1.14 0 0 0-1.334.003h-.001l-1.795 1.357c-.721.546-1.61 1.128-2.71 1.303l-.002.001a9 9 0 0 1-.374.05q-.054.009-.107.012l-.008.002h-.008q-.856.086-1.715.025l-.245-.02-.075-.012a.75.75 0 0 1 .142-1.485l.077.004.417.029q.627.03 1.25-.033l.019-.002a.3.3 0 0 0 .077-.048l.013-.012.013-.012a.74.74 0 0 0 .063-1.06l-.004-.004a1.2 1.2 0 0 0-.273-.222l-.004-.003c-1.181-.705-2.758-.822-4.426-.5a12.1 12.1 0 0 0-4.535 1.935.75.75 0 0 1-.868-1.223 13.6 13.6 0 0 1 5.118-2.184"/><path fill="#000" d="M4.25 15.5a.75.75 0 0 0-1.5 0v5l.004.076A.75.75 0 0 0 4.25 20.5zm1.5 5a2.25 2.25 0 0 1-4.497.116L1.25 20.5v-5a2.25 2.25 0 0 1 4.5 0z"/></svg>