<svg xmlns="http://www.w3.org/2000/svg" fill="none" viewBox="0 0 24 24"><path fill="#000" d="M12 2.25a8.75 8.75 0 0 1 8.748 8.667 2.75 2.75 0 0 1 2.002 2.644v1.877a2.75 2.75 0 0 1-2 2.643v.419A2.753 2.753 0 0 1 18 21.25h-2.38a2.3 2.3 0 0 1-.528.842 2.25 2.25 0 0 1-1.592.658h-3a2.251 2.251 0 1 1 0-4.5h3a2.25 2.25 0 0 1 2.119 1.5H18a1.25 1.25 0 0 0 1.25-1.25v-.041l-.323.082a1.36 1.36 0 0 1-1.157-.246 1.35 1.35 0 0 1-.52-1.064v-5.463l.009-.153a1.36 1.36 0 0 1 .51-.91l.127-.088q.197-.12.423-.169l.152-.023c.152-.015.307-.004.456.033l.306.076a7.249 7.249 0 0 0-14.466 0l.305-.076.15-.028q.152-.021.305-.006l.152.023.15.04q.145.05.275.13l.126.087.116.1q.11.108.192.238l.075.134.06.141q.076.219.077.45v5.464a1.354 1.354 0 0 1-1.068 1.32c-.2.043-.41.04-.609-.01l-1.74-.436a2.75 2.75 0 0 1-2.073-2.438l-.01-.229V13.56a2.75 2.75 0 0 1 2.002-2.643A8.75 8.75 0 0 1 12 2.25m-1.5 17.5a.75.75 0 0 0 0 1.5h3a.75.75 0 0 0 0-1.5zm-6.318-7.523-.486.12a1.25 1.25 0 0 0-.946 1.213v1.878l.005.104a1.25 1.25 0 0 0 .942 1.108l1.553.388V11.96zm14.568 4.811 1.067-.265.485-.122h.002a1.25 1.25 0 0 0 .942-1.109l.004-.104V13.56a1.25 1.25 0 0 0-.847-1.182l-.1-.03-.485-.12-1.068-.268z"/></svg>