<svg xmlns="http://www.w3.org/2000/svg" fill="none" viewBox="0 0 24 24"><path fill="#000" d="M15 1.25a.75.75 0 0 1 .75.75v1.256c1.21.012 2.22.053 3.059.196 1.028.174 1.872.51 2.55 1.19.748.748 1.08 1.697 1.238 2.869.153 1.14.153 2.595.153 4.433v.112c0 1.838 0 3.294-.153 4.433-.158 1.172-.49 2.121-1.238 2.87-.678.678-1.522 1.015-2.55 1.19-.84.142-1.85.183-3.059.195V22a.75.75 0 0 1-1.5 0V2a.75.75 0 0 1 .75-.75m-3 2a.75.75 0 0 1 0 1.5h-2c-1.907 0-3.261.002-4.29.14-1.005.135-1.585.39-2.008.812S3.025 6.705 2.89 7.71c-.138 1.028-.14 2.382-.14 4.289s.002 3.262.14 4.29c.135 1.005.39 1.585.812 2.008s1.003.677 2.009.812c1.028.138 2.382.14 4.289.14h2a.75.75 0 0 1 0 1.5H9.944c-1.838 0-3.294 0-4.433-.153-1.172-.158-2.121-.49-2.87-1.238-.748-.748-1.08-1.698-1.238-2.87-.153-1.14-.153-2.595-.153-4.433v-.112c0-1.838 0-3.294.153-4.433.158-1.172.49-2.121 1.238-2.87.749-.748 1.698-1.08 2.87-1.238 1.14-.153 2.595-.152 4.433-.152zm3.75 15.994c1.186-.012 2.089-.052 2.808-.174.842-.143 1.355-.387 1.74-.772.423-.423.677-1.003.812-2.008.138-1.028.14-2.383.14-4.29s-.002-3.261-.14-4.29c-.135-1.005-.39-1.585-.812-2.008-.385-.385-.898-.63-1.74-.772-.718-.122-1.622-.162-2.808-.174zM10.116 7.75c.4 0 .766 0 1.066.037.329.041.68.137.98.405q.077.068.146.146c.268.3.364.651.405.98.037.3.037.666.037 1.066v.04a.75.75 0 0 1-1.5 0c0-.454-.001-.725-.026-.921-.024-.192-.222-.226-.228-.227-.195-.025-.466-.026-.92-.026H9.75v5.5H11a.75.75 0 0 1 0 1.5H7a.75.75 0 0 1 0-1.5h1.25v-5.5h-.325c-.455 0-.726.001-.922.026-.006.001-.203.035-.227.227-.025.196-.026.467-.026.922a.75.75 0 0 1-1.5 0v-.041c0-.4 0-.766.037-1.066.041-.329.137-.68.405-.98q.07-.078.146-.146c.3-.268.651-.364.98-.405.3-.037.666-.037 1.066-.037z"/></svg>