<svg xmlns="http://www.w3.org/2000/svg" fill="none" viewBox="0 0 24 24"><path fill="#000" d="M10.146 4.005c.986.052 1.76.48 2.11.789l.018.016.012.01.034.033q.252.245.461.528l.016.022a.654.654 0 0 1-.742.989l-.026-.01a3 3 0 0 0-.293-.087 2.2 2.2 0 0 0-.58-.041l-.04.003c-.433.035-.964.247-1.203.434-.382.304-.57.706-.601 1.345a.8.8 0 0 0 .011.229.8.8 0 0 0 .107.232c.147.236.44.58 1.042 1.188l.125.125.011.012.013.013.01.013q.092.003.181.02c.274.049.526.178.725.372l.917.893.799-.741v-.001l.044-.045a.45.45 0 0 0 .085-.408l-.072-.282c-.337-1.431-.249-3.152.971-4.363 1.287-1.278 3.291-1.624 4.868-.968l.037.016h.003l.002.003.019.008a.7.7 0 0 1 .23.177l.014.016.013.017c.058.078.1.169.12.264l.005.02.003.021a.69.69 0 0 1-.194.594l-2.078 2.078-.014.017a.46.46 0 0 0-.118.304v.023a.46.46 0 0 0 .132.299l.916.916.017.015a.457.457 0 0 0 .61 0l.017-.015 2.089-2.09a.7.7 0 0 1 .274-.167l.02-.006a.7.7 0 0 1 .282-.022l.02.003.02.003a.7.7 0 0 1 .26.11l.017.011.017.013a.7.7 0 0 1 .181.216l.01.018.004.007c.347.714.42 1.63.27 2.494-.15.87-.541 1.771-1.22 2.44h-.001c-1.284 1.264-3.125 1.29-4.594.898l-.06-.011a.45.45 0 0 0-.386.14h-.001v.001l-.703.751c1.564 1.448 3.285 3.01 3.988 3.595l.086.08q.124.123.207.28l.015.028.013.028q.095.201.11.423l.003.031v.031a1.2 1.2 0 0 1-.352.877l-1.369 1.37a1.226 1.226 0 0 1-1.756-.044l-.021-.023-.004-.006c-.597-.692-2.124-2.337-3.56-3.847l-3.28 3.504a2.321 2.321 0 0 1-4.041-1.617 2.32 2.32 0 0 1 .763-1.656l3.55-3.3-.005-.005-.35-.343-.45-.439-.003-.004a1.4 1.4 0 0 1-.412-1.032c-.871-.87-1.428-1.284-1.706-1.453a1.3 1.3 0 0 0-.477-.189.6.6 0 0 0-.228.023q.103.106.165.241l.008.02.008.019a.84.84 0 0 1-.195.912l-1.201 1.172-.062.055a.85.85 0 0 1-.543.188l-.155-.016a.85.85 0 0 1-.412-.207L3.7 12.59l-.005-.005-1.943-1.897-.018-.018a.85.85 0 0 1-.234-.566v-.041a.85.85 0 0 1 .234-.568l.018-.017 1.201-1.174a.9.9 0 0 1 .28-.183l.02-.007a.85.85 0 0 1 .64.02 2 2 0 0 1 .004-.227c.014-.163.06-.375.206-.577l.008-.01q.4-.53.87-.996h.002l.062-.06c.35-.335 1.371-1.238 3.009-1.897l.226-.086A5 5 0 0 1 9.945 4zm7.552 1.31c-.89-.058-1.835.25-2.496.906l-.144.157c-.681.81-.753 2.012-.417 3.207a1.76 1.76 0 0 1-.498 1.765l-1.217 1.13-.011.015q-.02.018-.042.034l-5.799 5.39-.01.008a1.011 1.011 0 1 0 1.43 1.428l.005-.005.005-.005 6.624-7.08.02-.022a1.76 1.76 0 0 1 1.722-.48c1.265.338 2.532.228 3.339-.567l.02-.02c.433-.437.717-1.06.83-1.712q.067-.392.052-.746l-1.306 1.307a1.764 1.764 0 0 1-2.488 0l-.92-.92v-.001a1.76 1.76 0 0 1-.513-1.244v-.044c.011-.45.194-.879.512-1.199zm-4.062 10.458c1.408 1.48 2.931 3.118 3.595 3.88l1.217-1.217c-.776-.656-2.452-2.178-3.96-3.574zm-3.106-4.615-.695.689-.002.002-.008.005a.1.1 0 0 0-.004.038.1.1 0 0 0 .026.05l.795.778.051.05.802-.746-.379-.369-.49-.476-.002-.002a.09.09 0 0 0-.094-.019m-.843-5.842c-.378.026-.75.109-1.103.247l-.041.016-.001.001C7.018 6.194 6.115 7.046 5.9 7.256a8 8 0 0 0-.7.793c0 .027.002.068.007.141.006.082.02.24-.003.4a1 1 0 0 1-.276.578l-.018.019-.004.002c-.257.246-.59.32-.799.344h-.002l-.01.001-.116.007q-.177 0-.345-.056L3.62 9.48l-.616.603 1.287 1.256.583-.57a1.25 1.25 0 0 1-.145-.556 1.2 1.2 0 0 1 .084-.476l.012-.028q.09-.212.25-.378l.003-.004q.115-.116.259-.195c.332-.187.711-.27 1.09-.24l.037.004h.006c.22.023.588.11 1.016.37.36.22.913.64 1.683 1.383l.214-.208c-.513-.525-.854-.916-1.064-1.253a2 2 0 0 1-.27-.632 2 2 0 0 1-.043-.308v-.276l.002-.043c.052-.894.355-1.679 1.096-2.265h.001c.162-.127.362-.245.582-.348"/></svg>