<svg xmlns="http://www.w3.org/2000/svg" fill="none" viewBox="0 0 24 24"><path fill="#000" d="M18.045 7.25c.432 0 .83 0 1.152.043.355.048.731.16 1.04.47s.422.684.47 1.04c.043.323.043.72.043 1.152v.297c0 .325.002.677-.133 1.003-.136.327-.385.575-.616.805l-.057.056-3.242 3.243c-.622.621-.775.793-.857.99-.082.199-.095.43-.095 1.308V22a.75.75 0 0 1-1.5 0v-4.464c0-.284 0-.544.014-.786H9.737c.013.242.013.502.013.786V22a.75.75 0 0 1-1.5 0v-4.343c0-.879-.013-1.11-.095-1.307-.082-.198-.236-.37-.857-.99l-3.242-3.244L4 12.06c-.23-.23-.48-.478-.616-.805-.135-.326-.134-.678-.133-1.003v-.297c0-.433 0-.83.043-1.152.048-.356.16-.731.47-1.04s.685-.422 1.04-.47c.323-.043.72-.043 1.151-.043zM12 18.25a.75.75 0 0 1 .75.75v2a.75.75 0 0 1-1.5 0v-2a.75.75 0 0 1 .75-.75m-3.556-3.867c.312.312.583.582.793.867h5.527c.21-.285.482-.556.793-.866l2.633-2.634H5.81zM6 8.75c-.493 0-.787.002-.998.03a.7.7 0 0 0-.176.042l-.003.001v.003l-.006.01a.7.7 0 0 0-.037.167c-.029.21-.03.504-.03.997v.25h14.501V10c0-.493-.001-.787-.03-.997a.7.7 0 0 0-.036-.167l-.005-.01-.002-.003h-.003l-.01-.006a.7.7 0 0 0-.167-.037c-.21-.028-.505-.03-.997-.03zm6-7.5a.75.75 0 0 1 .75.75v3a.75.75 0 0 1-1.5 0V2a.75.75 0 0 1 .75-.75M6.006 2.269a.75.75 0 0 1 .524.2l2 2A.75.75 0 0 1 7.47 5.53l-2-2a.75.75 0 0 1 .536-1.261M18 2.25a.75.75 0 0 1 .53 1.28l-2 2a.75.75 0 0 1-1.06-1.061l2-2A.75.75 0 0 1 18 2.25"/></svg>