<svg xmlns="http://www.w3.org/2000/svg" fill="none" viewBox="0 0 24 24"><path fill="#000" d="M18.884 7.752a.75.75 0 0 1 .698.798l-.464 6.952c-.085 1.282-.154 2.318-.316 3.132-.17.845-.455 1.551-1.047 2.104s-1.315.793-2.17.904c-.822.108-1.86.108-3.145.108h-.88c-1.285 0-2.323 0-3.145-.108-.855-.111-1.579-.35-2.17-.904-.592-.553-.878-1.26-1.047-2.104-.162-.814-.23-1.85-.316-3.132L4.418 8.55a.75.75 0 0 1 1.497-.1l.46 6.9c.09 1.347.154 2.285.294 2.99.137.684.327 1.047.6 1.303.274.256.648.422 1.34.512.714.093 1.655.095 3.004.095h.774c1.35 0 2.29-.002 3.004-.095.692-.09 1.066-.256 1.34-.512.273-.256.463-.619.6-1.303.14-.705.204-1.643.294-2.99l.46-6.9a.75.75 0 0 1 .508-.66.8.8 0 0 1 .29-.038M20.5 5.25a.75.75 0 0 1 0 1.5h-17a.75.75 0 0 1 0-1.5zm-8.499-4.001a3.75 3.75 0 0 1 3.536 2.501.75.75 0 0 1-.206.808.752.752 0 0 1-1.209-.308 2.252 2.252 0 0 0-4.244 0 .75.75 0 1 1-1.414-.5A3.75 3.75 0 0 1 12 1.249"/></svg>