<svg xmlns="http://www.w3.org/2000/svg" fill="none" viewBox="0 0 24 24"><path fill="#000" d="M11.15 1.299a6.75 6.75 0 0 1 7.387 5.014.75.75 0 0 1-1.452.374 5.25 5.25 0 0 0-5.747-3.902A5.25 5.25 0 0 0 6.75 8v1.253q.561-.003 1.195-.003h8.11c1.367 0 2.47 0 3.337.117.9.121 1.658.379 2.26.98.602.603.86 1.361.982 2.261.116.867.116 1.97.116 3.337v.11c0 1.366 0 2.47-.116 3.337-.122.9-.38 1.658-.982 2.26s-1.36.86-2.26.982c-.867.116-1.97.116-3.337.116h-8.11c-1.367 0-2.47 0-3.337-.116-.9-.122-1.658-.38-2.26-.982s-.86-1.36-.98-2.26c-.118-.867-.118-1.97-.118-3.337v-.11c0-1.367 0-2.47.117-3.337.121-.9.379-1.658.98-2.26.603-.601 1.361-.86 2.261-.98a10 10 0 0 1 .642-.065V8a6.75 6.75 0 0 1 5.9-6.701M8 10.75c-1.435 0-2.437.002-3.191.104-.735.099-1.123.278-1.4.555s-.457.665-.556 1.399c-.101.755-.103 1.757-.103 3.192s.002 2.436.103 3.191c.099.735.28 1.123.556 1.4.277.276.665.457 1.399.556.755.102 1.757.103 3.192.103h8c1.435 0 2.436-.002 3.191-.102.735-.1 1.123-.28 1.4-.557s.457-.665.556-1.399c.102-.756.103-1.757.103-3.192s-.002-2.436-.102-3.191c-.1-.735-.28-1.123-.557-1.4s-.665-.457-1.399-.556c-.756-.1-1.757-.103-3.192-.103z"/></svg>