<svg xmlns="http://www.w3.org/2000/svg" fill="none" viewBox="0 0 24 24"><path fill="#000" d="M9 12.25c2.039 0 3.922.47 5.322 1.27 1.378.787 2.428 1.99 2.428 3.48s-1.05 2.692-2.428 3.48c-1.4.8-3.283 1.27-5.322 1.27s-3.922-.47-5.322-1.27C2.3 19.693 1.25 18.49 1.25 17s1.05-2.693 2.428-3.48c1.4-.8 3.283-1.27 5.322-1.27m0 1.5c-1.827 0-3.444.425-4.578 1.073C3.267 15.483 2.75 16.28 2.75 17s.517 1.517 1.672 2.177C5.556 19.825 7.173 20.25 9 20.25s3.444-.425 4.578-1.073c1.155-.66 1.672-1.458 1.672-2.177s-.517-1.517-1.672-2.177C12.444 14.175 10.827 13.75 9 13.75m9.16-.483c.962.21 1.829.592 2.473 1.119.643.526 1.117 1.249 1.117 2.114 0 .779-.386 1.446-.932 1.953-.544.505-1.28.888-2.102 1.136q-.143.043-.291.028a.752.752 0 0 1-.4-1.328.8.8 0 0 1 .26-.137c.662-.2 1.177-.488 1.512-.799.333-.308.453-.603.453-.853 0-.276-.15-.611-.567-.953-.418-.342-1.051-.64-1.843-.814a.752.752 0 0 1 .32-1.466M9 1.25a4.75 4.75 0 1 1-.001 9.499A4.75 4.75 0 0 1 9 1.25m6 1a3.75 3.75 0 0 1 0 7.5.75.75 0 0 1 0-1.5 2.25 2.25 0 0 0 0-4.5.75.75 0 0 1 0-1.5m-6 .5a3.25 3.25 0 1 0 0 6.5 3.25 3.25 0 0 0 0-6.5"/></svg>