<svg xmlns="http://www.w3.org/2000/svg" fill="none" viewBox="0 0 24 24"><path fill="#000" d="M12 12.25c1.784 0 3.434.48 4.66 1.297 1.218.813 2.09 2.02 2.09 3.453s-.87 2.64-2.09 3.453c-1.226.817-2.876 1.297-4.66 1.297s-3.434-.48-4.66-1.297C6.12 19.64 5.25 18.433 5.25 17s.87-2.64 2.09-3.453c1.226-.817 2.876-1.297 4.66-1.297m0 1.5c-1.529 0-2.88.415-3.827 1.046C7.222 15.43 6.75 16.224 6.75 17s.472 1.57 1.423 2.204c.947.631 2.297 1.046 3.827 1.046s2.88-.415 3.827-1.046c.951-.634 1.423-1.428 1.423-2.204s-.472-1.57-1.423-2.204C14.88 14.165 13.53 13.75 12 13.75m-8.16-.483a.751.751 0 0 1 .32 1.466c-.792.173-1.425.472-1.843.814s-.567.677-.567.953.15.61.567.953c.418.343 1.051.64 1.844.814a.75.75 0 0 1-.322 1.466c-.962-.21-1.828-.592-2.472-1.119C.724 18.088.25 17.364.25 16.5c0-.865.474-1.588 1.117-2.114.644-.527 1.511-.908 2.473-1.12m16.321 0c.961.21 1.828.592 2.472 1.119.643.526 1.117 1.25 1.117 2.114 0 .865-.474 1.588-1.117 2.114-.644.527-1.51.908-2.472 1.12a.752.752 0 0 1-.9-.866.75.75 0 0 1 .31-.483.8.8 0 0 1 .268-.118c.793-.173 1.426-.472 1.844-.814s.567-.677.567-.953-.15-.61-.567-.953c-.418-.343-1.051-.64-1.844-.814a.753.753 0 0 1-.572-.894l.046-.139a.75.75 0 0 1 .848-.433M12 1.25a4.75 4.75 0 1 1-.001 9.499A4.75 4.75 0 0 1 12 1.25m-6 2a.75.75 0 0 1 0 1.5c-1.376 0-2.25.906-2.25 1.75S4.624 8.25 6 8.25a.75.75 0 0 1 0 1.5c-1.937 0-3.75-1.333-3.75-3.25S4.063 3.25 6 3.25m12 0c1.937 0 3.75 1.333 3.75 3.25S19.937 9.75 18 9.75a.75.75 0 0 1 0-1.5c1.377 0 2.25-.906 2.25-1.75S19.377 4.75 18 4.75a.75.75 0 0 1 0-1.5m-6-.5a3.25 3.25 0 1 0 0 6.499 3.25 3.25 0 0 0 0-6.499"/></svg>