<svg xmlns="http://www.w3.org/2000/svg" fill="none" viewBox="0 0 24 24"><path fill="#000" d="M11.75 13c.623 0 1.23.06 1.807.171l4.854 3.799q.088.377.09.78c0 1.433-.872 2.64-2.091 3.453-1.226.817-2.876 1.297-4.66 1.297s-3.434-.48-4.659-1.297c-1.22-.813-2.09-2.02-2.09-3.453s.87-2.639 2.09-3.453C8.316 13.48 9.966 13 11.751 13m0 1.5c-1.529 0-2.88.415-3.827 1.046-.95.634-1.423 1.428-1.423 2.204s.472 1.57 1.423 2.204C8.87 20.585 10.22 21 11.75 21s2.88-.415 3.827-1.046C16.528 19.32 17 18.526 17 17.75s-.472-1.57-1.423-2.204c-.947-.63-2.297-1.046-3.827-1.046m10.154 5.203a6.4 6.4 0 0 1-1.993.78.753.753 0 0 1-.9-.865.75.75 0 0 1 .578-.601c.38-.083.72-.196 1.02-.327zM3.59 14.017a.752.752 0 0 1 .32 1.467c-.791.173-1.424.471-1.842.813s-.568.677-.568.953.15.61.568.953 1.05.64 1.843.814a.752.752 0 0 1-.322 1.467c-.962-.211-1.828-.593-2.472-1.12C.475 18.84 0 18.115 0 17.25s.474-1.588 1.117-2.114c.644-.527 1.511-.908 2.473-1.12m16.321 0c.961.21 1.828.592 2.472 1.119.643.526 1.117 1.25 1.117 2.114 0 .535-.182 1.016-.472 1.429l-1.186-.929a.96.96 0 0 0 .158-.5c0-.276-.15-.61-.567-.953-.418-.343-1.051-.64-1.844-.813a.754.754 0 0 1-.572-.895l.046-.139a.75.75 0 0 1 .848-.433m-8.506-2.531a4.75 4.75 0 0 1-4.17-3.263zM11.75 2a4.75 4.75 0 0 1 3.359 8.109 4.75 4.75 0 0 1-1.658 1.074l-1.52-1.189a3.25 3.25 0 1 0-3.375-2.642L7.037 6.163A4.75 4.75 0 0 1 11.75 2M4.292 5.92c-.505.341-.792.846-.792 1.33C3.5 8.094 4.374 9 5.75 9a.75.75 0 0 1 0 1.5C3.813 10.5 2 9.167 2 7.25c0-.924.422-1.713 1.076-2.282zM17.75 4c1.937 0 3.75 1.333 3.75 3.25s-1.813 3.25-3.75 3.25a.75.75 0 0 1 0-1.5C19.127 9 20 8.094 20 7.25s-.873-1.75-2.25-1.75a.75.75 0 0 1 0-1.5m-12 0a.75.75 0 0 1 .53 1.28.8.8 0 0 1-.196.137l-1.571-1.23A4.3 4.3 0 0 1 5.75 4"/><path stroke="#000" stroke-linecap="round" d="m.702 2.914 22.212 17.384"/></svg>