<svg xmlns="http://www.w3.org/2000/svg" fill="none" viewBox="0 0 24 24"><path fill="#000" d="M1.5 3.969A1.97 1.97 0 0 1 3.469 2H20.53a1.97 1.97 0 0 1 1.97 1.969V21.03A1.97 1.97 0 0 1 20.531 23H3.47a1.97 1.97 0 0 1-1.97-1.969zm1.969-.656a.656.656 0 0 0-.656.656v4.594h5.25v-5.25zm4.594 6.562h-5.25v5.25h5.25zm1.312 5.25h5.25v-5.25h-5.25zm-1.312 1.313h-5.25v4.593a.656.656 0 0 0 .656.657h4.594zm1.312 0v5.25h5.25v-5.25zm6.563 0v5.25h4.593a.656.656 0 0 0 .657-.657v-4.593zm0-1.313h5.25v-5.25h-5.25zm0-6.562h5.25V3.968a.656.656 0 0 0-.657-.656h-4.593zm-1.313 0v-5.25h-5.25v5.25z"/></svg>