<svg xmlns="http://www.w3.org/2000/svg" fill="none" viewBox="0 0 24 24"><path fill="#000" d="M11.485 3.56c.826-.4 1.64-.624 2.457-.345.272.093.534.226.769.391.706.497 1.005 1.28 1.167 2.18.158.88.213 2.044.28 3.494l.001.022.003.058A68 68 0 0 1 16.25 12c0 .552-.036 1.525-.088 2.64l-.003.058v.022c-.068 1.45-.123 2.614-.281 3.494-.162.9-.461 1.684-1.167 2.18a3 3 0 0 1-.769.39c-.818.28-1.63.057-2.457-.344-.803-.39-1.773-1.03-2.982-1.825l-.05-.033-.267-.176c-.447-.295-.602-.394-.76-.464a2.2 2.2 0 0 0-.535-.16c-.171-.03-.354-.032-.89-.032h-.173c-1.21 0-2.053 0-2.803-.347a3.96 3.96 0 0 1-1.727-1.624C.906 15.051.86 14.29.794 13.207v-.003l-.008-.13A18 18 0 0 1 .75 12c0-.341.014-.706.036-1.074l.008-.13v-.003C.86 9.71.906 8.949 1.298 8.22a3.96 3.96 0 0 1 1.727-1.623c.752-.348 1.597-.35 2.814-.348H6c.537 0 .72-.002.89-.031q.277-.048.535-.16c.16-.07.314-.17.76-.465l.268-.176.02-.013c1.222-.805 2.203-1.45 3.012-1.844m1.973 1.074c-.25-.084-.607-.07-1.318.276-.714.347-1.62.942-2.909 1.792l-.22.145-.05.032-.017.011c-.37.244-.63.415-.913.542a3.8 3.8 0 0 1-.89.266c-.31.052-.627.052-1.082.052H6c-1.444 0-1.93.016-2.345.208a2.47 2.47 0 0 0-1.036.975c-.218.405-.259.82-.336 2.085-.02.346-.033.68-.033.982 0 .303.012.636.033.983.077 1.264.118 1.68.336 2.084.21.39.635.79 1.036.975.414.192.901.208 2.345.208h.06c.454 0 .77 0 1.08.052q.463.079.891.267c.288.128.552.301.932.552l.05.033.218.144c1.29.85 2.195 1.445 2.91 1.792.71.346 1.068.36 1.317.275.137-.047.272-.115.39-.199.217-.152.415-.447.553-1.218.14-.775.191-1.847.263-3.377.052-1.12.086-2.06.086-2.571s-.034-1.45-.086-2.57c-.072-1.53-.123-2.603-.262-3.378-.14-.771-.337-1.066-.553-1.218a1.6 1.6 0 0 0-.391-.2m6.61.62a.75.75 0 0 1 .508.266l.003.003.003.004.007.009q.045.056.086.114.107.152.203.31c.16.27.368.666.572 1.196.408 1.061.8 2.653.8 4.844 0 2.19-.392 3.783-.8 4.845a7.7 7.7 0 0 1-.572 1.194q-.124.205-.268.4l-.034.041a.75.75 0 0 1-1.156-.955l.034-.045a3 3 0 0 0 .137-.213c.12-.197.288-.516.459-.96.342-.89.7-2.298.7-4.307s-.358-3.417-.7-4.306a6 6 0 0 0-.46-.96l-.168-.256-.002-.002a.751.751 0 0 1 .648-1.222m-1.862 3.025a.75.75 0 0 1 .45.357l.043.086q.03.063.075.173c.06.147.132.357.203.631.14.551.273 1.364.273 2.474s-.132 1.924-.273 2.475q-.08.322-.203.63l-.118.26a.751.751 0 1 1-1.317-.72l.043-.097a4 4 0 0 0 .141-.447c.11-.424.227-1.11.227-2.1s-.118-1.678-.227-2.102a4 4 0 0 0-.18-.534l-.004-.01a.751.751 0 0 1 .867-1.076"/></svg>