<svg xmlns="http://www.w3.org/2000/svg" fill="none" viewBox="0 0 24 24"><path fill="#000" d="M16.9 1.25c1.017 0 1.717 0 2.306.204a3.8 3.8 0 0 1 2.348 2.412c.196.597.195 1.307.195 2.36v14.148c0 1.466-1.727 2.338-2.864 1.297a.196.196 0 0 0-.27 0l-.485.442c-.928.85-2.334.85-3.262 0a.91.91 0 0 0-1.238 0c-.928.85-2.334.85-3.262 0a.91.91 0 0 0-1.238 0c-.928.85-2.334.85-3.262 0l-.483-.442a.196.196 0 0 0-.272 0c-1.137 1.04-2.864.169-2.864-1.297V6.227c0-1.054 0-1.764.195-2.36a3.8 3.8 0 0 1 2.348-2.413c.59-.205 1.29-.204 2.307-.204zm-9.656 1.5c-1.22 0-1.642.01-1.96.121A2.3 2.3 0 0 0 3.87 4.334c-.11.338-.12.784-.12 2.036v14.004c0 .12.059.192.134.227a.2.2 0 0 0 .11.018.2.2 0 0 0 .107-.055 1.696 1.696 0 0 1 2.296 0l.483.442a.91.91 0 0 0 1.238 0 2.407 2.407 0 0 1 3.262 0 .907.907 0 0 0 1.238 0 2.407 2.407 0 0 1 3.262 0 .907.907 0 0 0 1.238 0l.483-.442a1.696 1.696 0 0 1 2.297 0 .185.185 0 0 0 .216.037c.075-.035.135-.108.135-.227V6.37c0-1.252-.01-1.698-.12-2.037a2.3 2.3 0 0 0-1.416-1.462c-.317-.11-.738-.12-1.96-.12zM12 5.72a.7.7 0 0 1 .697.699v.295c1.517.271 2.791 1.411 2.791 2.96a.698.698 0 0 1-1.395 0c0-.784-.812-1.627-2.093-1.627s-2.093.843-2.093 1.628.813 1.628 2.093 1.628c1.802 0 3.488 1.24 3.488 3.022 0 1.55-1.274 2.69-2.79 2.961v.295a.7.7 0 0 1-.698.698.7.7 0 0 1-.697-.698v-.295c-1.517-.271-2.791-1.411-2.791-2.96a.698.698 0 0 1 1.395 0c0 .784.813 1.627 2.093 1.627s2.093-.843 2.093-1.628-.812-1.628-2.093-1.628c-1.802 0-3.488-1.24-3.488-3.022 0-1.55 1.274-2.69 2.79-2.961v-.295A.7.7 0 0 1 12 5.721"/></svg>