<svg xmlns="http://www.w3.org/2000/svg" fill="none" viewBox="0 0 24 24"><path fill="#000" d="M13.055 1.25c1.367 0 2.47 0 3.337.117.9.12 1.658.38 2.26.98.4.4.648.871.806 1.405.21.003.388.012.55.038a3.25 3.25 0 0 1 2.702 2.702c.04.253.04.542.04.943v9.13c0 .401 0 .69-.04.943a3.25 3.25 0 0 1-2.702 2.702 4 4 0 0 1-.55.038c-.158.534-.406 1.003-.806 1.404-.602.602-1.36.86-2.26.982-.867.116-1.97.116-3.337.116h-2.11c-1.367 0-2.47 0-3.337-.116-.9-.122-1.658-.38-2.26-.982-.4-.4-.648-.87-.806-1.404q-.277 0-.55-.038a3.25 3.25 0 0 1-2.702-2.702c-.04-.253-.04-.542-.04-.943v-9.13c0-.401 0-.69.04-.943A3.25 3.25 0 0 1 3.992 3.79c.162-.026.34-.035.55-.038.158-.534.406-1.003.806-1.404.602-.602 1.36-.86 2.26-.98.867-.118 1.97-.118 3.337-.118zm-5.02 12.82c-.35-.41-.85-.42-1.207-.054L5.75 15.12V16c0 1.435.002 2.436.103 3.192.099.734.28 1.122.556 1.399.277.277.665.457 1.4.556.754.102 1.756.103 3.191.103h2c1.435 0 2.437-.002 3.192-.102.734-.1 1.122-.281 1.399-.557.166-.169.293-.372.37-.596l-1.88-1.985c-.504-.531-1.2-.567-1.73-.13l-.22.18c-.915.755-2.176.607-2.936-.284zm-3.81-8.798a1.75 1.75 0 0 0-1.453 1.454c-.02.122-.022.28-.022.774v9c0 .493.002.652.022.774a1.75 1.75 0 0 0 1.53 1.464c-.052-.749-.052-1.64-.052-2.683v-8.11c0-1.044 0-1.934.052-2.683zm15.474-.01c.051.749.051 1.64.051 2.683v8.11c0 1.044 0 1.934-.052 2.683l.076-.01a1.75 1.75 0 0 0 1.453-1.454c.02-.122.023-.28.023-.774v-9c0-.493-.003-.652-.021-.774a1.75 1.75 0 0 0-1.53-1.464M11 2.75c-1.435 0-2.437.002-3.191.103-.735.099-1.123.28-1.4.556-.276.277-.457.665-.556 1.399C5.752 5.563 5.75 6.565 5.75 8v4.972l.004-.004c.985-1.011 2.51-.942 3.422.127l3.16 3.706c.254.298.587.311.842.1l.22-.18c1.157-.954 2.742-.83 3.772.256l1.06 1.119c.02-.577.02-1.263.02-2.096V8c0-1.435-.002-2.437-.102-3.191-.1-.735-.28-1.123-.557-1.4s-.665-.457-1.399-.556c-.755-.101-1.757-.103-3.192-.103zm3.5 1.5a2.25 2.25 0 1 1 0 4.5 2.25 2.25 0 0 1 0-4.5m0 1.5a.75.75 0 1 0 0 1.5.75.75 0 0 0 0-1.5"/></svg>