<svg xmlns="http://www.w3.org/2000/svg" fill="none" viewBox="0 0 24 24"><path fill="#000" d="M12 1.25c.937 0 1.833.307 3.277.8l.727.25c1.48.507 2.625.9 3.443 1.231.412.167.767.33 1.052.495.275.16.55.36.737.626.185.263.281.587.341.9.063.324.1.713.125 1.16.048.886.048 2.102.048 3.678v1.601c0 6.1-4.608 9.026-7.348 10.224l-.027.01c-.34.15-.66.29-1.027.383-.387.1-.8.142-1.348.142-.55 0-.96-.042-1.348-.142-.367-.094-.687-.233-1.027-.382l-.027-.011C6.858 21.017 2.25 18.092 2.25 11.99v-1.6c0-1.576 0-2.792.048-3.68a9 9 0 0 1 .125-1.16c.06-.311.156-.635.34-.899.188-.266.463-.465.738-.625.285-.165.64-.328 1.052-.495.818-.332 1.962-.724 3.443-1.23l.727-.25c1.444-.494 2.34-.801 3.277-.801m0 1.5c-.658 0-1.305.212-2.92.764l-.572.196c-1.513.518-2.616.896-3.39 1.21q-.446.173-.864.404a2 2 0 0 0-.208.139.4.4 0 0 0-.055.05.4.4 0 0 0-.032.074q-.03.082-.063.248-.083.476-.1.958c-.046.841-.046 2.015-.046 3.624v1.574c0 5.176 3.87 7.723 6.45 8.849.37.162.585.254.824.315.228.06.506.095.976.095s.748-.036.976-.095c.24-.06.454-.153.825-.315 2.58-1.126 6.449-3.674 6.449-8.849v-1.574c0-1.609 0-2.783-.046-3.624a7 7 0 0 0-.1-.958 2 2 0 0 0-.063-.248.4.4 0 0 0-.032-.074.4.4 0 0 0-.055-.05 2 2 0 0 0-.208-.14 7 7 0 0 0-.864-.402c-.774-.315-1.877-.693-3.39-1.21l-.573-.197C13.305 2.962 12.658 2.75 12 2.75M12 14a1 1 0 1 1 0 2 1 1 0 0 1 0-2m0-6.75a.75.75 0 0 1 .75.75v4a.75.75 0 0 1-1.5 0V8a.75.75 0 0 1 .75-.75"/></svg>