<svg xmlns="http://www.w3.org/2000/svg" fill="none" viewBox="0 0 24 24"><path fill="#000" d="M12.04 2a9.82 9.82 0 0 1 7.01 2.91 9.85 9.85 0 0 1 2.9 7.01c0 5.46-4.45 9.91-9.91 9.91-1.66 0-3.29-.42-4.74-1.21L2.05 22l1.4-5.14a9.94 9.94 0 0 1-1.32-4.95C2.13 6.45 6.58 2 12.04 2m-.01 1.67c-4.54 0-8.24 3.7-8.24 8.24a8.26 8.26 0 0 0 1.26 4.38l.2.31-.83 3.04 3.12-.82.3.18c1.27.75 2.72 1.15 4.2 1.15 4.54 0 8.24-3.69 8.22-8.23a8.18 8.18 0 0 0-2.41-5.83 8.15 8.15 0 0 0-5.82-2.42M9.01 7.33c.15.01.36-.05.56.43.2.5.7 1.718.76 1.84.06.12.1.26.02.43-.08.16-.13.27-.25.41s-.26.32-.37.43c-.13.13-.25.26-.11.51.15.25.64 1.06 1.38 1.72.94.84 1.74 1.11 1.99 1.23.25.13.4.11.54-.06.14-.16.61-.72.78-.97.17-.24.33-.2.56-.12.22.09 1.439.69 1.69.81s.4.17.47.28.07.601-.14 1.18c-.2.58-1.19 1.11-1.67 1.18-.43.06-.97.09-1.56-.1-.36-.11-.82-.26-1.41-.52-2.48-1.07-4.11-3.569-4.23-3.74-.12-.16-1.01-1.34-1.01-2.56s.64-1.82.86-2.07c.23-.25.49-.31.66-.31z"/></svg>