<svg xmlns="http://www.w3.org/2000/svg" fill="none" viewBox="0 0 24 24"><path fill="#000" d="M12.001 1.25c5.937 0 10.75 4.813 10.75 10.75q-.001.63-.071 1.24l.027.01a3 3 0 0 0-.048.156C21.97 18.68 17.46 22.75 12 22.75 6.063 22.75 1.25 17.937 1.25 12S6.064 1.25 12.001 1.25M5.578 5.343a9.252 9.252 0 0 0 1.487 14.482 9.25 9.25 0 0 0 5.316 1.418c-.206-.912-.234-2.138.393-3.32.652-1.228 2.002-1.761 2.995-2.005a9.2 9.2 0 0 1 1.898-.254h.043c1.673-.018 2.426-.562 2.826-1.08.342-.444.47-.887.602-1.336l.05-.172A9.22 9.22 0 0 0 18.6 5.52l-.027.1c-.163.594-.425 1.202-.71 1.636-.257.388-.753.78-1.165 1.076q-.436.305-.902.56c-.228.132-.433.25-.63.38-.432.286-.766.593-.991 1.056a.67.67 0 0 0-.035.49c.075.272.126.578.126.89.002.648-.328 1.175-.753 1.517a2.4 2.4 0 0 1-1.52.526c-2.456-.027-3.966-2.02-4.165-4.236-.08-.881-.466-1.773-.954-2.552a8.8 8.8 0 0 0-1.296-1.62m14.328 11.464c-.596.218-1.314.348-2.18.357h-.03l-.09.003a7.7 7.7 0 0 0-1.477.208c-.902.221-1.693.62-2.03 1.252-.455.859-.389 1.793-.22 2.432a9.26 9.26 0 0 0 6.027-4.252M12 2.75a9.2 9.2 0 0 0-5.255 1.636 10.5 10.5 0 0 1 1.4 1.779c.558.89 1.07 2.012 1.177 3.214.15 1.68 1.213 2.854 2.686 2.87a.9.9 0 0 0 .563-.194c.146-.117.196-.24.195-.346 0-.156-.026-.328-.072-.495a2.16 2.16 0 0 1 .131-1.542c.385-.794.956-1.285 1.514-1.653.239-.158.487-.3.71-.43l.09-.05c.255-.148.48-.28.683-.427.431-.31.704-.557.787-.684.183-.276.388-.734.518-1.207.103-.374.131-.662.122-.84A9.2 9.2 0 0 0 12 2.75"/></svg>