<svg xmlns="http://www.w3.org/2000/svg" fill="none" viewBox="0 0 24 24"><path fill="#000" d="M12 1.25a10.75 10.75 0 1 1 0 21.5 10.75 10.75 0 0 1 0-21.5m-3.238 11.5c.03 1.017.127 2.014.282 2.954.194 1.172.477 2.22.824 3.089.35.874.745 1.515 1.14 1.925.393.406.73.532.992.532.261 0 .6-.126.991-.532.396-.41.79-1.051 1.14-1.925.348-.869.631-1.917.825-3.089.155-.94.25-1.937.282-2.954zm-5.982 0a9.25 9.25 0 0 0 6.425 8.068 9.3 9.3 0 0 1-.73-1.468c-.396-.99-.704-2.146-.91-3.4a24 24 0 0 1-.305-3.2zm13.96 0a24 24 0 0 1-.305 3.2c-.207 1.254-.515 2.41-.91 3.4a9.4 9.4 0 0 1-.731 1.468 9.25 9.25 0 0 0 6.425-8.068zM9.205 3.182A9.25 9.25 0 0 0 2.78 11.25h4.48c.033-1.096.135-2.176.305-3.2.207-1.254.515-2.41.91-3.4q.301-.767.731-1.468M12 2.75c-.261 0-.6.126-.991.532-.396.41-.79 1.051-1.14 1.925-.348.869-.631 1.917-.825 3.089a23 23 0 0 0-.282 2.954h6.476a22.5 22.5 0 0 0-.282-2.954c-.194-1.172-.477-2.22-.824-3.089-.35-.874-.745-1.515-1.14-1.925-.393-.406-.73-.532-.992-.532m2.793.432q.431.701.732 1.468c.395.99.703 2.146.91 3.4.173 1.058.275 2.128.305 3.2h4.479a9.25 9.25 0 0 0-6.426-8.068"/></svg>